G04 #@! TF.GenerationSoftware,KiCad,Pcbnew,5.1.6-c6e7f7d~87~ubuntu19.10.1*
G04 #@! TF.CreationDate,2020-11-03T03:18:30+01:00*
G04 #@! TF.ProjectId,fusedoctor,66757365-646f-4637-946f-722e6b696361,rev?*
G04 #@! TF.SameCoordinates,Original*
G04 #@! TF.FileFunction,Copper,L2,Bot*
G04 #@! TF.FilePolarity,Positive*
%FSLAX46Y46*%
G04 Gerber Fmt 4.6, Leading zero omitted, Abs format (unit mm)*
G04 Created by KiCad (PCBNEW 5.1.6-c6e7f7d~87~ubuntu19.10.1) date 2020-11-03 03:18:30*
%MOMM*%
%LPD*%
G01*
G04 APERTURE LIST*
G04 #@! TA.AperFunction,ComponentPad*
%ADD10O,1.600000X1.600000*%
G04 #@! TD*
G04 #@! TA.AperFunction,ComponentPad*
%ADD11C,1.600000*%
G04 #@! TD*
G04 #@! TA.AperFunction,ComponentPad*
%ADD12R,1.600000X1.600000*%
G04 #@! TD*
G04 #@! TA.AperFunction,ComponentPad*
%ADD13O,1.700000X1.700000*%
G04 #@! TD*
G04 #@! TA.AperFunction,ComponentPad*
%ADD14R,1.700000X1.700000*%
G04 #@! TD*
G04 #@! TA.AperFunction,ComponentPad*
%ADD15C,1.300000*%
G04 #@! TD*
G04 #@! TA.AperFunction,ComponentPad*
%ADD16R,1.300000X1.300000*%
G04 #@! TD*
G04 #@! TA.AperFunction,ComponentPad*
%ADD17C,1.800000*%
G04 #@! TD*
G04 #@! TA.AperFunction,ComponentPad*
%ADD18R,1.800000X1.800000*%
G04 #@! TD*
G04 #@! TA.AperFunction,Conductor*
%ADD19C,0.250000*%
G04 #@! TD*
G04 #@! TA.AperFunction,Conductor*
%ADD20C,0.400000*%
G04 #@! TD*
G04 APERTURE END LIST*
D10*
G04 #@! TO.P,JP5,2*
G04 #@! TO.N,GND*
X68250000Y-102880000D03*
D11*
G04 #@! TO.P,JP5,1*
X68250000Y-110500000D03*
G04 #@! TD*
D10*
G04 #@! TO.P,R1,2*
G04 #@! TO.N,+12V*
X111250000Y-102750000D03*
D11*
G04 #@! TO.P,R1,1*
G04 #@! TO.N,RESET*
X103630000Y-102750000D03*
G04 #@! TD*
D10*
G04 #@! TO.P,JP2,2*
G04 #@! TO.N,VCC*
X104750000Y-128740000D03*
D11*
G04 #@! TO.P,JP2,1*
X104750000Y-113500000D03*
G04 #@! TD*
D10*
G04 #@! TO.P,JP1,2*
G04 #@! TO.N,+5V*
X101500000Y-128410000D03*
D11*
G04 #@! TO.P,JP1,1*
X101500000Y-118250000D03*
G04 #@! TD*
D10*
G04 #@! TO.P,R8,2*
G04 #@! TO.N,Net-(R8-Pad2)*
X82710000Y-120000000D03*
D11*
G04 #@! TO.P,R8,1*
G04 #@! TO.N,SCI*
X92870000Y-120000000D03*
G04 #@! TD*
D10*
G04 #@! TO.P,R7,2*
G04 #@! TO.N,Net-(R7-Pad2)*
X82710000Y-123250000D03*
D11*
G04 #@! TO.P,R7,1*
G04 #@! TO.N,SDI*
X92870000Y-123250000D03*
G04 #@! TD*
D10*
G04 #@! TO.P,R6,2*
G04 #@! TO.N,Net-(R6-Pad2)*
X82710000Y-126500000D03*
D11*
G04 #@! TO.P,R6,1*
G04 #@! TO.N,SII*
X92870000Y-126500000D03*
G04 #@! TD*
D10*
G04 #@! TO.P,U5,28*
G04 #@! TO.N,N/C*
X67370000Y-121730000D03*
G04 #@! TO.P,U5,14*
G04 #@! TO.N,/Data0*
X59750000Y-154750000D03*
G04 #@! TO.P,U5,27*
G04 #@! TO.N,N/C*
X67370000Y-124270000D03*
G04 #@! TO.P,U5,13*
G04 #@! TO.N,GND*
X59750000Y-152210000D03*
G04 #@! TO.P,U5,12*
G04 #@! TO.N,XA1*
X59750000Y-149670000D03*
G04 #@! TO.P,U5,25*
G04 #@! TO.N,BS2*
X67370000Y-129350000D03*
G04 #@! TO.P,U5,11*
G04 #@! TO.N,XA0*
X59750000Y-147130000D03*
G04 #@! TO.P,U5,24*
G04 #@! TO.N,/Data7*
X67370000Y-131890000D03*
G04 #@! TO.P,U5,10*
G04 #@! TO.N,N/C*
X59750000Y-144590000D03*
G04 #@! TO.P,U5,23*
G04 #@! TO.N,/Data6*
X67370000Y-134430000D03*
G04 #@! TO.P,U5,9*
G04 #@! TO.N,XTAL1*
X59750000Y-142050000D03*
G04 #@! TO.P,U5,22*
G04 #@! TO.N,GND*
X67370000Y-136970000D03*
G04 #@! TO.P,U5,8*
X59750000Y-139510000D03*
G04 #@! TO.P,U5,21*
G04 #@! TO.N,N/C*
X67370000Y-139510000D03*
G04 #@! TO.P,U5,7*
G04 #@! TO.N,VCC*
X59750000Y-136970000D03*
G04 #@! TO.P,U5,20*
X67370000Y-142050000D03*
G04 #@! TO.P,U5,6*
G04 #@! TO.N,BS1*
X59750000Y-134430000D03*
G04 #@! TO.P,U5,19*
G04 #@! TO.N,/Data5*
X67370000Y-144590000D03*
G04 #@! TO.P,U5,5*
G04 #@! TO.N,~WR*
X59750000Y-131890000D03*
G04 #@! TO.P,U5,18*
G04 #@! TO.N,/Data4*
X67370000Y-147130000D03*
G04 #@! TO.P,U5,4*
G04 #@! TO.N,~OE*
X59750000Y-129350000D03*
G04 #@! TO.P,U5,17*
G04 #@! TO.N,/Data3*
X67370000Y-149670000D03*
G04 #@! TO.P,U5,3*
G04 #@! TO.N,RDY*
X59750000Y-126810000D03*
G04 #@! TO.P,U5,16*
G04 #@! TO.N,/Data2*
X67370000Y-152210000D03*
G04 #@! TO.P,U5,2*
G04 #@! TO.N,N/C*
X59750000Y-124270000D03*
G04 #@! TO.P,U5,15*
G04 #@! TO.N,/Data1*
X67370000Y-154750000D03*
D12*
G04 #@! TO.P,U5,1*
G04 #@! TO.N,RESET*
X59750000Y-121730000D03*
G04 #@! TD*
D10*
G04 #@! TO.P,JP4,2*
G04 #@! TO.N,RESET*
X97000000Y-129500000D03*
D11*
G04 #@! TO.P,JP4,1*
X86840000Y-129500000D03*
G04 #@! TD*
D12*
G04 #@! TO.P,U1,1*
G04 #@! TO.N,N/C*
X95000000Y-109000000D03*
D10*
G04 #@! TO.P,U1,11*
G04 #@! TO.N,Net-(R15-Pad2)*
X72140000Y-116620000D03*
G04 #@! TO.P,U1,2*
G04 #@! TO.N,Net-(R9-Pad2)*
X92460000Y-109000000D03*
G04 #@! TO.P,U1,12*
G04 #@! TO.N,Net-(R6-Pad2)*
X74680000Y-116620000D03*
G04 #@! TO.P,U1,3*
G04 #@! TO.N,Net-(R10-Pad2)*
X89920000Y-109000000D03*
G04 #@! TO.P,U1,13*
G04 #@! TO.N,Net-(R7-Pad2)*
X77220000Y-116620000D03*
G04 #@! TO.P,U1,4*
G04 #@! TO.N,Net-(R2-Pad2)*
X87380000Y-109000000D03*
G04 #@! TO.P,U1,14*
G04 #@! TO.N,Net-(R8-Pad2)*
X79760000Y-116620000D03*
G04 #@! TO.P,U1,5*
G04 #@! TO.N,VCC*
X84840000Y-109000000D03*
G04 #@! TO.P,U1,15*
G04 #@! TO.N,RDY*
X82300000Y-116620000D03*
G04 #@! TO.P,U1,6*
G04 #@! TO.N,Net-(R11-Pad2)*
X82300000Y-109000000D03*
G04 #@! TO.P,U1,16*
G04 #@! TO.N,HC_LD*
X84840000Y-116620000D03*
G04 #@! TO.P,U1,7*
G04 #@! TO.N,Net-(R12-Pad2)*
X79760000Y-109000000D03*
G04 #@! TO.P,U1,17*
G04 #@! TO.N,~HC_OE*
X87380000Y-116620000D03*
G04 #@! TO.P,U1,8*
G04 #@! TO.N,Net-(R13-Pad2)*
X77220000Y-109000000D03*
G04 #@! TO.P,U1,18*
G04 #@! TO.N,LEDG*
X89920000Y-116620000D03*
G04 #@! TO.P,U1,9*
G04 #@! TO.N,Net-(R14-Pad2)*
X74680000Y-109000000D03*
G04 #@! TO.P,U1,19*
G04 #@! TO.N,LEDR*
X92460000Y-116620000D03*
G04 #@! TO.P,U1,10*
G04 #@! TO.N,GND*
X72140000Y-109000000D03*
G04 #@! TO.P,U1,20*
G04 #@! TO.N,+5V*
X95000000Y-116620000D03*
G04 #@! TD*
D13*
G04 #@! TO.P,J2,9*
G04 #@! TO.N,XA1*
X74500000Y-156120000D03*
G04 #@! TO.P,J2,8*
G04 #@! TO.N,XA0*
X74500000Y-153580000D03*
G04 #@! TO.P,J2,7*
G04 #@! TO.N,BS1*
X74500000Y-151040000D03*
G04 #@! TO.P,J2,6*
G04 #@! TO.N,~WR*
X74500000Y-148500000D03*
G04 #@! TO.P,J2,5*
G04 #@! TO.N,~OE*
X74500000Y-145960000D03*
G04 #@! TO.P,J2,4*
G04 #@! TO.N,XTAL1*
X74500000Y-143420000D03*
G04 #@! TO.P,J2,3*
G04 #@! TO.N,N/C*
X74500000Y-140880000D03*
G04 #@! TO.P,J2,2*
G04 #@! TO.N,RDY*
X74500000Y-138340000D03*
D14*
G04 #@! TO.P,J2,1*
G04 #@! TO.N,BS2*
X74500000Y-135800000D03*
G04 #@! TD*
D12*
G04 #@! TO.P,U6,1*
G04 #@! TO.N,RESET*
X78000000Y-133250000D03*
D10*
G04 #@! TO.P,U6,11*
G04 #@! TO.N,XA1*
X85620000Y-156110000D03*
G04 #@! TO.P,U6,12*
G04 #@! TO.N,/Data0*
X85620000Y-153570000D03*
G04 #@! TO.P,U6,3*
G04 #@! TO.N,RDY*
X78000000Y-138330000D03*
G04 #@! TO.P,U6,13*
G04 #@! TO.N,/Data1*
X85620000Y-151030000D03*
G04 #@! TO.P,U6,4*
G04 #@! TO.N,N/C*
X78000000Y-140870000D03*
G04 #@! TO.P,U6,14*
G04 #@! TO.N,/Data2*
X85620000Y-148490000D03*
G04 #@! TO.P,U6,5*
G04 #@! TO.N,XTAL1*
X78000000Y-143410000D03*
G04 #@! TO.P,U6,15*
G04 #@! TO.N,/Data3*
X85620000Y-145950000D03*
G04 #@! TO.P,U6,6*
G04 #@! TO.N,~OE*
X78000000Y-145950000D03*
G04 #@! TO.P,U6,16*
G04 #@! TO.N,/Data4*
X85620000Y-143410000D03*
G04 #@! TO.P,U6,7*
G04 #@! TO.N,~WR*
X78000000Y-148490000D03*
G04 #@! TO.P,U6,17*
G04 #@! TO.N,/Data5*
X85620000Y-140870000D03*
G04 #@! TO.P,U6,8*
G04 #@! TO.N,BS1*
X78000000Y-151030000D03*
G04 #@! TO.P,U6,18*
G04 #@! TO.N,/Data6*
X85620000Y-138330000D03*
G04 #@! TO.P,U6,9*
G04 #@! TO.N,XA0*
X78000000Y-153570000D03*
G04 #@! TO.P,U6,19*
G04 #@! TO.N,/Data7*
X85620000Y-135790000D03*
G04 #@! TO.P,U6,10*
G04 #@! TO.N,GND*
X78000000Y-156110000D03*
G04 #@! TO.P,U6,20*
G04 #@! TO.N,VCC*
X85620000Y-133250000D03*
G04 #@! TD*
D15*
G04 #@! TO.P,Q1,2*
G04 #@! TO.N,Net-(Q1-Pad2)*
X94980000Y-105520000D03*
G04 #@! TO.P,Q1,3*
G04 #@! TO.N,GND*
X93710000Y-104250000D03*
D16*
G04 #@! TO.P,Q1,1*
G04 #@! TO.N,RESET*
X96250000Y-104250000D03*
G04 #@! TD*
D11*
G04 #@! TO.P,JP7,1*
G04 #@! TO.N,RDY*
X89000000Y-139620000D03*
D10*
G04 #@! TO.P,JP7,2*
X89000000Y-132000000D03*
G04 #@! TD*
G04 #@! TO.P,JP3,2*
G04 #@! TO.N,RESET*
X121500000Y-135750000D03*
D11*
G04 #@! TO.P,JP3,1*
X111340000Y-135750000D03*
G04 #@! TD*
D10*
G04 #@! TO.P,JP6,2*
G04 #@! TO.N,GND*
X109250000Y-157120000D03*
D11*
G04 #@! TO.P,JP6,1*
X109250000Y-149500000D03*
G04 #@! TD*
D10*
G04 #@! TO.P,R2,2*
G04 #@! TO.N,Net-(R2-Pad2)*
X101250000Y-111000000D03*
D11*
G04 #@! TO.P,R2,1*
G04 #@! TO.N,Net-(Q1-Pad2)*
X101250000Y-103380000D03*
G04 #@! TD*
D13*
G04 #@! TO.P,J5,2*
G04 #@! TO.N,RESET*
X79040000Y-127000000D03*
D14*
G04 #@! TO.P,J5,1*
G04 #@! TO.N,VCC*
X76500000Y-127000000D03*
G04 #@! TD*
D13*
G04 #@! TO.P,J3,4*
G04 #@! TO.N,SCI*
X108000000Y-122130000D03*
G04 #@! TO.P,J3,3*
G04 #@! TO.N,SDI*
X108000000Y-124670000D03*
G04 #@! TO.P,J3,2*
G04 #@! TO.N,SII*
X108000000Y-127210000D03*
D14*
G04 #@! TO.P,J3,1*
G04 #@! TO.N,RDY*
X108000000Y-129750000D03*
G04 #@! TD*
D10*
G04 #@! TO.P,U2,16*
G04 #@! TO.N,+5V*
X105770000Y-137150000D03*
G04 #@! TO.P,U2,8*
G04 #@! TO.N,GND*
X98150000Y-154930000D03*
G04 #@! TO.P,U2,15*
G04 #@! TO.N,/Data7*
X105770000Y-139690000D03*
G04 #@! TO.P,U2,7*
G04 #@! TO.N,/Data0*
X98150000Y-152390000D03*
G04 #@! TO.P,U2,14*
G04 #@! TO.N,SDI*
X105770000Y-142230000D03*
G04 #@! TO.P,U2,6*
G04 #@! TO.N,/Data1*
X98150000Y-149850000D03*
G04 #@! TO.P,U2,13*
G04 #@! TO.N,~HC_OE*
X105770000Y-144770000D03*
G04 #@! TO.P,U2,5*
G04 #@! TO.N,/Data2*
X98150000Y-147310000D03*
G04 #@! TO.P,U2,12*
G04 #@! TO.N,HC_LD*
X105770000Y-147310000D03*
G04 #@! TO.P,U2,4*
G04 #@! TO.N,/Data3*
X98150000Y-144770000D03*
G04 #@! TO.P,U2,11*
G04 #@! TO.N,SCI*
X105770000Y-149850000D03*
G04 #@! TO.P,U2,3*
G04 #@! TO.N,/Data4*
X98150000Y-142230000D03*
G04 #@! TO.P,U2,10*
G04 #@! TO.N,Net-(R5-Pad1)*
X105770000Y-152390000D03*
G04 #@! TO.P,U2,2*
G04 #@! TO.N,/Data5*
X98150000Y-139690000D03*
G04 #@! TO.P,U2,9*
G04 #@! TO.N,N/C*
X105770000Y-154930000D03*
D12*
G04 #@! TO.P,U2,1*
G04 #@! TO.N,/Data6*
X98150000Y-137150000D03*
G04 #@! TD*
D10*
G04 #@! TO.P,C2,2*
G04 #@! TO.N,GND*
X109250000Y-146500000D03*
D11*
G04 #@! TO.P,C2,1*
G04 #@! TO.N,+5V*
X109250000Y-139000000D03*
G04 #@! TD*
D10*
G04 #@! TO.P,C1,2*
G04 #@! TO.N,GND*
X98250000Y-109000000D03*
D11*
G04 #@! TO.P,C1,1*
G04 #@! TO.N,+5V*
X98250000Y-116500000D03*
G04 #@! TD*
D10*
G04 #@! TO.P,R14,2*
G04 #@! TO.N,Net-(R14-Pad2)*
X64250000Y-108750000D03*
D11*
G04 #@! TO.P,R14,1*
G04 #@! TO.N,~OE*
X64250000Y-116370000D03*
G04 #@! TD*
D13*
G04 #@! TO.P,J1,8*
G04 #@! TO.N,/Data7*
X92750000Y-135760000D03*
G04 #@! TO.P,J1,7*
G04 #@! TO.N,/Data6*
X92750000Y-138300000D03*
G04 #@! TO.P,J1,6*
G04 #@! TO.N,/Data5*
X92750000Y-140840000D03*
G04 #@! TO.P,J1,5*
G04 #@! TO.N,/Data4*
X92750000Y-143380000D03*
G04 #@! TO.P,J1,4*
G04 #@! TO.N,/Data3*
X92750000Y-145920000D03*
G04 #@! TO.P,J1,3*
G04 #@! TO.N,/Data2*
X92750000Y-148460000D03*
G04 #@! TO.P,J1,2*
G04 #@! TO.N,/Data1*
X92750000Y-151000000D03*
D14*
G04 #@! TO.P,J1,1*
G04 #@! TO.N,/Data0*
X92750000Y-153540000D03*
G04 #@! TD*
D10*
G04 #@! TO.P,R15,2*
G04 #@! TO.N,Net-(R15-Pad2)*
X71000000Y-122880000D03*
D11*
G04 #@! TO.P,R15,1*
G04 #@! TO.N,BS2*
X71000000Y-130500000D03*
G04 #@! TD*
D10*
G04 #@! TO.P,R10,2*
G04 #@! TO.N,Net-(R10-Pad2)*
X53750000Y-125250000D03*
D11*
G04 #@! TO.P,R10,1*
G04 #@! TO.N,XA0*
X53750000Y-132870000D03*
G04 #@! TD*
D10*
G04 #@! TO.P,R9,2*
G04 #@! TO.N,Net-(R9-Pad2)*
X56250000Y-155120000D03*
D11*
G04 #@! TO.P,R9,1*
G04 #@! TO.N,XA1*
X56250000Y-147500000D03*
G04 #@! TD*
G04 #@! TO.P,R5,1*
G04 #@! TO.N,Net-(R5-Pad1)*
X98130000Y-134000000D03*
D10*
G04 #@! TO.P,R5,2*
G04 #@! TO.N,+5V*
X105750000Y-134000000D03*
G04 #@! TD*
G04 #@! TO.P,R4,2*
G04 #@! TO.N,Net-(D2-Pad2)*
X120370000Y-117250000D03*
D11*
G04 #@! TO.P,R4,1*
G04 #@! TO.N,LEDR*
X112750000Y-117250000D03*
G04 #@! TD*
D10*
G04 #@! TO.P,R3,2*
G04 #@! TO.N,Net-(D1-Pad2)*
X120370000Y-114000000D03*
D11*
G04 #@! TO.P,R3,1*
G04 #@! TO.N,LEDG*
X112750000Y-114000000D03*
G04 #@! TD*
D17*
G04 #@! TO.P,D2,2*
G04 #@! TO.N,Net-(D2-Pad2)*
X114000000Y-105460000D03*
D18*
G04 #@! TO.P,D2,1*
G04 #@! TO.N,GND*
X114000000Y-108000000D03*
G04 #@! TD*
D17*
G04 #@! TO.P,D1,2*
G04 #@! TO.N,Net-(D1-Pad2)*
X119250000Y-105460000D03*
D18*
G04 #@! TO.P,D1,1*
G04 #@! TO.N,GND*
X119250000Y-108000000D03*
G04 #@! TD*
D13*
G04 #@! TO.P,J4,3*
G04 #@! TO.N,+12V*
X109830000Y-107750000D03*
G04 #@! TO.P,J4,2*
G04 #@! TO.N,+5V*
X107290000Y-107750000D03*
D14*
G04 #@! TO.P,J4,1*
G04 #@! TO.N,GND*
X104750000Y-107750000D03*
G04 #@! TD*
D12*
G04 #@! TO.P,U4,1*
G04 #@! TO.N,VCC*
X121000000Y-155000000D03*
D10*
G04 #@! TO.P,U4,8*
G04 #@! TO.N,SII*
X113380000Y-139760000D03*
G04 #@! TO.P,U4,2*
G04 #@! TO.N,SCI*
X121000000Y-152460000D03*
G04 #@! TO.P,U4,9*
G04 #@! TO.N,RDY*
X113380000Y-142300000D03*
G04 #@! TO.P,U4,3*
G04 #@! TO.N,N/C*
X121000000Y-149920000D03*
G04 #@! TO.P,U4,10*
X113380000Y-144840000D03*
G04 #@! TO.P,U4,4*
G04 #@! TO.N,RESET*
X121000000Y-147380000D03*
G04 #@! TO.P,U4,11*
G04 #@! TO.N,GND*
X113380000Y-147380000D03*
G04 #@! TO.P,U4,5*
G04 #@! TO.N,N/C*
X121000000Y-144840000D03*
G04 #@! TO.P,U4,12*
G04 #@! TO.N,GND*
X113380000Y-149920000D03*
G04 #@! TO.P,U4,6*
G04 #@! TO.N,N/C*
X121000000Y-142300000D03*
G04 #@! TO.P,U4,13*
G04 #@! TO.N,GND*
X113380000Y-152460000D03*
G04 #@! TO.P,U4,7*
G04 #@! TO.N,SDI*
X121000000Y-139760000D03*
G04 #@! TO.P,U4,14*
G04 #@! TO.N,GND*
X113380000Y-155000000D03*
G04 #@! TD*
D12*
G04 #@! TO.P,U3,1*
G04 #@! TO.N,RESET*
X121000000Y-131500000D03*
D10*
G04 #@! TO.P,U3,5*
G04 #@! TO.N,SDI*
X113380000Y-123880000D03*
G04 #@! TO.P,U3,2*
G04 #@! TO.N,SCI*
X121000000Y-128960000D03*
G04 #@! TO.P,U3,6*
G04 #@! TO.N,SII*
X113380000Y-126420000D03*
G04 #@! TO.P,U3,3*
G04 #@! TO.N,N/C*
X121000000Y-126420000D03*
G04 #@! TO.P,U3,7*
G04 #@! TO.N,RDY*
X113380000Y-128960000D03*
G04 #@! TO.P,U3,4*
G04 #@! TO.N,GND*
X121000000Y-123880000D03*
G04 #@! TO.P,U3,8*
G04 #@! TO.N,VCC*
X113380000Y-131500000D03*
G04 #@! TD*
G04 #@! TO.P,R13,2*
G04 #@! TO.N,Net-(R13-Pad2)*
X61000000Y-108750000D03*
D11*
G04 #@! TO.P,R13,1*
G04 #@! TO.N,~WR*
X61000000Y-116370000D03*
G04 #@! TD*
G04 #@! TO.P,R12,1*
G04 #@! TO.N,BS1*
X57750000Y-116370000D03*
D10*
G04 #@! TO.P,R12,2*
G04 #@! TO.N,Net-(R12-Pad2)*
X57750000Y-108750000D03*
G04 #@! TD*
G04 #@! TO.P,R11,2*
G04 #@! TO.N,Net-(R11-Pad2)*
X56250000Y-135880000D03*
D11*
G04 #@! TO.P,R11,1*
G04 #@! TO.N,XTAL1*
X56250000Y-143500000D03*
G04 #@! TD*
D19*
G04 #@! TO.N,/Data7*
X92720000Y-135790000D02*
X92750000Y-135760000D01*
X85620000Y-135790000D02*
X92720000Y-135790000D01*
X69890000Y-131890000D02*
X67370000Y-131890000D01*
X72000000Y-134000000D02*
X69890000Y-131890000D01*
X75000000Y-134000000D02*
X72000000Y-134000000D01*
X76790000Y-135790000D02*
X75000000Y-134000000D01*
X85620000Y-135790000D02*
X76790000Y-135790000D01*
X92750000Y-134250000D02*
X92750000Y-135760000D01*
X94250000Y-132750000D02*
X92750000Y-134250000D01*
X105770000Y-139690000D02*
X104810000Y-139690000D01*
X104810000Y-139690000D02*
X104250000Y-140250000D01*
X107250000Y-148000000D02*
X106650000Y-148600000D01*
X104250000Y-142750000D02*
X105000000Y-143500000D01*
X104250000Y-140250000D02*
X104250000Y-142750000D01*
X105000000Y-143500000D02*
X106750000Y-143500000D01*
X106750000Y-143500000D02*
X107250000Y-144000000D01*
X106650000Y-148600000D02*
X102350000Y-148600000D01*
X102350000Y-148600000D02*
X101500000Y-147750000D01*
X101500000Y-147750000D02*
X101500000Y-134750000D01*
X107250000Y-144000000D02*
X107250000Y-148000000D01*
X101500000Y-134750000D02*
X99500000Y-132750000D01*
X99500000Y-132750000D02*
X94250000Y-132750000D01*
G04 #@! TO.N,/Data6*
X96600000Y-137150000D02*
X98150000Y-137150000D01*
X92720000Y-138330000D02*
X92750000Y-138300000D01*
X85620000Y-138330000D02*
X92720000Y-138330000D01*
X92750000Y-138300000D02*
X94700000Y-138300000D01*
X95850000Y-137150000D02*
X96600000Y-137150000D01*
X94700000Y-138300000D02*
X95850000Y-137150000D01*
X85620000Y-138330000D02*
X82445000Y-138330000D01*
X69180000Y-134430000D02*
X67370000Y-134430000D01*
X71850000Y-137100000D02*
X69180000Y-134430000D01*
X82445000Y-138330000D02*
X81215000Y-137100000D01*
X81215000Y-137100000D02*
X71850000Y-137100000D01*
G04 #@! TO.N,/Data5*
X98150000Y-139690000D02*
X96810000Y-139690000D01*
X92720000Y-140870000D02*
X92750000Y-140840000D01*
X85620000Y-140870000D02*
X92720000Y-140870000D01*
X92750000Y-140840000D02*
X94660000Y-140840000D01*
X95810000Y-139690000D02*
X96810000Y-139690000D01*
X94660000Y-140840000D02*
X95810000Y-139690000D01*
X69160000Y-144590000D02*
X67370000Y-144590000D01*
X81150000Y-142100000D02*
X71650000Y-142100000D01*
X82380000Y-140870000D02*
X81150000Y-142100000D01*
X71650000Y-142100000D02*
X69160000Y-144590000D01*
X85620000Y-140870000D02*
X82380000Y-140870000D01*
G04 #@! TO.N,/Data4*
X98150000Y-142230000D02*
X96645000Y-142230000D01*
X92720000Y-143410000D02*
X92750000Y-143380000D01*
X85620000Y-143410000D02*
X92720000Y-143410000D01*
X92750000Y-143380000D02*
X94620000Y-143380000D01*
X95770000Y-142230000D02*
X96645000Y-142230000D01*
X94620000Y-143380000D02*
X95770000Y-142230000D01*
X69120000Y-147130000D02*
X67370000Y-147130000D01*
X81300000Y-144700000D02*
X71550000Y-144700000D01*
X82590000Y-143410000D02*
X81300000Y-144700000D01*
X85620000Y-143410000D02*
X82590000Y-143410000D01*
X71550000Y-144700000D02*
X69120000Y-147130000D01*
G04 #@! TO.N,/Data3*
X98150000Y-144770000D02*
X96730000Y-144770000D01*
X92720000Y-145950000D02*
X92750000Y-145920000D01*
X85620000Y-145950000D02*
X92720000Y-145950000D01*
X92750000Y-145920000D02*
X94580000Y-145920000D01*
X95730000Y-144770000D02*
X96730000Y-144770000D01*
X94580000Y-145920000D02*
X95730000Y-144770000D01*
X69080000Y-149670000D02*
X67370000Y-149670000D01*
X82550000Y-145950000D02*
X81300000Y-147200000D01*
X81300000Y-147200000D02*
X71550000Y-147200000D01*
X85620000Y-145950000D02*
X82550000Y-145950000D01*
X71550000Y-147200000D02*
X69080000Y-149670000D01*
G04 #@! TO.N,/Data2*
X98150000Y-147310000D02*
X96690000Y-147310000D01*
X92750000Y-148460000D02*
X94540000Y-148460000D01*
X95690000Y-147310000D02*
X96690000Y-147310000D01*
X94540000Y-148460000D02*
X95690000Y-147310000D01*
X69040000Y-152210000D02*
X67370000Y-152210000D01*
X81200000Y-149800000D02*
X71450000Y-149800000D01*
X82510000Y-148490000D02*
X81200000Y-149800000D01*
X85620000Y-148490000D02*
X82510000Y-148490000D01*
X85620000Y-148490000D02*
X92720000Y-148490000D01*
X92720000Y-148490000D02*
X92750000Y-148460000D01*
X71450000Y-149800000D02*
X69040000Y-152210000D01*
G04 #@! TO.N,SII*
X93870000Y-125500000D02*
X92870000Y-126500000D01*
X113380000Y-126420000D02*
X111330000Y-126420000D01*
X111330000Y-126420000D02*
X110540000Y-127210000D01*
X110540000Y-127210000D02*
X108000000Y-127210000D01*
X113390000Y-139750000D02*
X113380000Y-139760000D01*
X115750000Y-139750000D02*
X113390000Y-139750000D01*
X116750000Y-138750000D02*
X115750000Y-139750000D01*
X115420000Y-126420000D02*
X116750000Y-127750000D01*
X116750000Y-127750000D02*
X116750000Y-138750000D01*
X113380000Y-126420000D02*
X115420000Y-126420000D01*
X108000000Y-127210000D02*
X105290000Y-124500000D01*
X94870000Y-124500000D02*
X93870000Y-125500000D01*
X105290000Y-124500000D02*
X94870000Y-124500000D01*
G04 #@! TO.N,SDI*
X111380000Y-123880000D02*
X113380000Y-123880000D01*
X110590000Y-124670000D02*
X111380000Y-123880000D01*
X108000000Y-124670000D02*
X110590000Y-124670000D01*
X119010000Y-139760000D02*
X121000000Y-139760000D01*
X119010000Y-139760000D02*
X119010000Y-152760000D01*
X119010000Y-152760000D02*
X120000000Y-153750000D01*
X112000000Y-146250000D02*
X107980000Y-142230000D01*
X120000000Y-153750000D02*
X121935002Y-153750000D01*
X121935002Y-153750000D02*
X122500000Y-154314998D01*
X122500000Y-154314998D02*
X122500000Y-155750000D01*
X116000000Y-153750000D02*
X116000000Y-147000000D01*
X122500000Y-155750000D02*
X121750000Y-156500000D01*
X121750000Y-156500000D02*
X118750000Y-156500000D01*
X118750000Y-156500000D02*
X116000000Y-153750000D01*
X116000000Y-147000000D02*
X115250000Y-146250000D01*
X115250000Y-146250000D02*
X112000000Y-146250000D01*
X107980000Y-142230000D02*
X105770000Y-142230000D01*
X117750000Y-125500000D02*
X117750000Y-132750000D01*
X117750000Y-132750000D02*
X119010000Y-134010000D01*
X116130000Y-123880000D02*
X117750000Y-125500000D01*
X119010000Y-134010000D02*
X119010000Y-139760000D01*
X113380000Y-123880000D02*
X116130000Y-123880000D01*
X106580000Y-123250000D02*
X108000000Y-124670000D01*
X92870000Y-123250000D02*
X106580000Y-123250000D01*
G04 #@! TO.N,XA1*
X74500000Y-157750000D02*
X74500000Y-156080000D01*
X80250000Y-157750000D02*
X74500000Y-157750000D01*
X81890000Y-156110000D02*
X80250000Y-157750000D01*
X85620000Y-156110000D02*
X81890000Y-156110000D01*
X64500000Y-157750000D02*
X74500000Y-157750000D01*
X61500000Y-154750000D02*
X64500000Y-157750000D01*
X59750000Y-149670000D02*
X61500000Y-151420000D01*
X56250000Y-147500000D02*
X56250000Y-152000000D01*
X57750000Y-153500000D02*
X61500000Y-153500000D01*
X56250000Y-152000000D02*
X57750000Y-153500000D01*
X61500000Y-153500000D02*
X61500000Y-154750000D01*
X61500000Y-151420000D02*
X61500000Y-153500000D01*
G04 #@! TO.N,XA0*
X61130000Y-147130000D02*
X59750000Y-147130000D01*
X63500000Y-149500000D02*
X61130000Y-147130000D01*
X63500000Y-154000000D02*
X63500000Y-149500000D01*
X69500000Y-156000000D02*
X65500000Y-156000000D01*
X71940000Y-153560000D02*
X69500000Y-156000000D01*
X73250000Y-153560000D02*
X71940000Y-153560000D01*
X73260000Y-153570000D02*
X73250000Y-153560000D01*
X65500000Y-156000000D02*
X63500000Y-154000000D01*
X78000000Y-153570000D02*
X73260000Y-153570000D01*
X54500000Y-138250000D02*
X53750000Y-137500000D01*
X60500000Y-138250000D02*
X54500000Y-138250000D01*
X61130000Y-138880000D02*
X60500000Y-138250000D01*
X61130000Y-147130000D02*
X61130000Y-138880000D01*
X53750000Y-137500000D02*
X53750000Y-132870000D01*
G04 #@! TO.N,BS1*
X78000000Y-151030000D02*
X77990000Y-151020000D01*
X61180000Y-134430000D02*
X59750000Y-134430000D01*
X77990000Y-151020000D02*
X71480000Y-151020000D01*
X69000000Y-153500000D02*
X65000000Y-153500000D01*
X71480000Y-151020000D02*
X69000000Y-153500000D01*
X64250000Y-149000000D02*
X62000000Y-146750000D01*
X65000000Y-153500000D02*
X64250000Y-152750000D01*
X64250000Y-152750000D02*
X64250000Y-149000000D01*
X62000000Y-146750000D02*
X62000000Y-135250000D01*
X62000000Y-135250000D02*
X61180000Y-134430000D01*
X57680000Y-134430000D02*
X59750000Y-134430000D01*
X56750000Y-133500000D02*
X57680000Y-134430000D01*
X56750000Y-117370000D02*
X56750000Y-133500000D01*
X57750000Y-116370000D02*
X56750000Y-117370000D01*
G04 #@! TO.N,SCI*
X121210000Y-152460000D02*
X121000000Y-152460000D01*
X121000000Y-128960000D02*
X120290000Y-128960000D01*
X105770000Y-149850000D02*
X106400000Y-149850000D01*
X119710000Y-128960000D02*
X121000000Y-128960000D01*
X119000000Y-128250000D02*
X119710000Y-128960000D01*
X119000000Y-124000000D02*
X119000000Y-128250000D01*
X117130000Y-122130000D02*
X119000000Y-124000000D01*
X108000000Y-122130000D02*
X117130000Y-122130000D01*
X123250000Y-152460000D02*
X121000000Y-152460000D01*
X122460000Y-128960000D02*
X121000000Y-128960000D01*
X122710000Y-128960000D02*
X122460000Y-128960000D01*
X123250000Y-129500000D02*
X122710000Y-128960000D01*
X123250000Y-152460000D02*
X123250000Y-129500000D01*
X108250000Y-153750000D02*
X107750000Y-153250000D01*
X107750000Y-150500000D02*
X107100000Y-149850000D01*
X114750000Y-153750000D02*
X108250000Y-153750000D01*
X118500000Y-157500000D02*
X114750000Y-153750000D01*
X121750000Y-157500000D02*
X118500000Y-157500000D01*
X107100000Y-149850000D02*
X105770000Y-149850000D01*
X107750000Y-153250000D02*
X107750000Y-150500000D01*
X123250000Y-156000000D02*
X121750000Y-157500000D01*
X123250000Y-152460000D02*
X123250000Y-156000000D01*
X108000000Y-122130000D02*
X106130000Y-122130000D01*
X106130000Y-122130000D02*
X105500000Y-121500000D01*
X94370000Y-121500000D02*
X92870000Y-120000000D01*
X105500000Y-121500000D02*
X94370000Y-121500000D01*
G04 #@! TO.N,RDY*
X108750000Y-129830000D02*
X110670000Y-129830000D01*
X110670000Y-129830000D02*
X111540000Y-128960000D01*
X111540000Y-128960000D02*
X113380000Y-128960000D01*
X112300000Y-142300000D02*
X113380000Y-142300000D01*
X112000000Y-142000000D02*
X112300000Y-142300000D01*
X112000000Y-138812500D02*
X112000000Y-142000000D01*
X112562500Y-138250000D02*
X112000000Y-138812500D01*
X114500000Y-138250000D02*
X112562500Y-138250000D01*
X115500000Y-137250000D02*
X114500000Y-138250000D01*
X115500000Y-129750000D02*
X115500000Y-137250000D01*
X114710000Y-128960000D02*
X115500000Y-129750000D01*
X113380000Y-128960000D02*
X114710000Y-128960000D01*
X74510000Y-138330000D02*
X74500000Y-138340000D01*
X79830000Y-138330000D02*
X78000000Y-138330000D01*
X78000000Y-138330000D02*
X74510000Y-138330000D01*
X89000000Y-139620000D02*
X81120000Y-139620000D01*
X81120000Y-139620000D02*
X79830000Y-138330000D01*
X85750000Y-120070000D02*
X82300000Y-116620000D01*
X85750000Y-126000000D02*
X85750000Y-120070000D01*
X89000000Y-129250000D02*
X85750000Y-126000000D01*
X89000000Y-132000000D02*
X89000000Y-129250000D01*
X73910000Y-138340000D02*
X74500000Y-138340000D01*
X68950000Y-143300000D02*
X73910000Y-138340000D01*
X65050000Y-143300000D02*
X68950000Y-143300000D01*
X64224990Y-142474990D02*
X65050000Y-143300000D01*
X64224990Y-127974990D02*
X64224990Y-142474990D01*
X63060000Y-126810000D02*
X64224990Y-127974990D01*
X59750000Y-126810000D02*
X63060000Y-126810000D01*
X82300000Y-115700000D02*
X82300000Y-116620000D01*
X83000000Y-115000000D02*
X82300000Y-115700000D01*
X108000000Y-129750000D02*
X108000000Y-129250000D01*
X108000000Y-129250000D02*
X104250000Y-125500000D01*
X91250000Y-127250000D02*
X91250000Y-120250000D01*
X95750000Y-125500000D02*
X94750000Y-126500000D01*
X94750000Y-127250000D02*
X94000000Y-128000000D01*
X94000000Y-128000000D02*
X92000000Y-128000000D01*
X94750000Y-126500000D02*
X94750000Y-127250000D01*
X92000000Y-128000000D02*
X91250000Y-127250000D01*
X88700000Y-115700000D02*
X88000000Y-115000000D01*
X104250000Y-125500000D02*
X95750000Y-125500000D01*
X91250000Y-120250000D02*
X88700000Y-117700000D01*
X88700000Y-117700000D02*
X88700000Y-115700000D01*
X88000000Y-115000000D02*
X83000000Y-115000000D01*
D20*
G04 #@! TO.N,GND*
X117000000Y-108000000D02*
X119250000Y-108000000D01*
X114000000Y-108000000D02*
X117000000Y-108000000D01*
X117000000Y-108000000D02*
X117000000Y-109500000D01*
X118000000Y-110500000D02*
X118000000Y-120880000D01*
X117000000Y-109500000D02*
X118000000Y-110500000D01*
X118000000Y-120880000D02*
X121000000Y-123880000D01*
X124000000Y-125000000D02*
X124000000Y-156500000D01*
X122880000Y-123880000D02*
X124000000Y-125000000D01*
X121000000Y-123880000D02*
X122880000Y-123880000D01*
X109250000Y-155500000D02*
X109250000Y-158250000D01*
X109750000Y-155000000D02*
X109250000Y-155500000D01*
X113380000Y-155000000D02*
X109750000Y-155000000D01*
X122250000Y-158250000D02*
X109250000Y-158250000D01*
X124000000Y-156500000D02*
X122250000Y-158250000D01*
X109250000Y-149500000D02*
X111000000Y-149500000D01*
X111420000Y-149920000D02*
X113380000Y-149920000D01*
X111000000Y-149500000D02*
X111420000Y-149920000D01*
X113380000Y-147380000D02*
X113380000Y-149920000D01*
X113380000Y-149920000D02*
X113380000Y-152460000D01*
X100250000Y-157250000D02*
X101250000Y-158250000D01*
X109250000Y-158250000D02*
X101250000Y-158250000D01*
X100180000Y-154930000D02*
X100250000Y-155000000D01*
X98150000Y-154930000D02*
X100180000Y-154930000D01*
X100250000Y-155000000D02*
X100250000Y-157250000D01*
X109250000Y-146500000D02*
X109250000Y-149500000D01*
X58000000Y-148500000D02*
X58000000Y-151250000D01*
X58710000Y-152210000D02*
X59750000Y-152210000D01*
X58000000Y-151500000D02*
X58710000Y-152210000D01*
X58000000Y-151250000D02*
X58000000Y-151500000D01*
X58000000Y-146750000D02*
X58000000Y-151250000D01*
X55250000Y-146000000D02*
X57250000Y-146000000D01*
X54500000Y-145250000D02*
X55250000Y-146000000D01*
X54500000Y-140750000D02*
X54500000Y-145250000D01*
X55740000Y-139510000D02*
X54500000Y-140750000D01*
X57250000Y-146000000D02*
X58000000Y-146750000D01*
X59750000Y-139510000D02*
X55740000Y-139510000D01*
X72140000Y-109860000D02*
X72140000Y-109000000D01*
X71500000Y-110500000D02*
X72140000Y-109860000D01*
X71500000Y-110500000D02*
X68250000Y-110500000D01*
X93710000Y-104250000D02*
X93710000Y-106710000D01*
X93710000Y-106710000D02*
X94250000Y-107250000D01*
X94250000Y-107250000D02*
X97500000Y-107250000D01*
X98250000Y-108000000D02*
X98250000Y-109000000D01*
X97500000Y-107250000D02*
X98250000Y-108000000D01*
X112000000Y-104500000D02*
X112000000Y-107250000D01*
X113500000Y-103000000D02*
X112000000Y-104500000D01*
X113500000Y-102000000D02*
X113500000Y-103000000D01*
X112750000Y-101250000D02*
X113500000Y-102000000D01*
X106250000Y-101250000D02*
X112750000Y-101250000D01*
X106250000Y-104750000D02*
X106250000Y-101250000D01*
X112750000Y-108000000D02*
X114000000Y-108000000D01*
X104750000Y-106250000D02*
X106250000Y-104750000D01*
X112000000Y-107250000D02*
X112750000Y-108000000D01*
X104750000Y-107750000D02*
X104750000Y-106250000D01*
X100000000Y-101750000D02*
X69380000Y-101750000D01*
X100500000Y-101250000D02*
X100000000Y-101750000D01*
X69380000Y-101750000D02*
X68250000Y-102880000D01*
X106250000Y-101250000D02*
X100500000Y-101250000D01*
X93710000Y-104250000D02*
X93710000Y-101750000D01*
X79140000Y-156110000D02*
X78000000Y-156110000D01*
X82996799Y-152253201D02*
X79140000Y-156110000D01*
X94996799Y-152253201D02*
X82996799Y-152253201D01*
X99350000Y-151100000D02*
X96150000Y-151100000D01*
X96150000Y-151100000D02*
X94996799Y-152253201D01*
X100250000Y-152000000D02*
X99350000Y-151100000D01*
X100250000Y-155000000D02*
X100250000Y-152000000D01*
X60650000Y-148400000D02*
X58100000Y-148400000D01*
X62500000Y-150250000D02*
X60650000Y-148400000D01*
X65250000Y-157000000D02*
X62500000Y-154250000D01*
X70000000Y-157000000D02*
X65250000Y-157000000D01*
X58100000Y-148400000D02*
X58030001Y-148469999D01*
X72150000Y-154850000D02*
X70000000Y-157000000D01*
X77610000Y-156110000D02*
X76350000Y-154850000D01*
X62500000Y-154250000D02*
X62500000Y-150250000D01*
X76350000Y-154850000D02*
X72150000Y-154850000D01*
X78000000Y-156110000D02*
X77610000Y-156110000D01*
G04 #@! TO.N,VCC*
X121000000Y-155000000D02*
X121500000Y-155000000D01*
X113380000Y-131500000D02*
X106250000Y-131500000D01*
X104750000Y-130000000D02*
X104750000Y-128870000D01*
X106250000Y-131500000D02*
X104750000Y-130000000D01*
X84840000Y-112750000D02*
X84840000Y-109000000D01*
X76500000Y-127000000D02*
X73400000Y-127000000D01*
X79750000Y-112750000D02*
X84840000Y-112750000D01*
X77750000Y-114750000D02*
X79750000Y-112750000D01*
X74750000Y-114750000D02*
X77750000Y-114750000D01*
X73400000Y-116100000D02*
X74750000Y-114750000D01*
X73400000Y-131150000D02*
X73400000Y-116100000D01*
X84120000Y-134750000D02*
X77000000Y-134750000D01*
X77000000Y-134750000D02*
X73400000Y-131150000D01*
X85620000Y-133250000D02*
X84120000Y-134750000D01*
X99750000Y-112750000D02*
X84840000Y-112750000D01*
X100500000Y-113500000D02*
X99750000Y-112750000D01*
X104750000Y-113500000D02*
X100500000Y-113500000D01*
X66000000Y-127000000D02*
X73400000Y-127000000D01*
X65800000Y-142050000D02*
X65000000Y-141250000D01*
X65000000Y-128000000D02*
X66000000Y-127000000D01*
X65000000Y-141250000D02*
X65000000Y-128000000D01*
X67370000Y-142050000D02*
X65800000Y-142050000D01*
X117500000Y-146750000D02*
X117500000Y-153750000D01*
X114350000Y-143600000D02*
X117500000Y-146750000D01*
X117500000Y-153750000D02*
X118750000Y-155000000D01*
X111000000Y-142750000D02*
X111850000Y-143600000D01*
X113500000Y-136250000D02*
X111000000Y-138750000D01*
X111850000Y-143600000D02*
X114350000Y-143600000D01*
X113500000Y-131620000D02*
X113500000Y-136250000D01*
X118750000Y-155000000D02*
X121000000Y-155000000D01*
X111000000Y-138750000D02*
X111000000Y-142750000D01*
X113380000Y-131500000D02*
X113500000Y-131620000D01*
D19*
G04 #@! TO.N,RESET*
X96750000Y-104750000D02*
X96250000Y-104250000D01*
X96250000Y-104250000D02*
X98250000Y-104250000D01*
X98250000Y-104250000D02*
X99000000Y-105000000D01*
X99000000Y-105000000D02*
X102750000Y-105000000D01*
X103630000Y-104120000D02*
X103630000Y-102750000D01*
X102750000Y-105000000D02*
X103630000Y-104120000D01*
X102750000Y-110500000D02*
X102750000Y-105000000D01*
X103750000Y-111500000D02*
X102750000Y-110500000D01*
X86840000Y-128340000D02*
X84750000Y-126250000D01*
X81000000Y-115000000D02*
X82000000Y-114000000D01*
X101250000Y-115500000D02*
X105750000Y-115500000D01*
X106750000Y-112750000D02*
X105500000Y-111500000D01*
X105750000Y-115500000D02*
X106750000Y-114500000D01*
X84750000Y-126250000D02*
X84750000Y-120000000D01*
X84750000Y-120000000D02*
X83000000Y-118250000D01*
X105500000Y-111500000D02*
X103750000Y-111500000D01*
X81000000Y-117250000D02*
X81000000Y-115000000D01*
X82000000Y-114000000D02*
X99750000Y-114000000D01*
X83000000Y-118250000D02*
X82000000Y-118250000D01*
X86840000Y-129750000D02*
X86840000Y-128340000D01*
X82000000Y-118250000D02*
X81000000Y-117250000D01*
X99750000Y-114000000D02*
X101250000Y-115500000D01*
X106750000Y-114500000D02*
X106750000Y-112750000D01*
X78000000Y-130500000D02*
X78000000Y-133250000D01*
X79000000Y-129500000D02*
X78000000Y-130500000D01*
X86840000Y-129500000D02*
X79000000Y-129500000D01*
X79000000Y-127040000D02*
X79040000Y-127000000D01*
X79000000Y-129500000D02*
X79000000Y-127040000D01*
X98250000Y-126750000D02*
X97000000Y-128000000D01*
X102500000Y-126750000D02*
X98250000Y-126750000D01*
X105750000Y-132500000D02*
X103250000Y-130000000D01*
X103250000Y-127500000D02*
X102500000Y-126750000D01*
X110250000Y-132500000D02*
X105750000Y-132500000D01*
X111340000Y-133590000D02*
X110250000Y-132500000D01*
X103250000Y-130000000D02*
X103250000Y-127500000D01*
X111340000Y-135750000D02*
X111340000Y-133590000D01*
X97000000Y-128000000D02*
X97000000Y-129500000D01*
X69750000Y-121500000D02*
X68250000Y-123000000D01*
X71500000Y-113750000D02*
X69750000Y-115500000D01*
X77000000Y-113750000D02*
X71500000Y-113750000D01*
X103750000Y-111500000D02*
X102750000Y-112500000D01*
X102750000Y-112500000D02*
X100750000Y-112500000D01*
X100750000Y-112500000D02*
X100000000Y-111750000D01*
X86100000Y-107850000D02*
X85500000Y-107250000D01*
X87000000Y-111750000D02*
X86100000Y-110850000D01*
X68250000Y-123000000D02*
X61020000Y-123000000D01*
X69750000Y-115500000D02*
X69750000Y-121500000D01*
X86100000Y-110850000D02*
X86100000Y-107850000D01*
X83600000Y-107837500D02*
X83600000Y-110650000D01*
X61020000Y-123000000D02*
X59750000Y-121730000D01*
X85500000Y-107250000D02*
X84187500Y-107250000D01*
X83600000Y-110650000D02*
X82500000Y-111750000D01*
X84187500Y-107250000D02*
X83600000Y-107837500D01*
X82500000Y-111750000D02*
X79000000Y-111750000D01*
X100000000Y-111750000D02*
X87000000Y-111750000D01*
X79000000Y-111750000D02*
X77000000Y-113750000D01*
X122500000Y-136750000D02*
X121500000Y-135750000D01*
X122500000Y-147000000D02*
X122500000Y-136750000D01*
X122120000Y-147380000D02*
X122500000Y-147000000D01*
X121000000Y-147380000D02*
X122120000Y-147380000D01*
X121000000Y-133400000D02*
X121000000Y-131500000D01*
X121500000Y-133900000D02*
X121000000Y-133400000D01*
X121500000Y-135750000D02*
X121500000Y-133900000D01*
G04 #@! TO.N,Net-(Q1-Pad2)*
X94980000Y-105520000D02*
X95020000Y-105520000D01*
X101250000Y-103380000D02*
X99130000Y-103380000D01*
X99130000Y-103380000D02*
X98500000Y-102750000D01*
X98500000Y-102750000D02*
X95500000Y-102750000D01*
X94980000Y-103270000D02*
X94980000Y-105520000D01*
X95500000Y-102750000D02*
X94980000Y-103270000D01*
G04 #@! TO.N,+12V*
X111250000Y-102750000D02*
X110250000Y-102750000D01*
X109830000Y-103170000D02*
X109830000Y-107750000D01*
X110250000Y-102750000D02*
X109830000Y-103170000D01*
G04 #@! TO.N,Net-(R7-Pad2)*
X78600000Y-118000000D02*
X77220000Y-116620000D01*
X79250000Y-118000000D02*
X78600000Y-118000000D01*
X81250000Y-120000000D02*
X79250000Y-118000000D01*
X81250000Y-121790000D02*
X81250000Y-120000000D01*
X82710000Y-123250000D02*
X81250000Y-121790000D01*
G04 #@! TO.N,Net-(R8-Pad2)*
X79760000Y-117050000D02*
X79760000Y-116620000D01*
X82710000Y-120000000D02*
X79760000Y-117050000D01*
G04 #@! TO.N,Net-(R9-Pad2)*
X92460000Y-105960000D02*
X92460000Y-109000000D01*
X90750000Y-104250000D02*
X92460000Y-105960000D01*
X53000000Y-104250000D02*
X90750000Y-104250000D01*
X52000000Y-105250000D02*
X53000000Y-104250000D01*
X52000000Y-154250000D02*
X52000000Y-105250000D01*
X52870000Y-155120000D02*
X52000000Y-154250000D01*
X56250000Y-155120000D02*
X52870000Y-155120000D01*
G04 #@! TO.N,Net-(R6-Pad2)*
X80500000Y-124250000D02*
X82710000Y-126460000D01*
X80250000Y-124000000D02*
X80500000Y-124250000D01*
X80250000Y-120500000D02*
X80250000Y-124000000D01*
X75500000Y-119000000D02*
X78750000Y-119000000D01*
X78750000Y-119000000D02*
X80250000Y-120500000D01*
X74680000Y-118180000D02*
X75500000Y-119000000D01*
X74680000Y-116620000D02*
X74680000Y-118180000D01*
G04 #@! TO.N,Net-(D1-Pad2)*
X120710000Y-105460000D02*
X119250000Y-105460000D01*
X121750000Y-106500000D02*
X120710000Y-105460000D01*
X121750000Y-113500000D02*
X121750000Y-106500000D01*
X121250000Y-114000000D02*
X121750000Y-113500000D01*
X120370000Y-114000000D02*
X121250000Y-114000000D01*
G04 #@! TO.N,Net-(D2-Pad2)*
X114000000Y-104250000D02*
X114000000Y-105460000D01*
X114750000Y-103500000D02*
X114000000Y-104250000D01*
X121500000Y-103500000D02*
X114750000Y-103500000D01*
X122750000Y-104750000D02*
X121500000Y-103500000D01*
X122750000Y-116000000D02*
X122750000Y-104750000D01*
X121500000Y-117250000D02*
X122750000Y-116000000D01*
X120370000Y-117250000D02*
X121500000Y-117250000D01*
G04 #@! TO.N,/Data1*
X98150000Y-149850000D02*
X96650000Y-149850000D01*
X92720000Y-151030000D02*
X92750000Y-151000000D01*
X85620000Y-151030000D02*
X92720000Y-151030000D01*
X92750000Y-151000000D02*
X94750000Y-151000000D01*
X95900000Y-149850000D02*
X96650000Y-149850000D01*
X94750000Y-151000000D02*
X95900000Y-149850000D01*
X71450000Y-152300000D02*
X69000000Y-154750000D01*
X69000000Y-154750000D02*
X67370000Y-154750000D01*
X81200000Y-152300000D02*
X71450000Y-152300000D01*
X82470000Y-151030000D02*
X81200000Y-152300000D01*
X85620000Y-151030000D02*
X82470000Y-151030000D01*
G04 #@! TO.N,/Data0*
X92720000Y-153570000D02*
X92750000Y-153540000D01*
X85620000Y-153570000D02*
X92720000Y-153570000D01*
X96610000Y-152390000D02*
X98150000Y-152390000D01*
X96110000Y-152390000D02*
X96610000Y-152390000D01*
X94960000Y-153540000D02*
X96110000Y-152390000D01*
X92750000Y-153540000D02*
X94960000Y-153540000D01*
X92750000Y-153540000D02*
X92750000Y-157250000D01*
X92750000Y-157250000D02*
X91500000Y-158500000D01*
X63500000Y-158500000D02*
X59750000Y-154750000D01*
X91500000Y-158500000D02*
X63500000Y-158500000D01*
G04 #@! TO.N,BS2*
X68600000Y-129350000D02*
X67370000Y-129350000D01*
X69750000Y-130500000D02*
X68600000Y-129350000D01*
X71000000Y-130500000D02*
X69750000Y-130500000D01*
X66450000Y-129350000D02*
X65800000Y-130000000D01*
X67370000Y-129350000D02*
X66450000Y-129350000D01*
X65800000Y-130000000D02*
X65800000Y-132500000D01*
X65800000Y-132500000D02*
X66500000Y-133200000D01*
X72100000Y-135800000D02*
X74500000Y-135800000D01*
X69500000Y-133200000D02*
X72100000Y-135800000D01*
X66500000Y-133200000D02*
X69500000Y-133200000D01*
G04 #@! TO.N,~WR*
X59750000Y-131890000D02*
X62000000Y-131890000D01*
X65000000Y-148500000D02*
X65000000Y-150250000D01*
X65750000Y-151000000D02*
X69000000Y-151000000D01*
X69000000Y-151000000D02*
X71520000Y-148480000D01*
X62000000Y-131890000D02*
X62750000Y-132640000D01*
X62750000Y-132640000D02*
X62750000Y-146250000D01*
X62750000Y-146250000D02*
X65000000Y-148500000D01*
X65000000Y-150250000D02*
X65750000Y-151000000D01*
X71520000Y-148480000D02*
X77990000Y-148480000D01*
X77990000Y-148480000D02*
X78000000Y-148490000D01*
X57500000Y-131250000D02*
X58140000Y-131890000D01*
X58140000Y-131890000D02*
X59750000Y-131890000D01*
X57500000Y-119750000D02*
X57500000Y-131250000D01*
X58750000Y-118500000D02*
X57500000Y-119750000D01*
X60500000Y-118500000D02*
X58750000Y-118500000D01*
X61000000Y-118000000D02*
X60500000Y-118500000D01*
X61000000Y-116370000D02*
X61000000Y-118000000D01*
G04 #@! TO.N,~OE*
X59750000Y-129350000D02*
X59650000Y-129250000D01*
X78000000Y-145950000D02*
X77990000Y-145940000D01*
X69100000Y-148400000D02*
X66150000Y-148400000D01*
X77990000Y-145940000D02*
X71560000Y-145940000D01*
X71560000Y-145940000D02*
X69100000Y-148400000D01*
X66150000Y-148400000D02*
X63500000Y-145750000D01*
X63500000Y-145750000D02*
X63500000Y-131250000D01*
X63500000Y-131250000D02*
X61600000Y-129350000D01*
X61600000Y-129350000D02*
X59750000Y-129350000D01*
X64243590Y-116370000D02*
X64250000Y-116370000D01*
X64250000Y-119000000D02*
X64250000Y-116370000D01*
X58250000Y-120250000D02*
X59000000Y-119500000D01*
X58250000Y-128750000D02*
X58250000Y-120250000D01*
X59000000Y-119500000D02*
X63750000Y-119500000D01*
X58850000Y-129350000D02*
X58250000Y-128750000D01*
X63750000Y-119500000D02*
X64250000Y-119000000D01*
X59750000Y-129350000D02*
X58850000Y-129350000D01*
G04 #@! TO.N,Net-(R2-Pad2)*
X88000000Y-111000000D02*
X101250000Y-111000000D01*
X87380000Y-110380000D02*
X88000000Y-111000000D01*
X87380000Y-109000000D02*
X87380000Y-110380000D01*
G04 #@! TO.N,LEDG*
X89920000Y-115580000D02*
X89920000Y-116620000D01*
X93000000Y-115000000D02*
X90500000Y-115000000D01*
X96125001Y-119875001D02*
X93750000Y-117500000D01*
X109124999Y-119875001D02*
X96125001Y-119875001D01*
X93750000Y-115750000D02*
X93000000Y-115000000D01*
X93750000Y-117500000D02*
X93750000Y-115750000D01*
X110500000Y-115250000D02*
X110500000Y-118500000D01*
X90500000Y-115000000D02*
X89920000Y-115580000D01*
X110500000Y-118500000D02*
X109124999Y-119875001D01*
X111750000Y-114000000D02*
X110500000Y-115250000D01*
X112750000Y-114000000D02*
X111750000Y-114000000D01*
G04 #@! TO.N,LEDR*
X92460000Y-117460000D02*
X92460000Y-116620000D01*
X95500000Y-120500000D02*
X92460000Y-117460000D01*
X109500000Y-120500000D02*
X95500000Y-120500000D01*
X112750000Y-117250000D02*
X109500000Y-120500000D01*
D20*
G04 #@! TO.N,+5V*
X105770000Y-134020000D02*
X105750000Y-134000000D01*
X105770000Y-137150000D02*
X105770000Y-134020000D01*
X101500000Y-129750000D02*
X105750000Y-134000000D01*
X101500000Y-128870000D02*
X101500000Y-129750000D01*
X107400000Y-137150000D02*
X109250000Y-139000000D01*
X105770000Y-137150000D02*
X107400000Y-137150000D01*
X96630000Y-116620000D02*
X98130000Y-116620000D01*
X95000000Y-116620000D02*
X96630000Y-116620000D01*
X107290000Y-110040000D02*
X107290000Y-107750000D01*
X108250000Y-111000000D02*
X107290000Y-110040000D01*
X108250000Y-111000000D02*
X108250000Y-117000000D01*
X107000000Y-118250000D02*
X101500000Y-118250000D01*
X108250000Y-117000000D02*
X107000000Y-118250000D01*
X98250000Y-117500000D02*
X98250000Y-116500000D01*
X99000000Y-118250000D02*
X98250000Y-117500000D01*
X101500000Y-118250000D02*
X99000000Y-118250000D01*
D19*
G04 #@! TO.N,Net-(R5-Pad1)*
X99000000Y-134000000D02*
X98130000Y-134000000D01*
X100250000Y-135250000D02*
X99000000Y-134000000D01*
X102640000Y-152390000D02*
X100250000Y-150000000D01*
X100250000Y-150000000D02*
X100250000Y-135250000D01*
X105770000Y-152390000D02*
X102640000Y-152390000D01*
G04 #@! TO.N,XTAL1*
X77990000Y-143400000D02*
X78000000Y-143410000D01*
X77970000Y-143380000D02*
X78000000Y-143410000D01*
X74500000Y-143380000D02*
X77970000Y-143380000D01*
X59750000Y-142050000D02*
X56700000Y-142050000D01*
X56250000Y-142500000D02*
X56250000Y-143500000D01*
X56700000Y-142050000D02*
X56250000Y-142500000D01*
G04 #@! TO.N,Net-(R10-Pad2)*
X89920000Y-106670000D02*
X89920000Y-109000000D01*
X88250000Y-105000000D02*
X89920000Y-106670000D01*
X54750000Y-105000000D02*
X88250000Y-105000000D01*
X53750000Y-106000000D02*
X54750000Y-105000000D01*
X53750000Y-125250000D02*
X53750000Y-106000000D01*
G04 #@! TO.N,Net-(R11-Pad2)*
X80500000Y-105750000D02*
X82300000Y-107550000D01*
X82300000Y-107550000D02*
X82300000Y-109000000D01*
X55750000Y-106500000D02*
X56500000Y-105750000D01*
X56500000Y-105750000D02*
X80500000Y-105750000D01*
X55750000Y-134000000D02*
X55750000Y-106500000D01*
X56250000Y-134500000D02*
X55750000Y-134000000D01*
X56250000Y-135880000D02*
X56250000Y-134500000D01*
G04 #@! TO.N,Net-(R12-Pad2)*
X58250000Y-106500000D02*
X57750000Y-107000000D01*
X78750000Y-106500000D02*
X58250000Y-106500000D01*
X79760000Y-107510000D02*
X78750000Y-106500000D01*
X79760000Y-109000000D02*
X79760000Y-107510000D01*
X57750000Y-107000000D02*
X57750000Y-108750000D01*
G04 #@! TO.N,Net-(R13-Pad2)*
X61000000Y-111750000D02*
X61000000Y-108750000D01*
X62000000Y-112750000D02*
X61000000Y-111750000D01*
X75250000Y-112750000D02*
X62000000Y-112750000D01*
X77220000Y-110780000D02*
X75250000Y-112750000D01*
X77220000Y-109000000D02*
X77220000Y-110780000D01*
G04 #@! TO.N,Net-(R14-Pad2)*
X64250000Y-110250000D02*
X64250000Y-108750000D01*
X65750000Y-111750000D02*
X64250000Y-110250000D01*
X74625000Y-109000000D02*
X71875000Y-111750000D01*
X71875000Y-111750000D02*
X65750000Y-111750000D01*
X74680000Y-109000000D02*
X74625000Y-109000000D01*
G04 #@! TO.N,Net-(R15-Pad2)*
X71000000Y-117760000D02*
X72140000Y-116620000D01*
X71000000Y-122880000D02*
X71000000Y-117760000D01*
G04 #@! TO.N,~HC_OE*
X103500000Y-144250000D02*
X104020000Y-144770000D01*
X100250000Y-131000000D02*
X103500000Y-134250000D01*
X93500000Y-131000000D02*
X100250000Y-131000000D01*
X88250000Y-118500000D02*
X88250000Y-125750000D01*
X103500000Y-134250000D02*
X103500000Y-144250000D01*
X87380000Y-117630000D02*
X88250000Y-118500000D01*
X104020000Y-144770000D02*
X105770000Y-144770000D01*
X88250000Y-125750000D02*
X93500000Y-131000000D01*
X87380000Y-116620000D02*
X87380000Y-117630000D01*
G04 #@! TO.N,HC_LD*
X103060000Y-147310000D02*
X105770000Y-147310000D01*
X102500000Y-146750000D02*
X103060000Y-147310000D01*
X102500000Y-134500000D02*
X102500000Y-146750000D01*
X100000000Y-132000000D02*
X102500000Y-134500000D01*
X87000000Y-125750000D02*
X93250000Y-132000000D01*
X93250000Y-132000000D02*
X100000000Y-132000000D01*
X87000000Y-118780000D02*
X87000000Y-125750000D01*
X84840000Y-116620000D02*
X87000000Y-118780000D01*
G04 #@! TD*
M02*
