M48
; DRILL file {KiCad 5.1.6-c6e7f7d~87~ubuntu19.10.1} date Tue Nov  3 03:18:19 2020
; FORMAT={-:-/ absolute / metric / decimal}
; #@! TF.CreationDate,2020-11-03T03:18:19+01:00
; #@! TF.GenerationSoftware,Kicad,Pcbnew,5.1.6-c6e7f7d~87~ubuntu19.10.1
; #@! TF.FileFunction,Plated,1,2,PTH
FMAT,2
METRIC
T1C0.750
T2C0.800
T3C0.900
T4C1.000
%
G90
G05
T1
X93.71Y-104.25
X94.98Y-105.52
X96.25Y-104.25
T2
X72.14Y-109.0
X72.14Y-116.62
X74.68Y-109.0
X74.68Y-116.62
X77.22Y-109.0
X77.22Y-116.62
X79.76Y-109.0
X79.76Y-116.62
X82.3Y-109.0
X82.3Y-116.62
X84.84Y-109.0
X84.84Y-116.62
X87.38Y-109.0
X87.38Y-116.62
X89.92Y-109.0
X89.92Y-116.62
X92.46Y-109.0
X92.46Y-116.62
X95.0Y-109.0
X95.0Y-116.62
X89.0Y-132.0
X89.0Y-139.62
X71.0Y-122.88
X71.0Y-130.5
X82.71Y-123.25
X92.87Y-123.25
X109.25Y-139.0
X109.25Y-146.5
X56.25Y-147.5
X56.25Y-155.12
X57.75Y-108.75
X57.75Y-116.37
X98.25Y-109.0
X98.25Y-116.5
X59.75Y-121.73
X59.75Y-124.27
X59.75Y-126.81
X59.75Y-129.35
X59.75Y-131.89
X59.75Y-134.43
X59.75Y-136.97
X59.75Y-139.51
X59.75Y-142.05
X59.75Y-144.59
X59.75Y-147.13
X59.75Y-149.67
X59.75Y-152.21
X59.75Y-154.75
X67.37Y-121.73
X67.37Y-124.27
X67.37Y-129.35
X67.37Y-131.89
X67.37Y-134.43
X67.37Y-136.97
X67.37Y-139.51
X67.37Y-142.05
X67.37Y-144.59
X67.37Y-147.13
X67.37Y-149.67
X67.37Y-152.21
X67.37Y-154.75
X112.75Y-117.25
X120.37Y-117.25
X68.25Y-102.88
X68.25Y-110.5
X64.25Y-108.75
X64.25Y-116.37
X101.5Y-118.25
X101.5Y-128.41
X109.25Y-149.5
X109.25Y-157.12
X86.84Y-129.5
X97.0Y-129.5
X56.25Y-135.88
X56.25Y-143.5
X113.38Y-139.76
X113.38Y-142.3
X113.38Y-144.84
X113.38Y-147.38
X113.38Y-149.92
X113.38Y-152.46
X113.38Y-155.0
X121.0Y-139.76
X121.0Y-142.3
X121.0Y-144.84
X121.0Y-147.38
X121.0Y-149.92
X121.0Y-152.46
X121.0Y-155.0
X82.71Y-126.5
X92.87Y-126.5
X78.0Y-133.25
X78.0Y-138.33
X78.0Y-140.87
X78.0Y-143.41
X78.0Y-145.95
X78.0Y-148.49
X78.0Y-151.03
X78.0Y-153.57
X78.0Y-156.11
X85.62Y-133.25
X85.62Y-135.79
X85.62Y-138.33
X85.62Y-140.87
X85.62Y-143.41
X85.62Y-145.95
X85.62Y-148.49
X85.62Y-151.03
X85.62Y-153.57
X85.62Y-156.11
X112.75Y-114.0
X120.37Y-114.0
X61.0Y-108.75
X61.0Y-116.37
X111.34Y-135.75
X121.5Y-135.75
X82.71Y-120.0
X92.87Y-120.0
X53.75Y-125.25
X53.75Y-132.87
X113.38Y-123.88
X113.38Y-126.42
X113.38Y-128.96
X113.38Y-131.5
X121.0Y-123.88
X121.0Y-126.42
X121.0Y-128.96
X121.0Y-131.5
X101.25Y-103.38
X101.25Y-111.0
X98.15Y-137.15
X98.15Y-139.69
X98.15Y-142.23
X98.15Y-144.77
X98.15Y-147.31
X98.15Y-149.85
X98.15Y-152.39
X98.15Y-154.93
X105.77Y-137.15
X105.77Y-139.69
X105.77Y-142.23
X105.77Y-144.77
X105.77Y-147.31
X105.77Y-149.85
X105.77Y-152.39
X105.77Y-154.93
X98.13Y-134.0
X105.75Y-134.0
X103.63Y-102.75
X111.25Y-102.75
X104.75Y-113.5
X104.75Y-128.74
T3
X114.0Y-105.46
X114.0Y-108.0
X119.25Y-105.46
X119.25Y-108.0
T4
X92.75Y-135.76
X92.75Y-138.3
X92.75Y-140.84
X92.75Y-143.38
X92.75Y-145.92
X92.75Y-148.46
X92.75Y-151.0
X92.75Y-153.54
X74.5Y-135.8
X74.5Y-138.34
X74.5Y-140.88
X74.5Y-143.42
X74.5Y-145.96
X74.5Y-148.5
X74.5Y-151.04
X74.5Y-153.58
X74.5Y-156.12
X76.5Y-127.0
X79.04Y-127.0
X104.75Y-107.75
X107.29Y-107.75
X109.83Y-107.75
X108.0Y-122.13
X108.0Y-124.67
X108.0Y-127.21
X108.0Y-129.75
T0
M30
