%FSLAX45Y45*%
G04 Gerber Fmt 4.5, Leading zero omitted, Abs format (unit mm)*
G04 Created by KiCad (PCBNEW 5.1.6-c6e7f7d~87~ubuntu19.10.1) date 2020-11-03 03:18:18*
%MOMM*%
%LPD*%
G01*
G04 APERTURE LIST*
%TA.AperFunction,Profile*%
%ADD10C,0.100000*%
%TD*%
%ADD11C,0.200000*%
%ADD12C,0.300000*%
G04 APERTURE END LIST*
D10*
X12500000Y-16000000D02*
X12500000Y-10000000D01*
X5000000Y-16000000D02*
X12500000Y-16000000D01*
X5000000Y-10000000D02*
X5000000Y-16000000D01*
X5000000Y-10000000D02*
X12500000Y-10000000D01*
D11*
D12*
X5281428Y-16470714D02*
X5281428Y-16170714D01*
X5352857Y-16170714D01*
X5395714Y-16185000D01*
X5424286Y-16213571D01*
X5438571Y-16242143D01*
X5452857Y-16299286D01*
X5452857Y-16342143D01*
X5438571Y-16399286D01*
X5424286Y-16427857D01*
X5395714Y-16456429D01*
X5352857Y-16470714D01*
X5281428Y-16470714D01*
X5581428Y-16470714D02*
X5581428Y-16270714D01*
X5581428Y-16327857D02*
X5595714Y-16299286D01*
X5610000Y-16285000D01*
X5638571Y-16270714D01*
X5667143Y-16270714D01*
X5767143Y-16470714D02*
X5767143Y-16270714D01*
X5767143Y-16170714D02*
X5752857Y-16185000D01*
X5767143Y-16199286D01*
X5781428Y-16185000D01*
X5767143Y-16170714D01*
X5767143Y-16199286D01*
X5952857Y-16470714D02*
X5924286Y-16456429D01*
X5910000Y-16427857D01*
X5910000Y-16170714D01*
X6110000Y-16470714D02*
X6081428Y-16456429D01*
X6067143Y-16427857D01*
X6067143Y-16170714D01*
X6452857Y-16470714D02*
X6452857Y-16170714D01*
X6552857Y-16385000D01*
X6652857Y-16170714D01*
X6652857Y-16470714D01*
X6924286Y-16470714D02*
X6924286Y-16313571D01*
X6910000Y-16285000D01*
X6881428Y-16270714D01*
X6824286Y-16270714D01*
X6795714Y-16285000D01*
X6924286Y-16456429D02*
X6895714Y-16470714D01*
X6824286Y-16470714D01*
X6795714Y-16456429D01*
X6781428Y-16427857D01*
X6781428Y-16399286D01*
X6795714Y-16370714D01*
X6824286Y-16356429D01*
X6895714Y-16356429D01*
X6924286Y-16342143D01*
X7067143Y-16270714D02*
X7067143Y-16570714D01*
X7067143Y-16285000D02*
X7095714Y-16270714D01*
X7152857Y-16270714D01*
X7181428Y-16285000D01*
X7195714Y-16299286D01*
X7210000Y-16327857D01*
X7210000Y-16413571D01*
X7195714Y-16442143D01*
X7181428Y-16456429D01*
X7152857Y-16470714D01*
X7095714Y-16470714D01*
X7067143Y-16456429D01*
X7338571Y-16442143D02*
X7352857Y-16456429D01*
X7338571Y-16470714D01*
X7324286Y-16456429D01*
X7338571Y-16442143D01*
X7338571Y-16470714D01*
X7338571Y-16285000D02*
X7352857Y-16299286D01*
X7338571Y-16313571D01*
X7324286Y-16299286D01*
X7338571Y-16285000D01*
X7338571Y-16313571D01*
M02*
