G04 #@! TF.GenerationSoftware,KiCad,Pcbnew,5.1.6-c6e7f7d~87~ubuntu19.10.1*
G04 #@! TF.CreationDate,2020-11-03T03:18:30+01:00*
G04 #@! TF.ProjectId,fusedoctor,66757365-646f-4637-946f-722e6b696361,rev?*
G04 #@! TF.SameCoordinates,Original*
G04 #@! TF.FileFunction,Soldermask,Bot*
G04 #@! TF.FilePolarity,Negative*
%FSLAX46Y46*%
G04 Gerber Fmt 4.6, Leading zero omitted, Abs format (unit mm)*
G04 Created by KiCad (PCBNEW 5.1.6-c6e7f7d~87~ubuntu19.10.1) date 2020-11-03 03:18:30*
%MOMM*%
%LPD*%
G01*
G04 APERTURE LIST*
%ADD10O,1.600000X1.600000*%
%ADD11C,1.600000*%
%ADD12R,1.600000X1.600000*%
%ADD13O,1.700000X1.700000*%
%ADD14R,1.700000X1.700000*%
%ADD15C,1.300000*%
%ADD16R,1.300000X1.300000*%
%ADD17C,1.800000*%
%ADD18R,1.800000X1.800000*%
G04 APERTURE END LIST*
D10*
G04 #@! TO.C,JP5*
X68250000Y-102880000D03*
D11*
X68250000Y-110500000D03*
G04 #@! TD*
D10*
G04 #@! TO.C,R1*
X111250000Y-102750000D03*
D11*
X103630000Y-102750000D03*
G04 #@! TD*
D10*
G04 #@! TO.C,JP2*
X104750000Y-128740000D03*
D11*
X104750000Y-113500000D03*
G04 #@! TD*
D10*
G04 #@! TO.C,JP1*
X101500000Y-128410000D03*
D11*
X101500000Y-118250000D03*
G04 #@! TD*
D10*
G04 #@! TO.C,R8*
X82710000Y-120000000D03*
D11*
X92870000Y-120000000D03*
G04 #@! TD*
D10*
G04 #@! TO.C,R7*
X82710000Y-123250000D03*
D11*
X92870000Y-123250000D03*
G04 #@! TD*
D10*
G04 #@! TO.C,R6*
X82710000Y-126500000D03*
D11*
X92870000Y-126500000D03*
G04 #@! TD*
D10*
G04 #@! TO.C,U5*
X67370000Y-121730000D03*
X59750000Y-154750000D03*
X67370000Y-124270000D03*
X59750000Y-152210000D03*
X59750000Y-149670000D03*
X67370000Y-129350000D03*
X59750000Y-147130000D03*
X67370000Y-131890000D03*
X59750000Y-144590000D03*
X67370000Y-134430000D03*
X59750000Y-142050000D03*
X67370000Y-136970000D03*
X59750000Y-139510000D03*
X67370000Y-139510000D03*
X59750000Y-136970000D03*
X67370000Y-142050000D03*
X59750000Y-134430000D03*
X67370000Y-144590000D03*
X59750000Y-131890000D03*
X67370000Y-147130000D03*
X59750000Y-129350000D03*
X67370000Y-149670000D03*
X59750000Y-126810000D03*
X67370000Y-152210000D03*
X59750000Y-124270000D03*
X67370000Y-154750000D03*
D12*
X59750000Y-121730000D03*
G04 #@! TD*
D10*
G04 #@! TO.C,JP4*
X97000000Y-129500000D03*
D11*
X86840000Y-129500000D03*
G04 #@! TD*
D12*
G04 #@! TO.C,U1*
X95000000Y-109000000D03*
D10*
X72140000Y-116620000D03*
X92460000Y-109000000D03*
X74680000Y-116620000D03*
X89920000Y-109000000D03*
X77220000Y-116620000D03*
X87380000Y-109000000D03*
X79760000Y-116620000D03*
X84840000Y-109000000D03*
X82300000Y-116620000D03*
X82300000Y-109000000D03*
X84840000Y-116620000D03*
X79760000Y-109000000D03*
X87380000Y-116620000D03*
X77220000Y-109000000D03*
X89920000Y-116620000D03*
X74680000Y-109000000D03*
X92460000Y-116620000D03*
X72140000Y-109000000D03*
X95000000Y-116620000D03*
G04 #@! TD*
D13*
G04 #@! TO.C,J2*
X74500000Y-156120000D03*
X74500000Y-153580000D03*
X74500000Y-151040000D03*
X74500000Y-148500000D03*
X74500000Y-145960000D03*
X74500000Y-143420000D03*
X74500000Y-140880000D03*
X74500000Y-138340000D03*
D14*
X74500000Y-135800000D03*
G04 #@! TD*
D12*
G04 #@! TO.C,U6*
X78000000Y-133250000D03*
D10*
X85620000Y-156110000D03*
X85620000Y-153570000D03*
X78000000Y-138330000D03*
X85620000Y-151030000D03*
X78000000Y-140870000D03*
X85620000Y-148490000D03*
X78000000Y-143410000D03*
X85620000Y-145950000D03*
X78000000Y-145950000D03*
X85620000Y-143410000D03*
X78000000Y-148490000D03*
X85620000Y-140870000D03*
X78000000Y-151030000D03*
X85620000Y-138330000D03*
X78000000Y-153570000D03*
X85620000Y-135790000D03*
X78000000Y-156110000D03*
X85620000Y-133250000D03*
G04 #@! TD*
D15*
G04 #@! TO.C,Q1*
X94980000Y-105520000D03*
X93710000Y-104250000D03*
D16*
X96250000Y-104250000D03*
G04 #@! TD*
D11*
G04 #@! TO.C,JP7*
X89000000Y-139620000D03*
D10*
X89000000Y-132000000D03*
G04 #@! TD*
G04 #@! TO.C,JP3*
X121500000Y-135750000D03*
D11*
X111340000Y-135750000D03*
G04 #@! TD*
D10*
G04 #@! TO.C,JP6*
X109250000Y-157120000D03*
D11*
X109250000Y-149500000D03*
G04 #@! TD*
D10*
G04 #@! TO.C,R2*
X101250000Y-111000000D03*
D11*
X101250000Y-103380000D03*
G04 #@! TD*
D13*
G04 #@! TO.C,J5*
X79040000Y-127000000D03*
D14*
X76500000Y-127000000D03*
G04 #@! TD*
D13*
G04 #@! TO.C,J3*
X108000000Y-122130000D03*
X108000000Y-124670000D03*
X108000000Y-127210000D03*
D14*
X108000000Y-129750000D03*
G04 #@! TD*
D10*
G04 #@! TO.C,U2*
X105770000Y-137150000D03*
X98150000Y-154930000D03*
X105770000Y-139690000D03*
X98150000Y-152390000D03*
X105770000Y-142230000D03*
X98150000Y-149850000D03*
X105770000Y-144770000D03*
X98150000Y-147310000D03*
X105770000Y-147310000D03*
X98150000Y-144770000D03*
X105770000Y-149850000D03*
X98150000Y-142230000D03*
X105770000Y-152390000D03*
X98150000Y-139690000D03*
X105770000Y-154930000D03*
D12*
X98150000Y-137150000D03*
G04 #@! TD*
D10*
G04 #@! TO.C,C2*
X109250000Y-146500000D03*
D11*
X109250000Y-139000000D03*
G04 #@! TD*
D10*
G04 #@! TO.C,C1*
X98250000Y-109000000D03*
D11*
X98250000Y-116500000D03*
G04 #@! TD*
D10*
G04 #@! TO.C,R14*
X64250000Y-108750000D03*
D11*
X64250000Y-116370000D03*
G04 #@! TD*
D13*
G04 #@! TO.C,J1*
X92750000Y-135760000D03*
X92750000Y-138300000D03*
X92750000Y-140840000D03*
X92750000Y-143380000D03*
X92750000Y-145920000D03*
X92750000Y-148460000D03*
X92750000Y-151000000D03*
D14*
X92750000Y-153540000D03*
G04 #@! TD*
D10*
G04 #@! TO.C,R15*
X71000000Y-122880000D03*
D11*
X71000000Y-130500000D03*
G04 #@! TD*
D10*
G04 #@! TO.C,R10*
X53750000Y-125250000D03*
D11*
X53750000Y-132870000D03*
G04 #@! TD*
D10*
G04 #@! TO.C,R9*
X56250000Y-155120000D03*
D11*
X56250000Y-147500000D03*
G04 #@! TD*
G04 #@! TO.C,R5*
X98130000Y-134000000D03*
D10*
X105750000Y-134000000D03*
G04 #@! TD*
G04 #@! TO.C,R4*
X120370000Y-117250000D03*
D11*
X112750000Y-117250000D03*
G04 #@! TD*
D10*
G04 #@! TO.C,R3*
X120370000Y-114000000D03*
D11*
X112750000Y-114000000D03*
G04 #@! TD*
D17*
G04 #@! TO.C,D2*
X114000000Y-105460000D03*
D18*
X114000000Y-108000000D03*
G04 #@! TD*
D17*
G04 #@! TO.C,D1*
X119250000Y-105460000D03*
D18*
X119250000Y-108000000D03*
G04 #@! TD*
D13*
G04 #@! TO.C,J4*
X109830000Y-107750000D03*
X107290000Y-107750000D03*
D14*
X104750000Y-107750000D03*
G04 #@! TD*
D12*
G04 #@! TO.C,U4*
X121000000Y-155000000D03*
D10*
X113380000Y-139760000D03*
X121000000Y-152460000D03*
X113380000Y-142300000D03*
X121000000Y-149920000D03*
X113380000Y-144840000D03*
X121000000Y-147380000D03*
X113380000Y-147380000D03*
X121000000Y-144840000D03*
X113380000Y-149920000D03*
X121000000Y-142300000D03*
X113380000Y-152460000D03*
X121000000Y-139760000D03*
X113380000Y-155000000D03*
G04 #@! TD*
D12*
G04 #@! TO.C,U3*
X121000000Y-131500000D03*
D10*
X113380000Y-123880000D03*
X121000000Y-128960000D03*
X113380000Y-126420000D03*
X121000000Y-126420000D03*
X113380000Y-128960000D03*
X121000000Y-123880000D03*
X113380000Y-131500000D03*
G04 #@! TD*
G04 #@! TO.C,R13*
X61000000Y-108750000D03*
D11*
X61000000Y-116370000D03*
G04 #@! TD*
G04 #@! TO.C,R12*
X57750000Y-116370000D03*
D10*
X57750000Y-108750000D03*
G04 #@! TD*
G04 #@! TO.C,R11*
X56250000Y-135880000D03*
D11*
X56250000Y-143500000D03*
G04 #@! TD*
M02*
