G04 #@! TF.GenerationSoftware,KiCad,Pcbnew,5.1.6-c6e7f7d~87~ubuntu19.10.1*
G04 #@! TF.CreationDate,2020-11-03T03:18:30+01:00*
G04 #@! TF.ProjectId,fusedoctor,66757365-646f-4637-946f-722e6b696361,rev?*
G04 #@! TF.SameCoordinates,Original*
G04 #@! TF.FileFunction,Legend,Top*
G04 #@! TF.FilePolarity,Positive*
%FSLAX46Y46*%
G04 Gerber Fmt 4.6, Leading zero omitted, Abs format (unit mm)*
G04 Created by KiCad (PCBNEW 5.1.6-c6e7f7d~87~ubuntu19.10.1) date 2020-11-03 03:18:30*
%MOMM*%
%LPD*%
G01*
G04 APERTURE LIST*
%ADD10C,0.150000*%
%ADD11C,0.300000*%
%ADD12C,0.200000*%
%ADD13C,0.010000*%
%ADD14C,0.120000*%
%ADD15C,0.125000*%
G04 APERTURE END LIST*
D10*
X76776071Y-104952380D02*
X76966547Y-104952380D01*
X77061785Y-105000000D01*
X77157023Y-105095238D01*
X77204642Y-105285714D01*
X77204642Y-105619047D01*
X77157023Y-105809523D01*
X77061785Y-105904761D01*
X76966547Y-105952380D01*
X76776071Y-105952380D01*
X76680833Y-105904761D01*
X76585595Y-105809523D01*
X76537976Y-105619047D01*
X76537976Y-105285714D01*
X76585595Y-105095238D01*
X76680833Y-105000000D01*
X76776071Y-104952380D01*
X78061785Y-105904761D02*
X77966547Y-105952380D01*
X77776071Y-105952380D01*
X77680833Y-105904761D01*
X77633214Y-105857142D01*
X77585595Y-105761904D01*
X77585595Y-105476190D01*
X77633214Y-105380952D01*
X77680833Y-105333333D01*
X77776071Y-105285714D01*
X77966547Y-105285714D01*
X78061785Y-105333333D01*
X78347500Y-105285714D02*
X78728452Y-105285714D01*
X78490357Y-104952380D02*
X78490357Y-105809523D01*
X78537976Y-105904761D01*
X78633214Y-105952380D01*
X78728452Y-105952380D01*
X79061785Y-105857142D02*
X79109404Y-105904761D01*
X79061785Y-105952380D01*
X79014166Y-105904761D01*
X79061785Y-105857142D01*
X79061785Y-105952380D01*
X80252261Y-105047619D02*
X80299880Y-105000000D01*
X80395119Y-104952380D01*
X80633214Y-104952380D01*
X80728452Y-105000000D01*
X80776071Y-105047619D01*
X80823690Y-105142857D01*
X80823690Y-105238095D01*
X80776071Y-105380952D01*
X80204642Y-105952380D01*
X80823690Y-105952380D01*
X81442738Y-104952380D02*
X81537976Y-104952380D01*
X81633214Y-105000000D01*
X81680833Y-105047619D01*
X81728452Y-105142857D01*
X81776071Y-105333333D01*
X81776071Y-105571428D01*
X81728452Y-105761904D01*
X81680833Y-105857142D01*
X81633214Y-105904761D01*
X81537976Y-105952380D01*
X81442738Y-105952380D01*
X81347500Y-105904761D01*
X81299880Y-105857142D01*
X81252261Y-105761904D01*
X81204642Y-105571428D01*
X81204642Y-105333333D01*
X81252261Y-105142857D01*
X81299880Y-105047619D01*
X81347500Y-105000000D01*
X81442738Y-104952380D01*
X82157023Y-105047619D02*
X82204642Y-105000000D01*
X82299880Y-104952380D01*
X82537976Y-104952380D01*
X82633214Y-105000000D01*
X82680833Y-105047619D01*
X82728452Y-105142857D01*
X82728452Y-105238095D01*
X82680833Y-105380952D01*
X82109404Y-105952380D01*
X82728452Y-105952380D01*
X83347500Y-104952380D02*
X83442738Y-104952380D01*
X83537976Y-105000000D01*
X83585595Y-105047619D01*
X83633214Y-105142857D01*
X83680833Y-105333333D01*
X83680833Y-105571428D01*
X83633214Y-105761904D01*
X83585595Y-105857142D01*
X83537976Y-105904761D01*
X83442738Y-105952380D01*
X83347500Y-105952380D01*
X83252261Y-105904761D01*
X83204642Y-105857142D01*
X83157023Y-105761904D01*
X83109404Y-105571428D01*
X83109404Y-105333333D01*
X83157023Y-105142857D01*
X83204642Y-105047619D01*
X83252261Y-105000000D01*
X83347500Y-104952380D01*
X70500000Y-140821428D02*
X71261904Y-140821428D01*
X71738095Y-140821428D02*
X72500000Y-140821428D01*
X111900000Y-110100000D02*
X111300000Y-109400000D01*
X111900000Y-110900000D02*
X111900000Y-110100000D01*
D11*
X71214285Y-102678571D02*
X71714285Y-104178571D01*
X72214285Y-102678571D01*
X73285714Y-104107142D02*
X73142857Y-104178571D01*
X72857142Y-104178571D01*
X72714285Y-104107142D01*
X72642857Y-103964285D01*
X72642857Y-103392857D01*
X72714285Y-103250000D01*
X72857142Y-103178571D01*
X73142857Y-103178571D01*
X73285714Y-103250000D01*
X73357142Y-103392857D01*
X73357142Y-103535714D01*
X72642857Y-103678571D01*
X74000000Y-104178571D02*
X74000000Y-103178571D01*
X74000000Y-103464285D02*
X74071428Y-103321428D01*
X74142857Y-103250000D01*
X74285714Y-103178571D01*
X74428571Y-103178571D01*
X74857142Y-104107142D02*
X75000000Y-104178571D01*
X75285714Y-104178571D01*
X75428571Y-104107142D01*
X75500000Y-103964285D01*
X75500000Y-103892857D01*
X75428571Y-103750000D01*
X75285714Y-103678571D01*
X75071428Y-103678571D01*
X74928571Y-103607142D01*
X74857142Y-103464285D01*
X74857142Y-103392857D01*
X74928571Y-103250000D01*
X75071428Y-103178571D01*
X75285714Y-103178571D01*
X75428571Y-103250000D01*
X76142857Y-104178571D02*
X76142857Y-103178571D01*
X76142857Y-102678571D02*
X76071428Y-102750000D01*
X76142857Y-102821428D01*
X76214285Y-102750000D01*
X76142857Y-102678571D01*
X76142857Y-102821428D01*
X77071428Y-104178571D02*
X76928571Y-104107142D01*
X76857142Y-104035714D01*
X76785714Y-103892857D01*
X76785714Y-103464285D01*
X76857142Y-103321428D01*
X76928571Y-103250000D01*
X77071428Y-103178571D01*
X77285714Y-103178571D01*
X77428571Y-103250000D01*
X77500000Y-103321428D01*
X77571428Y-103464285D01*
X77571428Y-103892857D01*
X77500000Y-104035714D01*
X77428571Y-104107142D01*
X77285714Y-104178571D01*
X77071428Y-104178571D01*
X78214285Y-103178571D02*
X78214285Y-104178571D01*
X78214285Y-103321428D02*
X78285714Y-103250000D01*
X78428571Y-103178571D01*
X78642857Y-103178571D01*
X78785714Y-103250000D01*
X78857142Y-103392857D01*
X78857142Y-104178571D01*
X81500000Y-104178571D02*
X80642857Y-104178571D01*
X81071428Y-104178571D02*
X81071428Y-102678571D01*
X80928571Y-102892857D01*
X80785714Y-103035714D01*
X80642857Y-103107142D01*
X82142857Y-104035714D02*
X82214285Y-104107142D01*
X82142857Y-104178571D01*
X82071428Y-104107142D01*
X82142857Y-104035714D01*
X82142857Y-104178571D01*
X83142857Y-102678571D02*
X83285714Y-102678571D01*
X83428571Y-102750000D01*
X83500000Y-102821428D01*
X83571428Y-102964285D01*
X83642857Y-103250000D01*
X83642857Y-103607142D01*
X83571428Y-103892857D01*
X83500000Y-104035714D01*
X83428571Y-104107142D01*
X83285714Y-104178571D01*
X83142857Y-104178571D01*
X83000000Y-104107142D01*
X82928571Y-104035714D01*
X82857142Y-103892857D01*
X82785714Y-103607142D01*
X82785714Y-103250000D01*
X82857142Y-102964285D01*
X82928571Y-102821428D01*
X83000000Y-102750000D01*
X83142857Y-102678571D01*
D12*
X69494285Y-142702380D02*
X70027619Y-143702380D01*
X70027619Y-142702380D02*
X69494285Y-143702380D01*
X70218095Y-142702380D02*
X70675238Y-142702380D01*
X70446666Y-143702380D02*
X70446666Y-142702380D01*
X70903809Y-143416666D02*
X71284761Y-143416666D01*
X70827619Y-143702380D02*
X71094285Y-142702380D01*
X71360952Y-143702380D01*
X72008571Y-143702380D02*
X71627619Y-143702380D01*
X71627619Y-142702380D01*
X72694285Y-143702380D02*
X72237142Y-143702380D01*
X72465714Y-143702380D02*
X72465714Y-142702380D01*
X72389523Y-142845238D01*
X72313333Y-142940476D01*
X72237142Y-142988095D01*
D10*
X51537976Y-102341666D02*
X52014166Y-102341666D01*
X51442738Y-102627380D02*
X51776071Y-101627380D01*
X52109404Y-102627380D01*
X52299880Y-101627380D02*
X52633214Y-102627380D01*
X52966547Y-101627380D01*
X53871309Y-102627380D02*
X53537976Y-102151190D01*
X53299880Y-102627380D02*
X53299880Y-101627380D01*
X53680833Y-101627380D01*
X53776071Y-101675000D01*
X53823690Y-101722619D01*
X53871309Y-101817857D01*
X53871309Y-101960714D01*
X53823690Y-102055952D01*
X53776071Y-102103571D01*
X53680833Y-102151190D01*
X53299880Y-102151190D01*
X54918928Y-101960714D02*
X55299880Y-101960714D01*
X55061785Y-102627380D02*
X55061785Y-101770238D01*
X55109404Y-101675000D01*
X55204642Y-101627380D01*
X55299880Y-101627380D01*
X56061785Y-101960714D02*
X56061785Y-102627380D01*
X55633214Y-101960714D02*
X55633214Y-102484523D01*
X55680833Y-102579761D01*
X55776071Y-102627380D01*
X55918928Y-102627380D01*
X56014166Y-102579761D01*
X56061785Y-102532142D01*
X56490357Y-102579761D02*
X56585595Y-102627380D01*
X56776071Y-102627380D01*
X56871309Y-102579761D01*
X56918928Y-102484523D01*
X56918928Y-102436904D01*
X56871309Y-102341666D01*
X56776071Y-102294047D01*
X56633214Y-102294047D01*
X56537976Y-102246428D01*
X56490357Y-102151190D01*
X56490357Y-102103571D01*
X56537976Y-102008333D01*
X56633214Y-101960714D01*
X56776071Y-101960714D01*
X56871309Y-102008333D01*
X57728452Y-102579761D02*
X57633214Y-102627380D01*
X57442738Y-102627380D01*
X57347500Y-102579761D01*
X57299880Y-102484523D01*
X57299880Y-102103571D01*
X57347500Y-102008333D01*
X57442738Y-101960714D01*
X57633214Y-101960714D01*
X57728452Y-102008333D01*
X57776071Y-102103571D01*
X57776071Y-102198809D01*
X57299880Y-102294047D01*
X58633214Y-102627380D02*
X58633214Y-101627380D01*
X58633214Y-102579761D02*
X58537976Y-102627380D01*
X58347500Y-102627380D01*
X58252261Y-102579761D01*
X58204642Y-102532142D01*
X58157023Y-102436904D01*
X58157023Y-102151190D01*
X58204642Y-102055952D01*
X58252261Y-102008333D01*
X58347500Y-101960714D01*
X58537976Y-101960714D01*
X58633214Y-102008333D01*
X59252261Y-102627380D02*
X59157023Y-102579761D01*
X59109404Y-102532142D01*
X59061785Y-102436904D01*
X59061785Y-102151190D01*
X59109404Y-102055952D01*
X59157023Y-102008333D01*
X59252261Y-101960714D01*
X59395119Y-101960714D01*
X59490357Y-102008333D01*
X59537976Y-102055952D01*
X59585595Y-102151190D01*
X59585595Y-102436904D01*
X59537976Y-102532142D01*
X59490357Y-102579761D01*
X59395119Y-102627380D01*
X59252261Y-102627380D01*
X60442738Y-102579761D02*
X60347500Y-102627380D01*
X60157023Y-102627380D01*
X60061785Y-102579761D01*
X60014166Y-102532142D01*
X59966547Y-102436904D01*
X59966547Y-102151190D01*
X60014166Y-102055952D01*
X60061785Y-102008333D01*
X60157023Y-101960714D01*
X60347500Y-101960714D01*
X60442738Y-102008333D01*
X60728452Y-101960714D02*
X61109404Y-101960714D01*
X60871309Y-101627380D02*
X60871309Y-102484523D01*
X60918928Y-102579761D01*
X61014166Y-102627380D01*
X61109404Y-102627380D01*
X61585595Y-102627380D02*
X61490357Y-102579761D01*
X61442738Y-102532142D01*
X61395119Y-102436904D01*
X61395119Y-102151190D01*
X61442738Y-102055952D01*
X61490357Y-102008333D01*
X61585595Y-101960714D01*
X61728452Y-101960714D01*
X61823690Y-102008333D01*
X61871309Y-102055952D01*
X61918928Y-102151190D01*
X61918928Y-102436904D01*
X61871309Y-102532142D01*
X61823690Y-102579761D01*
X61728452Y-102627380D01*
X61585595Y-102627380D01*
X62347500Y-102627380D02*
X62347500Y-101960714D01*
X62347500Y-102151190D02*
X62395119Y-102055952D01*
X62442738Y-102008333D01*
X62537976Y-101960714D01*
X62633214Y-101960714D01*
X51585595Y-104277380D02*
X51585595Y-103277380D01*
X51585595Y-103658333D02*
X51680833Y-103610714D01*
X51871309Y-103610714D01*
X51966547Y-103658333D01*
X52014166Y-103705952D01*
X52061785Y-103801190D01*
X52061785Y-104086904D01*
X52014166Y-104182142D01*
X51966547Y-104229761D01*
X51871309Y-104277380D01*
X51680833Y-104277380D01*
X51585595Y-104229761D01*
X52395119Y-103610714D02*
X52633214Y-104277380D01*
X52871309Y-103610714D02*
X52633214Y-104277380D01*
X52537976Y-104515476D01*
X52490357Y-104563095D01*
X52395119Y-104610714D01*
X53966547Y-104229761D02*
X54109404Y-104277380D01*
X54347500Y-104277380D01*
X54442738Y-104229761D01*
X54490357Y-104182142D01*
X54537976Y-104086904D01*
X54537976Y-103991666D01*
X54490357Y-103896428D01*
X54442738Y-103848809D01*
X54347500Y-103801190D01*
X54157023Y-103753571D01*
X54061785Y-103705952D01*
X54014166Y-103658333D01*
X53966547Y-103563095D01*
X53966547Y-103467857D01*
X54014166Y-103372619D01*
X54061785Y-103325000D01*
X54157023Y-103277380D01*
X54395119Y-103277380D01*
X54537976Y-103325000D01*
X55395119Y-104277380D02*
X55395119Y-103753571D01*
X55347500Y-103658333D01*
X55252261Y-103610714D01*
X55061785Y-103610714D01*
X54966547Y-103658333D01*
X55395119Y-104229761D02*
X55299880Y-104277380D01*
X55061785Y-104277380D01*
X54966547Y-104229761D01*
X54918928Y-104134523D01*
X54918928Y-104039285D01*
X54966547Y-103944047D01*
X55061785Y-103896428D01*
X55299880Y-103896428D01*
X55395119Y-103848809D01*
X55871309Y-104277380D02*
X55871309Y-103610714D01*
X55871309Y-103705952D02*
X55918928Y-103658333D01*
X56014166Y-103610714D01*
X56157023Y-103610714D01*
X56252261Y-103658333D01*
X56299880Y-103753571D01*
X56299880Y-104277380D01*
X56299880Y-103753571D02*
X56347500Y-103658333D01*
X56442738Y-103610714D01*
X56585595Y-103610714D01*
X56680833Y-103658333D01*
X56728452Y-103753571D01*
X56728452Y-104277380D01*
X57633214Y-104277380D02*
X57633214Y-103753571D01*
X57585595Y-103658333D01*
X57490357Y-103610714D01*
X57299880Y-103610714D01*
X57204642Y-103658333D01*
X57633214Y-104229761D02*
X57537976Y-104277380D01*
X57299880Y-104277380D01*
X57204642Y-104229761D01*
X57157023Y-104134523D01*
X57157023Y-104039285D01*
X57204642Y-103944047D01*
X57299880Y-103896428D01*
X57537976Y-103896428D01*
X57633214Y-103848809D01*
X58109404Y-103610714D02*
X58109404Y-104277380D01*
X58109404Y-103705952D02*
X58157023Y-103658333D01*
X58252261Y-103610714D01*
X58395119Y-103610714D01*
X58490357Y-103658333D01*
X58537976Y-103753571D01*
X58537976Y-104277380D01*
X58871309Y-103610714D02*
X59252261Y-103610714D01*
X59014166Y-103277380D02*
X59014166Y-104134523D01*
X59061785Y-104229761D01*
X59157023Y-104277380D01*
X59252261Y-104277380D01*
X60014166Y-104277380D02*
X60014166Y-103753571D01*
X59966547Y-103658333D01*
X59871309Y-103610714D01*
X59680833Y-103610714D01*
X59585595Y-103658333D01*
X60014166Y-104229761D02*
X59918928Y-104277380D01*
X59680833Y-104277380D01*
X59585595Y-104229761D01*
X59537976Y-104134523D01*
X59537976Y-104039285D01*
X59585595Y-103944047D01*
X59680833Y-103896428D01*
X59918928Y-103896428D01*
X60014166Y-103848809D01*
X60395119Y-103610714D02*
X60918928Y-103610714D01*
X60395119Y-104277380D01*
X60918928Y-104277380D01*
X62395119Y-103753571D02*
X62061785Y-103753571D01*
X62061785Y-104277380D02*
X62061785Y-103277380D01*
X62537976Y-103277380D01*
X63061785Y-104277380D02*
X62966547Y-104229761D01*
X62918928Y-104182142D01*
X62871309Y-104086904D01*
X62871309Y-103801190D01*
X62918928Y-103705952D01*
X62966547Y-103658333D01*
X63061785Y-103610714D01*
X63204642Y-103610714D01*
X63299880Y-103658333D01*
X63347500Y-103705952D01*
X63395119Y-103801190D01*
X63395119Y-104086904D01*
X63347500Y-104182142D01*
X63299880Y-104229761D01*
X63204642Y-104277380D01*
X63061785Y-104277380D01*
X63728452Y-104277380D02*
X64252261Y-103610714D01*
X63728452Y-103610714D02*
X64252261Y-104277380D01*
D12*
X104210000Y-111608095D02*
X104162380Y-111703333D01*
X104162380Y-111846190D01*
X104210000Y-111989047D01*
X104305238Y-112084285D01*
X104400476Y-112131904D01*
X104590952Y-112179523D01*
X104733809Y-112179523D01*
X104924285Y-112131904D01*
X105019523Y-112084285D01*
X105114761Y-111989047D01*
X105162380Y-111846190D01*
X105162380Y-111750952D01*
X105114761Y-111608095D01*
X105067142Y-111560476D01*
X104733809Y-111560476D01*
X104733809Y-111750952D01*
X105162380Y-111131904D02*
X104162380Y-111131904D01*
X105162380Y-110560476D01*
X104162380Y-110560476D01*
X105162380Y-110084285D02*
X104162380Y-110084285D01*
X104162380Y-109846190D01*
X104210000Y-109703333D01*
X104305238Y-109608095D01*
X104400476Y-109560476D01*
X104590952Y-109512857D01*
X104733809Y-109512857D01*
X104924285Y-109560476D01*
X105019523Y-109608095D01*
X105114761Y-109703333D01*
X105162380Y-109846190D01*
X105162380Y-110084285D01*
X107321428Y-112381904D02*
X107321428Y-111620000D01*
X107702380Y-112000952D02*
X106940476Y-112000952D01*
X106702380Y-110667619D02*
X106702380Y-111143809D01*
X107178571Y-111191428D01*
X107130952Y-111143809D01*
X107083333Y-111048571D01*
X107083333Y-110810476D01*
X107130952Y-110715238D01*
X107178571Y-110667619D01*
X107273809Y-110620000D01*
X107511904Y-110620000D01*
X107607142Y-110667619D01*
X107654761Y-110715238D01*
X107702380Y-110810476D01*
X107702380Y-111048571D01*
X107654761Y-111143809D01*
X107607142Y-111191428D01*
X106702380Y-110334285D02*
X107702380Y-110000952D01*
X106702380Y-109667619D01*
X109821428Y-113381904D02*
X109821428Y-112620000D01*
X110202380Y-113000952D02*
X109440476Y-113000952D01*
X110202380Y-111620000D02*
X110202380Y-112191428D01*
X110202380Y-111905714D02*
X109202380Y-111905714D01*
X109345238Y-112000952D01*
X109440476Y-112096190D01*
X109488095Y-112191428D01*
X109297619Y-111239047D02*
X109250000Y-111191428D01*
X109202380Y-111096190D01*
X109202380Y-110858095D01*
X109250000Y-110762857D01*
X109297619Y-110715238D01*
X109392857Y-110667619D01*
X109488095Y-110667619D01*
X109630952Y-110715238D01*
X110202380Y-111286666D01*
X110202380Y-110667619D01*
X109202380Y-110381904D02*
X110202380Y-110048571D01*
X109202380Y-109715238D01*
X77047619Y-122725238D02*
X76047619Y-123058571D01*
X77047619Y-123391904D01*
X76142857Y-124296666D02*
X76095238Y-124249047D01*
X76047619Y-124106190D01*
X76047619Y-124010952D01*
X76095238Y-123868095D01*
X76190476Y-123772857D01*
X76285714Y-123725238D01*
X76476190Y-123677619D01*
X76619047Y-123677619D01*
X76809523Y-123725238D01*
X76904761Y-123772857D01*
X77000000Y-123868095D01*
X77047619Y-124010952D01*
X77047619Y-124106190D01*
X77000000Y-124249047D01*
X76952380Y-124296666D01*
X76142857Y-125296666D02*
X76095238Y-125249047D01*
X76047619Y-125106190D01*
X76047619Y-125010952D01*
X76095238Y-124868095D01*
X76190476Y-124772857D01*
X76285714Y-124725238D01*
X76476190Y-124677619D01*
X76619047Y-124677619D01*
X76809523Y-124725238D01*
X76904761Y-124772857D01*
X77000000Y-124868095D01*
X77047619Y-125010952D01*
X77047619Y-125106190D01*
X77000000Y-125249047D01*
X76952380Y-125296666D01*
X78547619Y-123439523D02*
X79023809Y-123106190D01*
X78547619Y-122868095D02*
X79547619Y-122868095D01*
X79547619Y-123249047D01*
X79500000Y-123344285D01*
X79452380Y-123391904D01*
X79357142Y-123439523D01*
X79214285Y-123439523D01*
X79119047Y-123391904D01*
X79071428Y-123344285D01*
X79023809Y-123249047D01*
X79023809Y-122868095D01*
X78595238Y-123820476D02*
X78547619Y-123963333D01*
X78547619Y-124201428D01*
X78595238Y-124296666D01*
X78642857Y-124344285D01*
X78738095Y-124391904D01*
X78833333Y-124391904D01*
X78928571Y-124344285D01*
X78976190Y-124296666D01*
X79023809Y-124201428D01*
X79071428Y-124010952D01*
X79119047Y-123915714D01*
X79166666Y-123868095D01*
X79261904Y-123820476D01*
X79357142Y-123820476D01*
X79452380Y-123868095D01*
X79500000Y-123915714D01*
X79547619Y-124010952D01*
X79547619Y-124249047D01*
X79500000Y-124391904D01*
X79547619Y-124677619D02*
X79547619Y-125249047D01*
X78547619Y-124963333D02*
X79547619Y-124963333D01*
D10*
X110245119Y-130111904D02*
X109978452Y-129730952D01*
X109787976Y-130111904D02*
X109787976Y-129311904D01*
X110092738Y-129311904D01*
X110168928Y-129350000D01*
X110207023Y-129388095D01*
X110245119Y-129464285D01*
X110245119Y-129578571D01*
X110207023Y-129654761D01*
X110168928Y-129692857D01*
X110092738Y-129730952D01*
X109787976Y-129730952D01*
X110587976Y-130111904D02*
X110587976Y-129311904D01*
X110778452Y-129311904D01*
X110892738Y-129350000D01*
X110968928Y-129426190D01*
X111007023Y-129502380D01*
X111045119Y-129654761D01*
X111045119Y-129769047D01*
X111007023Y-129921428D01*
X110968928Y-129997619D01*
X110892738Y-130073809D01*
X110778452Y-130111904D01*
X110587976Y-130111904D01*
X111540357Y-129730952D02*
X111540357Y-130111904D01*
X111273690Y-129311904D02*
X111540357Y-129730952D01*
X111807023Y-129311904D01*
X109749880Y-127573809D02*
X109864166Y-127611904D01*
X110054642Y-127611904D01*
X110130833Y-127573809D01*
X110168928Y-127535714D01*
X110207023Y-127459523D01*
X110207023Y-127383333D01*
X110168928Y-127307142D01*
X110130833Y-127269047D01*
X110054642Y-127230952D01*
X109902261Y-127192857D01*
X109826071Y-127154761D01*
X109787976Y-127116666D01*
X109749880Y-127040476D01*
X109749880Y-126964285D01*
X109787976Y-126888095D01*
X109826071Y-126850000D01*
X109902261Y-126811904D01*
X110092738Y-126811904D01*
X110207023Y-126850000D01*
X110549880Y-127611904D02*
X110549880Y-126811904D01*
X110930833Y-127611904D02*
X110930833Y-126811904D01*
X52738095Y-158702380D02*
X52738095Y-157702380D01*
X53119047Y-157702380D01*
X53214285Y-157750000D01*
X53261904Y-157797619D01*
X53309523Y-157892857D01*
X53309523Y-158035714D01*
X53261904Y-158130952D01*
X53214285Y-158178571D01*
X53119047Y-158226190D01*
X52738095Y-158226190D01*
X54166666Y-158702380D02*
X54166666Y-158178571D01*
X54119047Y-158083333D01*
X54023809Y-158035714D01*
X53833333Y-158035714D01*
X53738095Y-158083333D01*
X54166666Y-158654761D02*
X54071428Y-158702380D01*
X53833333Y-158702380D01*
X53738095Y-158654761D01*
X53690476Y-158559523D01*
X53690476Y-158464285D01*
X53738095Y-158369047D01*
X53833333Y-158321428D01*
X54071428Y-158321428D01*
X54166666Y-158273809D01*
X54642857Y-158702380D02*
X54642857Y-158035714D01*
X54642857Y-158226190D02*
X54690476Y-158130952D01*
X54738095Y-158083333D01*
X54833333Y-158035714D01*
X54928571Y-158035714D01*
X55690476Y-158702380D02*
X55690476Y-158178571D01*
X55642857Y-158083333D01*
X55547619Y-158035714D01*
X55357142Y-158035714D01*
X55261904Y-158083333D01*
X55690476Y-158654761D02*
X55595238Y-158702380D01*
X55357142Y-158702380D01*
X55261904Y-158654761D01*
X55214285Y-158559523D01*
X55214285Y-158464285D01*
X55261904Y-158369047D01*
X55357142Y-158321428D01*
X55595238Y-158321428D01*
X55690476Y-158273809D01*
X56309523Y-158702380D02*
X56214285Y-158654761D01*
X56166666Y-158559523D01*
X56166666Y-157702380D01*
X56833333Y-158702380D02*
X56738095Y-158654761D01*
X56690476Y-158559523D01*
X56690476Y-157702380D01*
X57595238Y-158654761D02*
X57500000Y-158702380D01*
X57309523Y-158702380D01*
X57214285Y-158654761D01*
X57166666Y-158559523D01*
X57166666Y-158178571D01*
X57214285Y-158083333D01*
X57309523Y-158035714D01*
X57500000Y-158035714D01*
X57595238Y-158083333D01*
X57642857Y-158178571D01*
X57642857Y-158273809D01*
X57166666Y-158369047D01*
X58214285Y-158702380D02*
X58119047Y-158654761D01*
X58071428Y-158559523D01*
X58071428Y-157702380D01*
X59785714Y-158654761D02*
X59690476Y-158702380D01*
X59500000Y-158702380D01*
X59404761Y-158654761D01*
X59357142Y-158607142D01*
X59309523Y-158511904D01*
X59309523Y-158226190D01*
X59357142Y-158130952D01*
X59404761Y-158083333D01*
X59500000Y-158035714D01*
X59690476Y-158035714D01*
X59785714Y-158083333D01*
X60357142Y-158702380D02*
X60261904Y-158654761D01*
X60214285Y-158607142D01*
X60166666Y-158511904D01*
X60166666Y-158226190D01*
X60214285Y-158130952D01*
X60261904Y-158083333D01*
X60357142Y-158035714D01*
X60500000Y-158035714D01*
X60595238Y-158083333D01*
X60642857Y-158130952D01*
X60690476Y-158226190D01*
X60690476Y-158511904D01*
X60642857Y-158607142D01*
X60595238Y-158654761D01*
X60500000Y-158702380D01*
X60357142Y-158702380D01*
X61119047Y-158035714D02*
X61119047Y-158702380D01*
X61119047Y-158130952D02*
X61166666Y-158083333D01*
X61261904Y-158035714D01*
X61404761Y-158035714D01*
X61500000Y-158083333D01*
X61547619Y-158178571D01*
X61547619Y-158702380D01*
X61880952Y-158035714D02*
X62261904Y-158035714D01*
X62023809Y-157702380D02*
X62023809Y-158559523D01*
X62071428Y-158654761D01*
X62166666Y-158702380D01*
X62261904Y-158702380D01*
X62595238Y-158702380D02*
X62595238Y-158035714D01*
X62595238Y-158226190D02*
X62642857Y-158130952D01*
X62690476Y-158083333D01*
X62785714Y-158035714D01*
X62880952Y-158035714D01*
X63357142Y-158702380D02*
X63261904Y-158654761D01*
X63214285Y-158607142D01*
X63166666Y-158511904D01*
X63166666Y-158226190D01*
X63214285Y-158130952D01*
X63261904Y-158083333D01*
X63357142Y-158035714D01*
X63500000Y-158035714D01*
X63595238Y-158083333D01*
X63642857Y-158130952D01*
X63690476Y-158226190D01*
X63690476Y-158511904D01*
X63642857Y-158607142D01*
X63595238Y-158654761D01*
X63500000Y-158702380D01*
X63357142Y-158702380D01*
X64261904Y-158702380D02*
X64166666Y-158654761D01*
X64119047Y-158559523D01*
X64119047Y-157702380D01*
X65357142Y-158654761D02*
X65452380Y-158702380D01*
X65642857Y-158702380D01*
X65738095Y-158654761D01*
X65785714Y-158559523D01*
X65785714Y-158511904D01*
X65738095Y-158416666D01*
X65642857Y-158369047D01*
X65500000Y-158369047D01*
X65404761Y-158321428D01*
X65357142Y-158226190D01*
X65357142Y-158178571D01*
X65404761Y-158083333D01*
X65500000Y-158035714D01*
X65642857Y-158035714D01*
X65738095Y-158083333D01*
X66214285Y-158702380D02*
X66214285Y-158035714D01*
X66214285Y-157702380D02*
X66166666Y-157750000D01*
X66214285Y-157797619D01*
X66261904Y-157750000D01*
X66214285Y-157702380D01*
X66214285Y-157797619D01*
X67119047Y-158035714D02*
X67119047Y-158845238D01*
X67071428Y-158940476D01*
X67023809Y-158988095D01*
X66928571Y-159035714D01*
X66785714Y-159035714D01*
X66690476Y-158988095D01*
X67119047Y-158654761D02*
X67023809Y-158702380D01*
X66833333Y-158702380D01*
X66738095Y-158654761D01*
X66690476Y-158607142D01*
X66642857Y-158511904D01*
X66642857Y-158226190D01*
X66690476Y-158130952D01*
X66738095Y-158083333D01*
X66833333Y-158035714D01*
X67023809Y-158035714D01*
X67119047Y-158083333D01*
X67595238Y-158035714D02*
X67595238Y-158702380D01*
X67595238Y-158130952D02*
X67642857Y-158083333D01*
X67738095Y-158035714D01*
X67880952Y-158035714D01*
X67976190Y-158083333D01*
X68023809Y-158178571D01*
X68023809Y-158702380D01*
X68928571Y-158702380D02*
X68928571Y-158178571D01*
X68880952Y-158083333D01*
X68785714Y-158035714D01*
X68595238Y-158035714D01*
X68500000Y-158083333D01*
X68928571Y-158654761D02*
X68833333Y-158702380D01*
X68595238Y-158702380D01*
X68500000Y-158654761D01*
X68452380Y-158559523D01*
X68452380Y-158464285D01*
X68500000Y-158369047D01*
X68595238Y-158321428D01*
X68833333Y-158321428D01*
X68928571Y-158273809D01*
X69547619Y-158702380D02*
X69452380Y-158654761D01*
X69404761Y-158559523D01*
X69404761Y-157702380D01*
X69880952Y-158654761D02*
X69976190Y-158702380D01*
X70166666Y-158702380D01*
X70261904Y-158654761D01*
X70309523Y-158559523D01*
X70309523Y-158511904D01*
X70261904Y-158416666D01*
X70166666Y-158369047D01*
X70023809Y-158369047D01*
X69928571Y-158321428D01*
X69880952Y-158226190D01*
X69880952Y-158178571D01*
X69928571Y-158083333D01*
X70023809Y-158035714D01*
X70166666Y-158035714D01*
X70261904Y-158083333D01*
X72250000Y-158250000D02*
X71750000Y-158250000D01*
X73000000Y-157500000D02*
X72250000Y-158250000D01*
D12*
X70310952Y-155452380D02*
X70977618Y-156452380D01*
X70977618Y-155452380D02*
X70310952Y-156452380D01*
X71310952Y-156166666D02*
X71787142Y-156166666D01*
X71215714Y-156452380D02*
X71549047Y-155452380D01*
X71882380Y-156452380D01*
X72739523Y-156452380D02*
X72168095Y-156452380D01*
X72453809Y-156452380D02*
X72453809Y-155452380D01*
X72358571Y-155595238D01*
X72263333Y-155690476D01*
X72168095Y-155738095D01*
X70310952Y-152952380D02*
X70977618Y-153952380D01*
X70977618Y-152952380D02*
X70310952Y-153952380D01*
X71310952Y-153666666D02*
X71787142Y-153666666D01*
X71215714Y-153952380D02*
X71549047Y-152952380D01*
X71882380Y-153952380D01*
X72406190Y-152952380D02*
X72501428Y-152952380D01*
X72596666Y-153000000D01*
X72644285Y-153047619D01*
X72691904Y-153142857D01*
X72739523Y-153333333D01*
X72739523Y-153571428D01*
X72691904Y-153761904D01*
X72644285Y-153857142D01*
X72596666Y-153904761D01*
X72501428Y-153952380D01*
X72406190Y-153952380D01*
X72310952Y-153904761D01*
X72263333Y-153857142D01*
X72215714Y-153761904D01*
X72168095Y-153571428D01*
X72168095Y-153333333D01*
X72215714Y-153142857D01*
X72263333Y-153047619D01*
X72310952Y-153000000D01*
X72406190Y-152952380D01*
X70596666Y-150928571D02*
X70739523Y-150976190D01*
X70787142Y-151023809D01*
X70834761Y-151119047D01*
X70834761Y-151261904D01*
X70787142Y-151357142D01*
X70739523Y-151404761D01*
X70644285Y-151452380D01*
X70263333Y-151452380D01*
X70263333Y-150452380D01*
X70596666Y-150452380D01*
X70691904Y-150500000D01*
X70739523Y-150547619D01*
X70787142Y-150642857D01*
X70787142Y-150738095D01*
X70739523Y-150833333D01*
X70691904Y-150880952D01*
X70596666Y-150928571D01*
X70263333Y-150928571D01*
X71215714Y-151404761D02*
X71358571Y-151452380D01*
X71596666Y-151452380D01*
X71691904Y-151404761D01*
X71739523Y-151357142D01*
X71787142Y-151261904D01*
X71787142Y-151166666D01*
X71739523Y-151071428D01*
X71691904Y-151023809D01*
X71596666Y-150976190D01*
X71406190Y-150928571D01*
X71310952Y-150880952D01*
X71263333Y-150833333D01*
X71215714Y-150738095D01*
X71215714Y-150642857D01*
X71263333Y-150547619D01*
X71310952Y-150500000D01*
X71406190Y-150452380D01*
X71644285Y-150452380D01*
X71787142Y-150500000D01*
X72739523Y-151452380D02*
X72168095Y-151452380D01*
X72453809Y-151452380D02*
X72453809Y-150452380D01*
X72358571Y-150595238D01*
X72263333Y-150690476D01*
X72168095Y-150738095D01*
X70787143Y-147520000D02*
X71930000Y-147520000D01*
X70930000Y-147952380D02*
X71168095Y-148952380D01*
X71358571Y-148238095D01*
X71549047Y-148952380D01*
X71787143Y-147952380D01*
X71930000Y-147520000D02*
X72930000Y-147520000D01*
X72739523Y-148952380D02*
X72406190Y-148476190D01*
X72168095Y-148952380D02*
X72168095Y-147952380D01*
X72549047Y-147952380D01*
X72644285Y-148000000D01*
X72691904Y-148047619D01*
X72739523Y-148142857D01*
X72739523Y-148285714D01*
X72691904Y-148380952D01*
X72644285Y-148428571D01*
X72549047Y-148476190D01*
X72168095Y-148476190D01*
X70977619Y-145020000D02*
X72025238Y-145020000D01*
X71406190Y-145452380D02*
X71596666Y-145452380D01*
X71691904Y-145500000D01*
X71787142Y-145595238D01*
X71834761Y-145785714D01*
X71834761Y-146119047D01*
X71787142Y-146309523D01*
X71691904Y-146404761D01*
X71596666Y-146452380D01*
X71406190Y-146452380D01*
X71310952Y-146404761D01*
X71215714Y-146309523D01*
X71168095Y-146119047D01*
X71168095Y-145785714D01*
X71215714Y-145595238D01*
X71310952Y-145500000D01*
X71406190Y-145452380D01*
X72025238Y-145020000D02*
X72929999Y-145020000D01*
X72263333Y-145928571D02*
X72596666Y-145928571D01*
X72739523Y-146452380D02*
X72263333Y-146452380D01*
X72263333Y-145452380D01*
X72739523Y-145452380D01*
X70596666Y-135728571D02*
X70739523Y-135776190D01*
X70787142Y-135823809D01*
X70834761Y-135919047D01*
X70834761Y-136061904D01*
X70787142Y-136157142D01*
X70739523Y-136204761D01*
X70644285Y-136252380D01*
X70263333Y-136252380D01*
X70263333Y-135252380D01*
X70596666Y-135252380D01*
X70691904Y-135300000D01*
X70739523Y-135347619D01*
X70787142Y-135442857D01*
X70787142Y-135538095D01*
X70739523Y-135633333D01*
X70691904Y-135680952D01*
X70596666Y-135728571D01*
X70263333Y-135728571D01*
X71215714Y-136204761D02*
X71358571Y-136252380D01*
X71596666Y-136252380D01*
X71691904Y-136204761D01*
X71739523Y-136157142D01*
X71787142Y-136061904D01*
X71787142Y-135966666D01*
X71739523Y-135871428D01*
X71691904Y-135823809D01*
X71596666Y-135776190D01*
X71406190Y-135728571D01*
X71310952Y-135680952D01*
X71263333Y-135633333D01*
X71215714Y-135538095D01*
X71215714Y-135442857D01*
X71263333Y-135347619D01*
X71310952Y-135300000D01*
X71406190Y-135252380D01*
X71644285Y-135252380D01*
X71787142Y-135300000D01*
X72168095Y-135347619D02*
X72215714Y-135300000D01*
X72310952Y-135252380D01*
X72549047Y-135252380D01*
X72644285Y-135300000D01*
X72691904Y-135347619D01*
X72739523Y-135442857D01*
X72739523Y-135538095D01*
X72691904Y-135680952D01*
X72120476Y-136252380D01*
X72739523Y-136252380D01*
X70882380Y-138852380D02*
X70549047Y-138376190D01*
X70310952Y-138852380D02*
X70310952Y-137852380D01*
X70691904Y-137852380D01*
X70787142Y-137900000D01*
X70834761Y-137947619D01*
X70882380Y-138042857D01*
X70882380Y-138185714D01*
X70834761Y-138280952D01*
X70787142Y-138328571D01*
X70691904Y-138376190D01*
X70310952Y-138376190D01*
X71310952Y-138852380D02*
X71310952Y-137852380D01*
X71549047Y-137852380D01*
X71691904Y-137900000D01*
X71787142Y-137995238D01*
X71834761Y-138090476D01*
X71882380Y-138280952D01*
X71882380Y-138423809D01*
X71834761Y-138614285D01*
X71787142Y-138709523D01*
X71691904Y-138804761D01*
X71549047Y-138852380D01*
X71310952Y-138852380D01*
X72501428Y-138376190D02*
X72501428Y-138852380D01*
X72168095Y-137852380D02*
X72501428Y-138376190D01*
X72834761Y-137852380D01*
D10*
X110000000Y-120000000D02*
X109500000Y-120500000D01*
X110500000Y-120000000D02*
X110000000Y-120000000D01*
D11*
X95071428Y-135983571D02*
X95000000Y-136126428D01*
X94928571Y-136197857D01*
X94785714Y-136269285D01*
X94714285Y-136269285D01*
X94571428Y-136197857D01*
X94500000Y-136126428D01*
X94428571Y-135983571D01*
X94428571Y-135697857D01*
X94500000Y-135555000D01*
X94571428Y-135483571D01*
X94714285Y-135412142D01*
X94785714Y-135412142D01*
X94928571Y-135483571D01*
X95000000Y-135555000D01*
X95071428Y-135697857D01*
X95071428Y-135983571D01*
X95142857Y-136126428D01*
X95214285Y-136197857D01*
X95357142Y-136269285D01*
X95642857Y-136269285D01*
X95785714Y-136197857D01*
X95857142Y-136126428D01*
X95928571Y-135983571D01*
X95928571Y-135697857D01*
X95857142Y-135555000D01*
X95785714Y-135483571D01*
X95642857Y-135412142D01*
X95357142Y-135412142D01*
X95214285Y-135483571D01*
X95142857Y-135555000D01*
X95071428Y-135697857D01*
X95928571Y-153162142D02*
X95928571Y-154019285D01*
X95928571Y-153590714D02*
X94428571Y-153590714D01*
X94642857Y-153733571D01*
X94785714Y-153876428D01*
X94857142Y-154019285D01*
D10*
X109749880Y-125073809D02*
X109864166Y-125111904D01*
X110054642Y-125111904D01*
X110130833Y-125073809D01*
X110168928Y-125035714D01*
X110207023Y-124959523D01*
X110207023Y-124883333D01*
X110168928Y-124807142D01*
X110130833Y-124769047D01*
X110054642Y-124730952D01*
X109902261Y-124692857D01*
X109826071Y-124654761D01*
X109787976Y-124616666D01*
X109749880Y-124540476D01*
X109749880Y-124464285D01*
X109787976Y-124388095D01*
X109826071Y-124350000D01*
X109902261Y-124311904D01*
X110092738Y-124311904D01*
X110207023Y-124350000D01*
X110549880Y-125111904D02*
X110549880Y-124311904D01*
X110740357Y-124311904D01*
X110854642Y-124350000D01*
X110930833Y-124426190D01*
X110968928Y-124502380D01*
X111007023Y-124654761D01*
X111007023Y-124769047D01*
X110968928Y-124921428D01*
X110930833Y-124997619D01*
X110854642Y-125073809D01*
X110740357Y-125111904D01*
X110549880Y-125111904D01*
X111349880Y-125111904D02*
X111349880Y-124311904D01*
X109749880Y-122573809D02*
X109864166Y-122611904D01*
X110054642Y-122611904D01*
X110130833Y-122573809D01*
X110168928Y-122535714D01*
X110207023Y-122459523D01*
X110207023Y-122383333D01*
X110168928Y-122307142D01*
X110130833Y-122269047D01*
X110054642Y-122230952D01*
X109902261Y-122192857D01*
X109826071Y-122154761D01*
X109787976Y-122116666D01*
X109749880Y-122040476D01*
X109749880Y-121964285D01*
X109787976Y-121888095D01*
X109826071Y-121850000D01*
X109902261Y-121811904D01*
X110092738Y-121811904D01*
X110207023Y-121850000D01*
X111007023Y-122535714D02*
X110968928Y-122573809D01*
X110854642Y-122611904D01*
X110778452Y-122611904D01*
X110664166Y-122573809D01*
X110587976Y-122497619D01*
X110549880Y-122421428D01*
X110511785Y-122269047D01*
X110511785Y-122154761D01*
X110549880Y-122002380D01*
X110587976Y-121926190D01*
X110664166Y-121850000D01*
X110778452Y-121811904D01*
X110854642Y-121811904D01*
X110968928Y-121850000D01*
X111007023Y-121888095D01*
X111349880Y-122611904D02*
X111349880Y-121811904D01*
D13*
G04 #@! TO.C,REF\u002A\u002A*
G36*
X85899744Y-106219918D02*
G01*
X85955201Y-106247568D01*
X86004148Y-106298480D01*
X86017629Y-106317338D01*
X86032314Y-106342015D01*
X86041842Y-106368816D01*
X86047293Y-106404587D01*
X86049747Y-106456169D01*
X86050286Y-106524267D01*
X86047852Y-106617588D01*
X86039394Y-106687657D01*
X86023174Y-106739931D01*
X85997454Y-106779869D01*
X85960497Y-106812929D01*
X85957782Y-106814886D01*
X85921360Y-106834908D01*
X85877502Y-106844815D01*
X85821724Y-106847257D01*
X85731048Y-106847257D01*
X85731010Y-106935283D01*
X85730166Y-106984308D01*
X85725024Y-107013065D01*
X85711587Y-107030311D01*
X85685858Y-107044808D01*
X85679679Y-107047769D01*
X85650764Y-107061648D01*
X85628376Y-107070414D01*
X85611729Y-107071171D01*
X85600036Y-107061023D01*
X85592510Y-107037073D01*
X85588366Y-106996426D01*
X85586815Y-106936186D01*
X85587071Y-106853455D01*
X85588349Y-106745339D01*
X85588748Y-106713000D01*
X85590185Y-106601524D01*
X85591472Y-106528603D01*
X85730971Y-106528603D01*
X85731755Y-106590499D01*
X85735240Y-106630997D01*
X85743124Y-106657708D01*
X85757105Y-106678244D01*
X85766597Y-106688260D01*
X85805404Y-106717567D01*
X85839763Y-106719952D01*
X85875216Y-106695750D01*
X85876114Y-106694857D01*
X85890539Y-106676153D01*
X85899313Y-106650732D01*
X85903739Y-106611584D01*
X85905118Y-106551697D01*
X85905143Y-106538430D01*
X85901812Y-106455901D01*
X85890969Y-106398691D01*
X85871340Y-106363766D01*
X85841650Y-106348094D01*
X85824491Y-106346514D01*
X85783766Y-106353926D01*
X85755832Y-106378330D01*
X85739017Y-106422980D01*
X85731650Y-106491130D01*
X85730971Y-106528603D01*
X85591472Y-106528603D01*
X85591708Y-106515245D01*
X85593677Y-106450333D01*
X85596450Y-106402958D01*
X85600388Y-106369290D01*
X85605849Y-106345498D01*
X85613192Y-106327753D01*
X85622777Y-106312224D01*
X85626887Y-106306381D01*
X85681405Y-106251185D01*
X85750336Y-106219890D01*
X85830072Y-106211165D01*
X85899744Y-106219918D01*
G37*
X85899744Y-106219918D02*
X85955201Y-106247568D01*
X86004148Y-106298480D01*
X86017629Y-106317338D01*
X86032314Y-106342015D01*
X86041842Y-106368816D01*
X86047293Y-106404587D01*
X86049747Y-106456169D01*
X86050286Y-106524267D01*
X86047852Y-106617588D01*
X86039394Y-106687657D01*
X86023174Y-106739931D01*
X85997454Y-106779869D01*
X85960497Y-106812929D01*
X85957782Y-106814886D01*
X85921360Y-106834908D01*
X85877502Y-106844815D01*
X85821724Y-106847257D01*
X85731048Y-106847257D01*
X85731010Y-106935283D01*
X85730166Y-106984308D01*
X85725024Y-107013065D01*
X85711587Y-107030311D01*
X85685858Y-107044808D01*
X85679679Y-107047769D01*
X85650764Y-107061648D01*
X85628376Y-107070414D01*
X85611729Y-107071171D01*
X85600036Y-107061023D01*
X85592510Y-107037073D01*
X85588366Y-106996426D01*
X85586815Y-106936186D01*
X85587071Y-106853455D01*
X85588349Y-106745339D01*
X85588748Y-106713000D01*
X85590185Y-106601524D01*
X85591472Y-106528603D01*
X85730971Y-106528603D01*
X85731755Y-106590499D01*
X85735240Y-106630997D01*
X85743124Y-106657708D01*
X85757105Y-106678244D01*
X85766597Y-106688260D01*
X85805404Y-106717567D01*
X85839763Y-106719952D01*
X85875216Y-106695750D01*
X85876114Y-106694857D01*
X85890539Y-106676153D01*
X85899313Y-106650732D01*
X85903739Y-106611584D01*
X85905118Y-106551697D01*
X85905143Y-106538430D01*
X85901812Y-106455901D01*
X85890969Y-106398691D01*
X85871340Y-106363766D01*
X85841650Y-106348094D01*
X85824491Y-106346514D01*
X85783766Y-106353926D01*
X85755832Y-106378330D01*
X85739017Y-106422980D01*
X85731650Y-106491130D01*
X85730971Y-106528603D01*
X85591472Y-106528603D01*
X85591708Y-106515245D01*
X85593677Y-106450333D01*
X85596450Y-106402958D01*
X85600388Y-106369290D01*
X85605849Y-106345498D01*
X85613192Y-106327753D01*
X85622777Y-106312224D01*
X85626887Y-106306381D01*
X85681405Y-106251185D01*
X85750336Y-106219890D01*
X85830072Y-106211165D01*
X85899744Y-106219918D01*
G36*
X87016093Y-106227780D02*
G01*
X87062672Y-106254723D01*
X87095057Y-106281466D01*
X87118742Y-106309484D01*
X87135059Y-106343748D01*
X87145339Y-106389227D01*
X87150914Y-106450892D01*
X87153116Y-106533711D01*
X87153371Y-106593246D01*
X87153371Y-106812391D01*
X87091686Y-106840044D01*
X87030000Y-106867697D01*
X87022743Y-106627670D01*
X87019744Y-106538028D01*
X87016598Y-106472962D01*
X87012701Y-106428026D01*
X87007447Y-106398770D01*
X87000231Y-106380748D01*
X86990450Y-106369511D01*
X86987312Y-106367079D01*
X86939761Y-106348083D01*
X86891697Y-106355600D01*
X86863086Y-106375543D01*
X86851447Y-106389675D01*
X86843391Y-106408220D01*
X86838271Y-106436334D01*
X86835441Y-106479173D01*
X86834256Y-106541895D01*
X86834057Y-106607261D01*
X86834018Y-106689268D01*
X86832614Y-106747316D01*
X86827914Y-106786465D01*
X86817987Y-106811780D01*
X86800903Y-106828323D01*
X86774732Y-106841156D01*
X86739775Y-106854491D01*
X86701596Y-106869007D01*
X86706141Y-106611389D01*
X86707971Y-106518519D01*
X86710112Y-106449889D01*
X86713181Y-106400711D01*
X86717794Y-106366198D01*
X86724568Y-106341562D01*
X86734119Y-106322016D01*
X86745634Y-106304770D01*
X86801190Y-106249680D01*
X86868980Y-106217822D01*
X86942713Y-106210191D01*
X87016093Y-106227780D01*
G37*
X87016093Y-106227780D02*
X87062672Y-106254723D01*
X87095057Y-106281466D01*
X87118742Y-106309484D01*
X87135059Y-106343748D01*
X87145339Y-106389227D01*
X87150914Y-106450892D01*
X87153116Y-106533711D01*
X87153371Y-106593246D01*
X87153371Y-106812391D01*
X87091686Y-106840044D01*
X87030000Y-106867697D01*
X87022743Y-106627670D01*
X87019744Y-106538028D01*
X87016598Y-106472962D01*
X87012701Y-106428026D01*
X87007447Y-106398770D01*
X87000231Y-106380748D01*
X86990450Y-106369511D01*
X86987312Y-106367079D01*
X86939761Y-106348083D01*
X86891697Y-106355600D01*
X86863086Y-106375543D01*
X86851447Y-106389675D01*
X86843391Y-106408220D01*
X86838271Y-106436334D01*
X86835441Y-106479173D01*
X86834256Y-106541895D01*
X86834057Y-106607261D01*
X86834018Y-106689268D01*
X86832614Y-106747316D01*
X86827914Y-106786465D01*
X86817987Y-106811780D01*
X86800903Y-106828323D01*
X86774732Y-106841156D01*
X86739775Y-106854491D01*
X86701596Y-106869007D01*
X86706141Y-106611389D01*
X86707971Y-106518519D01*
X86710112Y-106449889D01*
X86713181Y-106400711D01*
X86717794Y-106366198D01*
X86724568Y-106341562D01*
X86734119Y-106322016D01*
X86745634Y-106304770D01*
X86801190Y-106249680D01*
X86868980Y-106217822D01*
X86942713Y-106210191D01*
X87016093Y-106227780D01*
G36*
X85341115Y-106221962D02*
G01*
X85409145Y-106257733D01*
X85459351Y-106315301D01*
X85477185Y-106352312D01*
X85491063Y-106407882D01*
X85498167Y-106478096D01*
X85498840Y-106554727D01*
X85493427Y-106629552D01*
X85482270Y-106694342D01*
X85465714Y-106740873D01*
X85460626Y-106748887D01*
X85400355Y-106808707D01*
X85328769Y-106844535D01*
X85251092Y-106855020D01*
X85172548Y-106838810D01*
X85150689Y-106829092D01*
X85108122Y-106799143D01*
X85070763Y-106759433D01*
X85067232Y-106754397D01*
X85052881Y-106730124D01*
X85043394Y-106704178D01*
X85037790Y-106670022D01*
X85035086Y-106621119D01*
X85034299Y-106550935D01*
X85034286Y-106535200D01*
X85034322Y-106530192D01*
X85179429Y-106530192D01*
X85180273Y-106596430D01*
X85183596Y-106640386D01*
X85190583Y-106668779D01*
X85202416Y-106688325D01*
X85208457Y-106694857D01*
X85243186Y-106719680D01*
X85276903Y-106718548D01*
X85310995Y-106697016D01*
X85331329Y-106674029D01*
X85343371Y-106640478D01*
X85350134Y-106587569D01*
X85350598Y-106581399D01*
X85351752Y-106485513D01*
X85339688Y-106414299D01*
X85314570Y-106368194D01*
X85276560Y-106347635D01*
X85262992Y-106346514D01*
X85227364Y-106352152D01*
X85202994Y-106371686D01*
X85188093Y-106409042D01*
X85180875Y-106468150D01*
X85179429Y-106530192D01*
X85034322Y-106530192D01*
X85034826Y-106460413D01*
X85037096Y-106408159D01*
X85042068Y-106371949D01*
X85050713Y-106345299D01*
X85064005Y-106321722D01*
X85066943Y-106317338D01*
X85116313Y-106258249D01*
X85170109Y-106223947D01*
X85235602Y-106210331D01*
X85257842Y-106209665D01*
X85341115Y-106221962D01*
G37*
X85341115Y-106221962D02*
X85409145Y-106257733D01*
X85459351Y-106315301D01*
X85477185Y-106352312D01*
X85491063Y-106407882D01*
X85498167Y-106478096D01*
X85498840Y-106554727D01*
X85493427Y-106629552D01*
X85482270Y-106694342D01*
X85465714Y-106740873D01*
X85460626Y-106748887D01*
X85400355Y-106808707D01*
X85328769Y-106844535D01*
X85251092Y-106855020D01*
X85172548Y-106838810D01*
X85150689Y-106829092D01*
X85108122Y-106799143D01*
X85070763Y-106759433D01*
X85067232Y-106754397D01*
X85052881Y-106730124D01*
X85043394Y-106704178D01*
X85037790Y-106670022D01*
X85035086Y-106621119D01*
X85034299Y-106550935D01*
X85034286Y-106535200D01*
X85034322Y-106530192D01*
X85179429Y-106530192D01*
X85180273Y-106596430D01*
X85183596Y-106640386D01*
X85190583Y-106668779D01*
X85202416Y-106688325D01*
X85208457Y-106694857D01*
X85243186Y-106719680D01*
X85276903Y-106718548D01*
X85310995Y-106697016D01*
X85331329Y-106674029D01*
X85343371Y-106640478D01*
X85350134Y-106587569D01*
X85350598Y-106581399D01*
X85351752Y-106485513D01*
X85339688Y-106414299D01*
X85314570Y-106368194D01*
X85276560Y-106347635D01*
X85262992Y-106346514D01*
X85227364Y-106352152D01*
X85202994Y-106371686D01*
X85188093Y-106409042D01*
X85180875Y-106468150D01*
X85179429Y-106530192D01*
X85034322Y-106530192D01*
X85034826Y-106460413D01*
X85037096Y-106408159D01*
X85042068Y-106371949D01*
X85050713Y-106345299D01*
X85064005Y-106321722D01*
X85066943Y-106317338D01*
X85116313Y-106258249D01*
X85170109Y-106223947D01*
X85235602Y-106210331D01*
X85257842Y-106209665D01*
X85341115Y-106221962D01*
G36*
X86468303Y-106231239D02*
G01*
X86525527Y-106269735D01*
X86569749Y-106325335D01*
X86596167Y-106396086D01*
X86601510Y-106448162D01*
X86600903Y-106469893D01*
X86595822Y-106486531D01*
X86581855Y-106501437D01*
X86554589Y-106517973D01*
X86509612Y-106539498D01*
X86442511Y-106569374D01*
X86442171Y-106569524D01*
X86380407Y-106597813D01*
X86329759Y-106622933D01*
X86295404Y-106642179D01*
X86282518Y-106652848D01*
X86282514Y-106652934D01*
X86293872Y-106676166D01*
X86320431Y-106701774D01*
X86350923Y-106720221D01*
X86366370Y-106723886D01*
X86408515Y-106711212D01*
X86444808Y-106679471D01*
X86462517Y-106644572D01*
X86479552Y-106618845D01*
X86512922Y-106589546D01*
X86552149Y-106564235D01*
X86586756Y-106550471D01*
X86593993Y-106549714D01*
X86602139Y-106562160D01*
X86602630Y-106593972D01*
X86596643Y-106636866D01*
X86585357Y-106682558D01*
X86569950Y-106722761D01*
X86569171Y-106724322D01*
X86522804Y-106789062D01*
X86462711Y-106833097D01*
X86394465Y-106854711D01*
X86323638Y-106852185D01*
X86255804Y-106823804D01*
X86252788Y-106821808D01*
X86199427Y-106773448D01*
X86164340Y-106710352D01*
X86144922Y-106627387D01*
X86142316Y-106604078D01*
X86137701Y-106494055D01*
X86143233Y-106442748D01*
X86282514Y-106442748D01*
X86284324Y-106474753D01*
X86294222Y-106484093D01*
X86318898Y-106477105D01*
X86357795Y-106460587D01*
X86401275Y-106439881D01*
X86402356Y-106439333D01*
X86439209Y-106419949D01*
X86454000Y-106407013D01*
X86450353Y-106393451D01*
X86434995Y-106375632D01*
X86395923Y-106349845D01*
X86353846Y-106347950D01*
X86316103Y-106366717D01*
X86290034Y-106402915D01*
X86282514Y-106442748D01*
X86143233Y-106442748D01*
X86147194Y-106406027D01*
X86171550Y-106336212D01*
X86205456Y-106287302D01*
X86266653Y-106237878D01*
X86334063Y-106213359D01*
X86402880Y-106211797D01*
X86468303Y-106231239D01*
G37*
X86468303Y-106231239D02*
X86525527Y-106269735D01*
X86569749Y-106325335D01*
X86596167Y-106396086D01*
X86601510Y-106448162D01*
X86600903Y-106469893D01*
X86595822Y-106486531D01*
X86581855Y-106501437D01*
X86554589Y-106517973D01*
X86509612Y-106539498D01*
X86442511Y-106569374D01*
X86442171Y-106569524D01*
X86380407Y-106597813D01*
X86329759Y-106622933D01*
X86295404Y-106642179D01*
X86282518Y-106652848D01*
X86282514Y-106652934D01*
X86293872Y-106676166D01*
X86320431Y-106701774D01*
X86350923Y-106720221D01*
X86366370Y-106723886D01*
X86408515Y-106711212D01*
X86444808Y-106679471D01*
X86462517Y-106644572D01*
X86479552Y-106618845D01*
X86512922Y-106589546D01*
X86552149Y-106564235D01*
X86586756Y-106550471D01*
X86593993Y-106549714D01*
X86602139Y-106562160D01*
X86602630Y-106593972D01*
X86596643Y-106636866D01*
X86585357Y-106682558D01*
X86569950Y-106722761D01*
X86569171Y-106724322D01*
X86522804Y-106789062D01*
X86462711Y-106833097D01*
X86394465Y-106854711D01*
X86323638Y-106852185D01*
X86255804Y-106823804D01*
X86252788Y-106821808D01*
X86199427Y-106773448D01*
X86164340Y-106710352D01*
X86144922Y-106627387D01*
X86142316Y-106604078D01*
X86137701Y-106494055D01*
X86143233Y-106442748D01*
X86282514Y-106442748D01*
X86284324Y-106474753D01*
X86294222Y-106484093D01*
X86318898Y-106477105D01*
X86357795Y-106460587D01*
X86401275Y-106439881D01*
X86402356Y-106439333D01*
X86439209Y-106419949D01*
X86454000Y-106407013D01*
X86450353Y-106393451D01*
X86434995Y-106375632D01*
X86395923Y-106349845D01*
X86353846Y-106347950D01*
X86316103Y-106366717D01*
X86290034Y-106402915D01*
X86282514Y-106442748D01*
X86143233Y-106442748D01*
X86147194Y-106406027D01*
X86171550Y-106336212D01*
X86205456Y-106287302D01*
X86266653Y-106237878D01*
X86334063Y-106213359D01*
X86402880Y-106211797D01*
X86468303Y-106231239D01*
G36*
X87675886Y-106151289D02*
G01*
X87680139Y-106210613D01*
X87685025Y-106245572D01*
X87691795Y-106260820D01*
X87701702Y-106261015D01*
X87704914Y-106259195D01*
X87747644Y-106246015D01*
X87803227Y-106246785D01*
X87859737Y-106260333D01*
X87895082Y-106277861D01*
X87931321Y-106305861D01*
X87957813Y-106337549D01*
X87975999Y-106377813D01*
X87987322Y-106431543D01*
X87993222Y-106503626D01*
X87995143Y-106598951D01*
X87995177Y-106617237D01*
X87995200Y-106822646D01*
X87949491Y-106838580D01*
X87917027Y-106849420D01*
X87899215Y-106854468D01*
X87898691Y-106854514D01*
X87896937Y-106840828D01*
X87895444Y-106803076D01*
X87894326Y-106746224D01*
X87893697Y-106675234D01*
X87893600Y-106632073D01*
X87893398Y-106546973D01*
X87892358Y-106485981D01*
X87889831Y-106444177D01*
X87885164Y-106416642D01*
X87877707Y-106398456D01*
X87866811Y-106384698D01*
X87860007Y-106378073D01*
X87813272Y-106351375D01*
X87762272Y-106349375D01*
X87716001Y-106371955D01*
X87707444Y-106380107D01*
X87694893Y-106395436D01*
X87686188Y-106413618D01*
X87680631Y-106439909D01*
X87677526Y-106479562D01*
X87676176Y-106537832D01*
X87675886Y-106618173D01*
X87675886Y-106822646D01*
X87630177Y-106838580D01*
X87597713Y-106849420D01*
X87579901Y-106854468D01*
X87579377Y-106854514D01*
X87578037Y-106840623D01*
X87576828Y-106801439D01*
X87575801Y-106740700D01*
X87575002Y-106662141D01*
X87574481Y-106569498D01*
X87574286Y-106466509D01*
X87574286Y-106069342D01*
X87621457Y-106049444D01*
X87668629Y-106029547D01*
X87675886Y-106151289D01*
G37*
X87675886Y-106151289D02*
X87680139Y-106210613D01*
X87685025Y-106245572D01*
X87691795Y-106260820D01*
X87701702Y-106261015D01*
X87704914Y-106259195D01*
X87747644Y-106246015D01*
X87803227Y-106246785D01*
X87859737Y-106260333D01*
X87895082Y-106277861D01*
X87931321Y-106305861D01*
X87957813Y-106337549D01*
X87975999Y-106377813D01*
X87987322Y-106431543D01*
X87993222Y-106503626D01*
X87995143Y-106598951D01*
X87995177Y-106617237D01*
X87995200Y-106822646D01*
X87949491Y-106838580D01*
X87917027Y-106849420D01*
X87899215Y-106854468D01*
X87898691Y-106854514D01*
X87896937Y-106840828D01*
X87895444Y-106803076D01*
X87894326Y-106746224D01*
X87893697Y-106675234D01*
X87893600Y-106632073D01*
X87893398Y-106546973D01*
X87892358Y-106485981D01*
X87889831Y-106444177D01*
X87885164Y-106416642D01*
X87877707Y-106398456D01*
X87866811Y-106384698D01*
X87860007Y-106378073D01*
X87813272Y-106351375D01*
X87762272Y-106349375D01*
X87716001Y-106371955D01*
X87707444Y-106380107D01*
X87694893Y-106395436D01*
X87686188Y-106413618D01*
X87680631Y-106439909D01*
X87677526Y-106479562D01*
X87676176Y-106537832D01*
X87675886Y-106618173D01*
X87675886Y-106822646D01*
X87630177Y-106838580D01*
X87597713Y-106849420D01*
X87579901Y-106854468D01*
X87579377Y-106854514D01*
X87578037Y-106840623D01*
X87576828Y-106801439D01*
X87575801Y-106740700D01*
X87575002Y-106662141D01*
X87574481Y-106569498D01*
X87574286Y-106466509D01*
X87574286Y-106069342D01*
X87621457Y-106049444D01*
X87668629Y-106029547D01*
X87675886Y-106151289D01*
G36*
X88339744Y-106250968D02*
G01*
X88396616Y-106272087D01*
X88397267Y-106272493D01*
X88432440Y-106298380D01*
X88458407Y-106328633D01*
X88476670Y-106368058D01*
X88488732Y-106421462D01*
X88496096Y-106493651D01*
X88500264Y-106589432D01*
X88500629Y-106603078D01*
X88505876Y-106808842D01*
X88461716Y-106831678D01*
X88429763Y-106847110D01*
X88410470Y-106854423D01*
X88409578Y-106854514D01*
X88406239Y-106841022D01*
X88403587Y-106804626D01*
X88401956Y-106751452D01*
X88401600Y-106708393D01*
X88401592Y-106638641D01*
X88398403Y-106594837D01*
X88387288Y-106573944D01*
X88363501Y-106572925D01*
X88322296Y-106588741D01*
X88260086Y-106617815D01*
X88214341Y-106641963D01*
X88190813Y-106662913D01*
X88183896Y-106685747D01*
X88183886Y-106686877D01*
X88195299Y-106726212D01*
X88229092Y-106747462D01*
X88280809Y-106750539D01*
X88318061Y-106750006D01*
X88337703Y-106760735D01*
X88349952Y-106786505D01*
X88357002Y-106819337D01*
X88346842Y-106837966D01*
X88343017Y-106840632D01*
X88307001Y-106851340D01*
X88256566Y-106852856D01*
X88204626Y-106845759D01*
X88167822Y-106832788D01*
X88116938Y-106789585D01*
X88088014Y-106729446D01*
X88082286Y-106682462D01*
X88086657Y-106640082D01*
X88102475Y-106605488D01*
X88133797Y-106574763D01*
X88184678Y-106543990D01*
X88259176Y-106509252D01*
X88263714Y-106507288D01*
X88330821Y-106476287D01*
X88372232Y-106450862D01*
X88389981Y-106428014D01*
X88386107Y-106404745D01*
X88362643Y-106378056D01*
X88355627Y-106371914D01*
X88308630Y-106348100D01*
X88259933Y-106349103D01*
X88217522Y-106372451D01*
X88189384Y-106415675D01*
X88186769Y-106424160D01*
X88161308Y-106465308D01*
X88129001Y-106485128D01*
X88082286Y-106504770D01*
X88082286Y-106453950D01*
X88096496Y-106380082D01*
X88138675Y-106312327D01*
X88160624Y-106289661D01*
X88210517Y-106260569D01*
X88273967Y-106247400D01*
X88339744Y-106250968D01*
G37*
X88339744Y-106250968D02*
X88396616Y-106272087D01*
X88397267Y-106272493D01*
X88432440Y-106298380D01*
X88458407Y-106328633D01*
X88476670Y-106368058D01*
X88488732Y-106421462D01*
X88496096Y-106493651D01*
X88500264Y-106589432D01*
X88500629Y-106603078D01*
X88505876Y-106808842D01*
X88461716Y-106831678D01*
X88429763Y-106847110D01*
X88410470Y-106854423D01*
X88409578Y-106854514D01*
X88406239Y-106841022D01*
X88403587Y-106804626D01*
X88401956Y-106751452D01*
X88401600Y-106708393D01*
X88401592Y-106638641D01*
X88398403Y-106594837D01*
X88387288Y-106573944D01*
X88363501Y-106572925D01*
X88322296Y-106588741D01*
X88260086Y-106617815D01*
X88214341Y-106641963D01*
X88190813Y-106662913D01*
X88183896Y-106685747D01*
X88183886Y-106686877D01*
X88195299Y-106726212D01*
X88229092Y-106747462D01*
X88280809Y-106750539D01*
X88318061Y-106750006D01*
X88337703Y-106760735D01*
X88349952Y-106786505D01*
X88357002Y-106819337D01*
X88346842Y-106837966D01*
X88343017Y-106840632D01*
X88307001Y-106851340D01*
X88256566Y-106852856D01*
X88204626Y-106845759D01*
X88167822Y-106832788D01*
X88116938Y-106789585D01*
X88088014Y-106729446D01*
X88082286Y-106682462D01*
X88086657Y-106640082D01*
X88102475Y-106605488D01*
X88133797Y-106574763D01*
X88184678Y-106543990D01*
X88259176Y-106509252D01*
X88263714Y-106507288D01*
X88330821Y-106476287D01*
X88372232Y-106450862D01*
X88389981Y-106428014D01*
X88386107Y-106404745D01*
X88362643Y-106378056D01*
X88355627Y-106371914D01*
X88308630Y-106348100D01*
X88259933Y-106349103D01*
X88217522Y-106372451D01*
X88189384Y-106415675D01*
X88186769Y-106424160D01*
X88161308Y-106465308D01*
X88129001Y-106485128D01*
X88082286Y-106504770D01*
X88082286Y-106453950D01*
X88096496Y-106380082D01*
X88138675Y-106312327D01*
X88160624Y-106289661D01*
X88210517Y-106260569D01*
X88273967Y-106247400D01*
X88339744Y-106250968D01*
G36*
X88829926Y-106249755D02*
G01*
X88895858Y-106274084D01*
X88949273Y-106317117D01*
X88970164Y-106347409D01*
X88992939Y-106402994D01*
X88992466Y-106443186D01*
X88968562Y-106470217D01*
X88959717Y-106474813D01*
X88921530Y-106489144D01*
X88902028Y-106485472D01*
X88895422Y-106461407D01*
X88895086Y-106448114D01*
X88882992Y-106399210D01*
X88851471Y-106364999D01*
X88807659Y-106348476D01*
X88758695Y-106352634D01*
X88718894Y-106374227D01*
X88705450Y-106386544D01*
X88695921Y-106401487D01*
X88689485Y-106424075D01*
X88685317Y-106459328D01*
X88682597Y-106512266D01*
X88680502Y-106587907D01*
X88679960Y-106611857D01*
X88677981Y-106693790D01*
X88675731Y-106751455D01*
X88672357Y-106789608D01*
X88667006Y-106813004D01*
X88658824Y-106826398D01*
X88646959Y-106834545D01*
X88639362Y-106838144D01*
X88607102Y-106850452D01*
X88588111Y-106854514D01*
X88581836Y-106840948D01*
X88578006Y-106799934D01*
X88576600Y-106730999D01*
X88577598Y-106633669D01*
X88577908Y-106618657D01*
X88580101Y-106529859D01*
X88582693Y-106465019D01*
X88586382Y-106419067D01*
X88591864Y-106386935D01*
X88599835Y-106363553D01*
X88610993Y-106343852D01*
X88616830Y-106335410D01*
X88650296Y-106298057D01*
X88687727Y-106269003D01*
X88692309Y-106266467D01*
X88759426Y-106246443D01*
X88829926Y-106249755D01*
G37*
X88829926Y-106249755D02*
X88895858Y-106274084D01*
X88949273Y-106317117D01*
X88970164Y-106347409D01*
X88992939Y-106402994D01*
X88992466Y-106443186D01*
X88968562Y-106470217D01*
X88959717Y-106474813D01*
X88921530Y-106489144D01*
X88902028Y-106485472D01*
X88895422Y-106461407D01*
X88895086Y-106448114D01*
X88882992Y-106399210D01*
X88851471Y-106364999D01*
X88807659Y-106348476D01*
X88758695Y-106352634D01*
X88718894Y-106374227D01*
X88705450Y-106386544D01*
X88695921Y-106401487D01*
X88689485Y-106424075D01*
X88685317Y-106459328D01*
X88682597Y-106512266D01*
X88680502Y-106587907D01*
X88679960Y-106611857D01*
X88677981Y-106693790D01*
X88675731Y-106751455D01*
X88672357Y-106789608D01*
X88667006Y-106813004D01*
X88658824Y-106826398D01*
X88646959Y-106834545D01*
X88639362Y-106838144D01*
X88607102Y-106850452D01*
X88588111Y-106854514D01*
X88581836Y-106840948D01*
X88578006Y-106799934D01*
X88576600Y-106730999D01*
X88577598Y-106633669D01*
X88577908Y-106618657D01*
X88580101Y-106529859D01*
X88582693Y-106465019D01*
X88586382Y-106419067D01*
X88591864Y-106386935D01*
X88599835Y-106363553D01*
X88610993Y-106343852D01*
X88616830Y-106335410D01*
X88650296Y-106298057D01*
X88687727Y-106269003D01*
X88692309Y-106266467D01*
X88759426Y-106246443D01*
X88829926Y-106249755D01*
G36*
X89490117Y-106365358D02*
G01*
X89489933Y-106473837D01*
X89489219Y-106557287D01*
X89487675Y-106619704D01*
X89485001Y-106665085D01*
X89480894Y-106697429D01*
X89475055Y-106720733D01*
X89467182Y-106738995D01*
X89461221Y-106749418D01*
X89411855Y-106805945D01*
X89349264Y-106841377D01*
X89280013Y-106854090D01*
X89210668Y-106842463D01*
X89169375Y-106821568D01*
X89126025Y-106785422D01*
X89096481Y-106741276D01*
X89078655Y-106683462D01*
X89070463Y-106606313D01*
X89069302Y-106549714D01*
X89069458Y-106545647D01*
X89170857Y-106545647D01*
X89171476Y-106610550D01*
X89174314Y-106653514D01*
X89180840Y-106681622D01*
X89192523Y-106701953D01*
X89206483Y-106717288D01*
X89253365Y-106746890D01*
X89303701Y-106749419D01*
X89351276Y-106724705D01*
X89354979Y-106721356D01*
X89370783Y-106703935D01*
X89380693Y-106683209D01*
X89386058Y-106652362D01*
X89388228Y-106604577D01*
X89388571Y-106551748D01*
X89387827Y-106485381D01*
X89384748Y-106441106D01*
X89378061Y-106412009D01*
X89366496Y-106391173D01*
X89357013Y-106380107D01*
X89312960Y-106352198D01*
X89262224Y-106348843D01*
X89213796Y-106370159D01*
X89204450Y-106378073D01*
X89188540Y-106395647D01*
X89178610Y-106416587D01*
X89173278Y-106447782D01*
X89171163Y-106496122D01*
X89170857Y-106545647D01*
X89069458Y-106545647D01*
X89072810Y-106458568D01*
X89084726Y-106390086D01*
X89107135Y-106338600D01*
X89142124Y-106298443D01*
X89169375Y-106277861D01*
X89218907Y-106255625D01*
X89276316Y-106245304D01*
X89329682Y-106248067D01*
X89359543Y-106259212D01*
X89371261Y-106262383D01*
X89379037Y-106250557D01*
X89384465Y-106218866D01*
X89388571Y-106170593D01*
X89393067Y-106116829D01*
X89399313Y-106084482D01*
X89410676Y-106065985D01*
X89430528Y-106053770D01*
X89443000Y-106048362D01*
X89490171Y-106028601D01*
X89490117Y-106365358D01*
G37*
X89490117Y-106365358D02*
X89489933Y-106473837D01*
X89489219Y-106557287D01*
X89487675Y-106619704D01*
X89485001Y-106665085D01*
X89480894Y-106697429D01*
X89475055Y-106720733D01*
X89467182Y-106738995D01*
X89461221Y-106749418D01*
X89411855Y-106805945D01*
X89349264Y-106841377D01*
X89280013Y-106854090D01*
X89210668Y-106842463D01*
X89169375Y-106821568D01*
X89126025Y-106785422D01*
X89096481Y-106741276D01*
X89078655Y-106683462D01*
X89070463Y-106606313D01*
X89069302Y-106549714D01*
X89069458Y-106545647D01*
X89170857Y-106545647D01*
X89171476Y-106610550D01*
X89174314Y-106653514D01*
X89180840Y-106681622D01*
X89192523Y-106701953D01*
X89206483Y-106717288D01*
X89253365Y-106746890D01*
X89303701Y-106749419D01*
X89351276Y-106724705D01*
X89354979Y-106721356D01*
X89370783Y-106703935D01*
X89380693Y-106683209D01*
X89386058Y-106652362D01*
X89388228Y-106604577D01*
X89388571Y-106551748D01*
X89387827Y-106485381D01*
X89384748Y-106441106D01*
X89378061Y-106412009D01*
X89366496Y-106391173D01*
X89357013Y-106380107D01*
X89312960Y-106352198D01*
X89262224Y-106348843D01*
X89213796Y-106370159D01*
X89204450Y-106378073D01*
X89188540Y-106395647D01*
X89178610Y-106416587D01*
X89173278Y-106447782D01*
X89171163Y-106496122D01*
X89170857Y-106545647D01*
X89069458Y-106545647D01*
X89072810Y-106458568D01*
X89084726Y-106390086D01*
X89107135Y-106338600D01*
X89142124Y-106298443D01*
X89169375Y-106277861D01*
X89218907Y-106255625D01*
X89276316Y-106245304D01*
X89329682Y-106248067D01*
X89359543Y-106259212D01*
X89371261Y-106262383D01*
X89379037Y-106250557D01*
X89384465Y-106218866D01*
X89388571Y-106170593D01*
X89393067Y-106116829D01*
X89399313Y-106084482D01*
X89410676Y-106065985D01*
X89430528Y-106053770D01*
X89443000Y-106048362D01*
X89490171Y-106028601D01*
X89490117Y-106365358D01*
G36*
X90079833Y-106258663D02*
G01*
X90082048Y-106296850D01*
X90083784Y-106354886D01*
X90084899Y-106428180D01*
X90085257Y-106505055D01*
X90085257Y-106765196D01*
X90039326Y-106811127D01*
X90007675Y-106839429D01*
X89979890Y-106850893D01*
X89941915Y-106850168D01*
X89926840Y-106848321D01*
X89879726Y-106842948D01*
X89840756Y-106839869D01*
X89831257Y-106839585D01*
X89799233Y-106841445D01*
X89753432Y-106846114D01*
X89735674Y-106848321D01*
X89692057Y-106851735D01*
X89662745Y-106844320D01*
X89633680Y-106821427D01*
X89623188Y-106811127D01*
X89577257Y-106765196D01*
X89577257Y-106278602D01*
X89614226Y-106261758D01*
X89646059Y-106249282D01*
X89664683Y-106244914D01*
X89669458Y-106258718D01*
X89673921Y-106297286D01*
X89677775Y-106356356D01*
X89680722Y-106431663D01*
X89682143Y-106495286D01*
X89686114Y-106745657D01*
X89720759Y-106750556D01*
X89752268Y-106747131D01*
X89767708Y-106736041D01*
X89772023Y-106715308D01*
X89775708Y-106671145D01*
X89778469Y-106609146D01*
X89780012Y-106534909D01*
X89780235Y-106496706D01*
X89780457Y-106276783D01*
X89826166Y-106260849D01*
X89858518Y-106250015D01*
X89876115Y-106244962D01*
X89876623Y-106244914D01*
X89878388Y-106258648D01*
X89880329Y-106296730D01*
X89882282Y-106354482D01*
X89884084Y-106427227D01*
X89885343Y-106495286D01*
X89889314Y-106745657D01*
X89976400Y-106745657D01*
X89980396Y-106517240D01*
X89984392Y-106288822D01*
X90026847Y-106266868D01*
X90058192Y-106251793D01*
X90076744Y-106244951D01*
X90077279Y-106244914D01*
X90079833Y-106258663D01*
G37*
X90079833Y-106258663D02*
X90082048Y-106296850D01*
X90083784Y-106354886D01*
X90084899Y-106428180D01*
X90085257Y-106505055D01*
X90085257Y-106765196D01*
X90039326Y-106811127D01*
X90007675Y-106839429D01*
X89979890Y-106850893D01*
X89941915Y-106850168D01*
X89926840Y-106848321D01*
X89879726Y-106842948D01*
X89840756Y-106839869D01*
X89831257Y-106839585D01*
X89799233Y-106841445D01*
X89753432Y-106846114D01*
X89735674Y-106848321D01*
X89692057Y-106851735D01*
X89662745Y-106844320D01*
X89633680Y-106821427D01*
X89623188Y-106811127D01*
X89577257Y-106765196D01*
X89577257Y-106278602D01*
X89614226Y-106261758D01*
X89646059Y-106249282D01*
X89664683Y-106244914D01*
X89669458Y-106258718D01*
X89673921Y-106297286D01*
X89677775Y-106356356D01*
X89680722Y-106431663D01*
X89682143Y-106495286D01*
X89686114Y-106745657D01*
X89720759Y-106750556D01*
X89752268Y-106747131D01*
X89767708Y-106736041D01*
X89772023Y-106715308D01*
X89775708Y-106671145D01*
X89778469Y-106609146D01*
X89780012Y-106534909D01*
X89780235Y-106496706D01*
X89780457Y-106276783D01*
X89826166Y-106260849D01*
X89858518Y-106250015D01*
X89876115Y-106244962D01*
X89876623Y-106244914D01*
X89878388Y-106258648D01*
X89880329Y-106296730D01*
X89882282Y-106354482D01*
X89884084Y-106427227D01*
X89885343Y-106495286D01*
X89889314Y-106745657D01*
X89976400Y-106745657D01*
X89980396Y-106517240D01*
X89984392Y-106288822D01*
X90026847Y-106266868D01*
X90058192Y-106251793D01*
X90076744Y-106244951D01*
X90077279Y-106244914D01*
X90079833Y-106258663D01*
G36*
X90444876Y-106256335D02*
G01*
X90486667Y-106275344D01*
X90519469Y-106298378D01*
X90543503Y-106324133D01*
X90560097Y-106357358D01*
X90570577Y-106402800D01*
X90576271Y-106465207D01*
X90578507Y-106549327D01*
X90578743Y-106604721D01*
X90578743Y-106820826D01*
X90541774Y-106837670D01*
X90512656Y-106849981D01*
X90498231Y-106854514D01*
X90495472Y-106841025D01*
X90493282Y-106804653D01*
X90491942Y-106751542D01*
X90491657Y-106709372D01*
X90490434Y-106648447D01*
X90487136Y-106600115D01*
X90482321Y-106570518D01*
X90478496Y-106564229D01*
X90452783Y-106570652D01*
X90412418Y-106587125D01*
X90365679Y-106609458D01*
X90320845Y-106633457D01*
X90286193Y-106654930D01*
X90270002Y-106669685D01*
X90269938Y-106669845D01*
X90271330Y-106697152D01*
X90283818Y-106723219D01*
X90305743Y-106744392D01*
X90337743Y-106751474D01*
X90365092Y-106750649D01*
X90403826Y-106750042D01*
X90424158Y-106759116D01*
X90436369Y-106783092D01*
X90437909Y-106787613D01*
X90443203Y-106821806D01*
X90429047Y-106842568D01*
X90392148Y-106852462D01*
X90352289Y-106854292D01*
X90280562Y-106840727D01*
X90243432Y-106821355D01*
X90197576Y-106775845D01*
X90173256Y-106719983D01*
X90171073Y-106660957D01*
X90191629Y-106605953D01*
X90222549Y-106571486D01*
X90253420Y-106552189D01*
X90301942Y-106527759D01*
X90358485Y-106502985D01*
X90367910Y-106499199D01*
X90430019Y-106471791D01*
X90465822Y-106447634D01*
X90477337Y-106423619D01*
X90466580Y-106396635D01*
X90448114Y-106375543D01*
X90404469Y-106349572D01*
X90356446Y-106347624D01*
X90312406Y-106367637D01*
X90280709Y-106407551D01*
X90276549Y-106417848D01*
X90252327Y-106455724D01*
X90216965Y-106483842D01*
X90172343Y-106506917D01*
X90172343Y-106441485D01*
X90174969Y-106401506D01*
X90186230Y-106369997D01*
X90211199Y-106336378D01*
X90235169Y-106310484D01*
X90272441Y-106273817D01*
X90301401Y-106254121D01*
X90332505Y-106246220D01*
X90367713Y-106244914D01*
X90444876Y-106256335D01*
G37*
X90444876Y-106256335D02*
X90486667Y-106275344D01*
X90519469Y-106298378D01*
X90543503Y-106324133D01*
X90560097Y-106357358D01*
X90570577Y-106402800D01*
X90576271Y-106465207D01*
X90578507Y-106549327D01*
X90578743Y-106604721D01*
X90578743Y-106820826D01*
X90541774Y-106837670D01*
X90512656Y-106849981D01*
X90498231Y-106854514D01*
X90495472Y-106841025D01*
X90493282Y-106804653D01*
X90491942Y-106751542D01*
X90491657Y-106709372D01*
X90490434Y-106648447D01*
X90487136Y-106600115D01*
X90482321Y-106570518D01*
X90478496Y-106564229D01*
X90452783Y-106570652D01*
X90412418Y-106587125D01*
X90365679Y-106609458D01*
X90320845Y-106633457D01*
X90286193Y-106654930D01*
X90270002Y-106669685D01*
X90269938Y-106669845D01*
X90271330Y-106697152D01*
X90283818Y-106723219D01*
X90305743Y-106744392D01*
X90337743Y-106751474D01*
X90365092Y-106750649D01*
X90403826Y-106750042D01*
X90424158Y-106759116D01*
X90436369Y-106783092D01*
X90437909Y-106787613D01*
X90443203Y-106821806D01*
X90429047Y-106842568D01*
X90392148Y-106852462D01*
X90352289Y-106854292D01*
X90280562Y-106840727D01*
X90243432Y-106821355D01*
X90197576Y-106775845D01*
X90173256Y-106719983D01*
X90171073Y-106660957D01*
X90191629Y-106605953D01*
X90222549Y-106571486D01*
X90253420Y-106552189D01*
X90301942Y-106527759D01*
X90358485Y-106502985D01*
X90367910Y-106499199D01*
X90430019Y-106471791D01*
X90465822Y-106447634D01*
X90477337Y-106423619D01*
X90466580Y-106396635D01*
X90448114Y-106375543D01*
X90404469Y-106349572D01*
X90356446Y-106347624D01*
X90312406Y-106367637D01*
X90280709Y-106407551D01*
X90276549Y-106417848D01*
X90252327Y-106455724D01*
X90216965Y-106483842D01*
X90172343Y-106506917D01*
X90172343Y-106441485D01*
X90174969Y-106401506D01*
X90186230Y-106369997D01*
X90211199Y-106336378D01*
X90235169Y-106310484D01*
X90272441Y-106273817D01*
X90301401Y-106254121D01*
X90332505Y-106246220D01*
X90367713Y-106244914D01*
X90444876Y-106256335D01*
G36*
X90952600Y-106258752D02*
G01*
X90969948Y-106266334D01*
X91011356Y-106299128D01*
X91046765Y-106346547D01*
X91068664Y-106397151D01*
X91072229Y-106422098D01*
X91060279Y-106456927D01*
X91034067Y-106475357D01*
X91005964Y-106486516D01*
X90993095Y-106488572D01*
X90986829Y-106473649D01*
X90974456Y-106441175D01*
X90969028Y-106426502D01*
X90938590Y-106375744D01*
X90894520Y-106350427D01*
X90838010Y-106351206D01*
X90833825Y-106352203D01*
X90803655Y-106366507D01*
X90781476Y-106394393D01*
X90766327Y-106439287D01*
X90757250Y-106504615D01*
X90753286Y-106593804D01*
X90752914Y-106641261D01*
X90752730Y-106716071D01*
X90751522Y-106767069D01*
X90748309Y-106799471D01*
X90742109Y-106818495D01*
X90731940Y-106829356D01*
X90716819Y-106837272D01*
X90715946Y-106837670D01*
X90686828Y-106849981D01*
X90672403Y-106854514D01*
X90670186Y-106840809D01*
X90668289Y-106802925D01*
X90666847Y-106745715D01*
X90665998Y-106674027D01*
X90665829Y-106621565D01*
X90666692Y-106520047D01*
X90670070Y-106443032D01*
X90677142Y-106386023D01*
X90689088Y-106344526D01*
X90707090Y-106314043D01*
X90732327Y-106290080D01*
X90757247Y-106273355D01*
X90817171Y-106251097D01*
X90886911Y-106246076D01*
X90952600Y-106258752D01*
G37*
X90952600Y-106258752D02*
X90969948Y-106266334D01*
X91011356Y-106299128D01*
X91046765Y-106346547D01*
X91068664Y-106397151D01*
X91072229Y-106422098D01*
X91060279Y-106456927D01*
X91034067Y-106475357D01*
X91005964Y-106486516D01*
X90993095Y-106488572D01*
X90986829Y-106473649D01*
X90974456Y-106441175D01*
X90969028Y-106426502D01*
X90938590Y-106375744D01*
X90894520Y-106350427D01*
X90838010Y-106351206D01*
X90833825Y-106352203D01*
X90803655Y-106366507D01*
X90781476Y-106394393D01*
X90766327Y-106439287D01*
X90757250Y-106504615D01*
X90753286Y-106593804D01*
X90752914Y-106641261D01*
X90752730Y-106716071D01*
X90751522Y-106767069D01*
X90748309Y-106799471D01*
X90742109Y-106818495D01*
X90731940Y-106829356D01*
X90716819Y-106837272D01*
X90715946Y-106837670D01*
X90686828Y-106849981D01*
X90672403Y-106854514D01*
X90670186Y-106840809D01*
X90668289Y-106802925D01*
X90666847Y-106745715D01*
X90665998Y-106674027D01*
X90665829Y-106621565D01*
X90666692Y-106520047D01*
X90670070Y-106443032D01*
X90677142Y-106386023D01*
X90689088Y-106344526D01*
X90707090Y-106314043D01*
X90732327Y-106290080D01*
X90757247Y-106273355D01*
X90817171Y-106251097D01*
X90886911Y-106246076D01*
X90952600Y-106258752D01*
G36*
X91453595Y-106266966D02*
G01*
X91511021Y-106304497D01*
X91538719Y-106338096D01*
X91560662Y-106399064D01*
X91562405Y-106447308D01*
X91558457Y-106511816D01*
X91409686Y-106576934D01*
X91337349Y-106610202D01*
X91290084Y-106636964D01*
X91265507Y-106660144D01*
X91261237Y-106682667D01*
X91274889Y-106707455D01*
X91289943Y-106723886D01*
X91333746Y-106750235D01*
X91381389Y-106752081D01*
X91425145Y-106731546D01*
X91457289Y-106690752D01*
X91463038Y-106676347D01*
X91490576Y-106631356D01*
X91522258Y-106612182D01*
X91565714Y-106595779D01*
X91565714Y-106657966D01*
X91561872Y-106700283D01*
X91546823Y-106735969D01*
X91515280Y-106776943D01*
X91510592Y-106782267D01*
X91475506Y-106818720D01*
X91445347Y-106838283D01*
X91407615Y-106847283D01*
X91376335Y-106850230D01*
X91320385Y-106850965D01*
X91280555Y-106841660D01*
X91255708Y-106827846D01*
X91216656Y-106797467D01*
X91189625Y-106764613D01*
X91172517Y-106723294D01*
X91163238Y-106667521D01*
X91159693Y-106591305D01*
X91159410Y-106552622D01*
X91160372Y-106506247D01*
X91248007Y-106506247D01*
X91249023Y-106531126D01*
X91251556Y-106535200D01*
X91268274Y-106529665D01*
X91304249Y-106515017D01*
X91352331Y-106494190D01*
X91362386Y-106489714D01*
X91423152Y-106458814D01*
X91456632Y-106431657D01*
X91463990Y-106406220D01*
X91446391Y-106380481D01*
X91431856Y-106369109D01*
X91379410Y-106346364D01*
X91330322Y-106350122D01*
X91289227Y-106377884D01*
X91260758Y-106427152D01*
X91251631Y-106466257D01*
X91248007Y-106506247D01*
X91160372Y-106506247D01*
X91161285Y-106462249D01*
X91168196Y-106395384D01*
X91181884Y-106346695D01*
X91204096Y-106310849D01*
X91236574Y-106282513D01*
X91250733Y-106273355D01*
X91315053Y-106249507D01*
X91385473Y-106248006D01*
X91453595Y-106266966D01*
G37*
X91453595Y-106266966D02*
X91511021Y-106304497D01*
X91538719Y-106338096D01*
X91560662Y-106399064D01*
X91562405Y-106447308D01*
X91558457Y-106511816D01*
X91409686Y-106576934D01*
X91337349Y-106610202D01*
X91290084Y-106636964D01*
X91265507Y-106660144D01*
X91261237Y-106682667D01*
X91274889Y-106707455D01*
X91289943Y-106723886D01*
X91333746Y-106750235D01*
X91381389Y-106752081D01*
X91425145Y-106731546D01*
X91457289Y-106690752D01*
X91463038Y-106676347D01*
X91490576Y-106631356D01*
X91522258Y-106612182D01*
X91565714Y-106595779D01*
X91565714Y-106657966D01*
X91561872Y-106700283D01*
X91546823Y-106735969D01*
X91515280Y-106776943D01*
X91510592Y-106782267D01*
X91475506Y-106818720D01*
X91445347Y-106838283D01*
X91407615Y-106847283D01*
X91376335Y-106850230D01*
X91320385Y-106850965D01*
X91280555Y-106841660D01*
X91255708Y-106827846D01*
X91216656Y-106797467D01*
X91189625Y-106764613D01*
X91172517Y-106723294D01*
X91163238Y-106667521D01*
X91159693Y-106591305D01*
X91159410Y-106552622D01*
X91160372Y-106506247D01*
X91248007Y-106506247D01*
X91249023Y-106531126D01*
X91251556Y-106535200D01*
X91268274Y-106529665D01*
X91304249Y-106515017D01*
X91352331Y-106494190D01*
X91362386Y-106489714D01*
X91423152Y-106458814D01*
X91456632Y-106431657D01*
X91463990Y-106406220D01*
X91446391Y-106380481D01*
X91431856Y-106369109D01*
X91379410Y-106346364D01*
X91330322Y-106350122D01*
X91289227Y-106377884D01*
X91260758Y-106427152D01*
X91251631Y-106466257D01*
X91248007Y-106506247D01*
X91160372Y-106506247D01*
X91161285Y-106462249D01*
X91168196Y-106395384D01*
X91181884Y-106346695D01*
X91204096Y-106310849D01*
X91236574Y-106282513D01*
X91250733Y-106273355D01*
X91315053Y-106249507D01*
X91385473Y-106248006D01*
X91453595Y-106266966D01*
G36*
X88403910Y-101542348D02*
G01*
X88482454Y-101542778D01*
X88539298Y-101543942D01*
X88578105Y-101546207D01*
X88602538Y-101549940D01*
X88616262Y-101555506D01*
X88622940Y-101563273D01*
X88626236Y-101573605D01*
X88626556Y-101574943D01*
X88631562Y-101599079D01*
X88640829Y-101646701D01*
X88653392Y-101712741D01*
X88668287Y-101792128D01*
X88684551Y-101879796D01*
X88685119Y-101882875D01*
X88701410Y-101968789D01*
X88716652Y-102044696D01*
X88729861Y-102106045D01*
X88740054Y-102148282D01*
X88746248Y-102166855D01*
X88746543Y-102167184D01*
X88764788Y-102176253D01*
X88802405Y-102191367D01*
X88851271Y-102209262D01*
X88851543Y-102209358D01*
X88913093Y-102232493D01*
X88985657Y-102261965D01*
X89054057Y-102291597D01*
X89057294Y-102293062D01*
X89168702Y-102343626D01*
X89415399Y-102175160D01*
X89491077Y-102123803D01*
X89559631Y-102077889D01*
X89617088Y-102040030D01*
X89659476Y-102012837D01*
X89682825Y-101998921D01*
X89685042Y-101997889D01*
X89702010Y-102002484D01*
X89733701Y-102024655D01*
X89781352Y-102065447D01*
X89846198Y-102125905D01*
X89912397Y-102190227D01*
X89976214Y-102253612D01*
X90033329Y-102311451D01*
X90080305Y-102360175D01*
X90113703Y-102396210D01*
X90130085Y-102415984D01*
X90130694Y-102417002D01*
X90132505Y-102430572D01*
X90125683Y-102452733D01*
X90108540Y-102486478D01*
X90079393Y-102534800D01*
X90036555Y-102600692D01*
X89979448Y-102685517D01*
X89928766Y-102760177D01*
X89883461Y-102827140D01*
X89846150Y-102882516D01*
X89819452Y-102922420D01*
X89805985Y-102942962D01*
X89805137Y-102944356D01*
X89806781Y-102964038D01*
X89819245Y-103002293D01*
X89840048Y-103051889D01*
X89847462Y-103067728D01*
X89879814Y-103138290D01*
X89914328Y-103218353D01*
X89942365Y-103287629D01*
X89962568Y-103339045D01*
X89978615Y-103378119D01*
X89987888Y-103398541D01*
X89989041Y-103400114D01*
X90006096Y-103402721D01*
X90046298Y-103409863D01*
X90104302Y-103420523D01*
X90174763Y-103433685D01*
X90252335Y-103448333D01*
X90331672Y-103463449D01*
X90407431Y-103478018D01*
X90474264Y-103491022D01*
X90526828Y-103501445D01*
X90559776Y-103508270D01*
X90567857Y-103510199D01*
X90576205Y-103514962D01*
X90582506Y-103525718D01*
X90587045Y-103546098D01*
X90590104Y-103579734D01*
X90591967Y-103630255D01*
X90592918Y-103701292D01*
X90593240Y-103796476D01*
X90593257Y-103835492D01*
X90593257Y-104152799D01*
X90517057Y-104167839D01*
X90474663Y-104175995D01*
X90411400Y-104187899D01*
X90334962Y-104202116D01*
X90253043Y-104217210D01*
X90230400Y-104221355D01*
X90154806Y-104236053D01*
X90088953Y-104250505D01*
X90038366Y-104263375D01*
X90008574Y-104273322D01*
X90003612Y-104276287D01*
X89991426Y-104297283D01*
X89973953Y-104337967D01*
X89954577Y-104390322D01*
X89950734Y-104401600D01*
X89925339Y-104471523D01*
X89893817Y-104550418D01*
X89862969Y-104621266D01*
X89862817Y-104621595D01*
X89811447Y-104732733D01*
X89980399Y-104981253D01*
X90149352Y-105229772D01*
X89932429Y-105447058D01*
X89866819Y-105511726D01*
X89806979Y-105568733D01*
X89756267Y-105615033D01*
X89718046Y-105647584D01*
X89695675Y-105663343D01*
X89692466Y-105664343D01*
X89673626Y-105656469D01*
X89635180Y-105634578D01*
X89581330Y-105601267D01*
X89516276Y-105559131D01*
X89445940Y-105511943D01*
X89374555Y-105463810D01*
X89310908Y-105421928D01*
X89259041Y-105388871D01*
X89222995Y-105367218D01*
X89206867Y-105359543D01*
X89187189Y-105366037D01*
X89149875Y-105383150D01*
X89102621Y-105407326D01*
X89097612Y-105410013D01*
X89033977Y-105441927D01*
X88990341Y-105457579D01*
X88963202Y-105457745D01*
X88949057Y-105443204D01*
X88948975Y-105443000D01*
X88941905Y-105425779D01*
X88925042Y-105384899D01*
X88899695Y-105323525D01*
X88867171Y-105244819D01*
X88828778Y-105151947D01*
X88785822Y-105048072D01*
X88744222Y-104947502D01*
X88698504Y-104836516D01*
X88656526Y-104733703D01*
X88619548Y-104642215D01*
X88588827Y-104565201D01*
X88565622Y-104505815D01*
X88551190Y-104467209D01*
X88546743Y-104452800D01*
X88557896Y-104436272D01*
X88587069Y-104409930D01*
X88625971Y-104380887D01*
X88736757Y-104289039D01*
X88823351Y-104183759D01*
X88884716Y-104067266D01*
X88919815Y-103941776D01*
X88927608Y-103809507D01*
X88921943Y-103748457D01*
X88891078Y-103621795D01*
X88837920Y-103509941D01*
X88765767Y-103414001D01*
X88677917Y-103335076D01*
X88577665Y-103274270D01*
X88468310Y-103232687D01*
X88353147Y-103211428D01*
X88235475Y-103211599D01*
X88118590Y-103234301D01*
X88005789Y-103280638D01*
X87900369Y-103351713D01*
X87856368Y-103391911D01*
X87771979Y-103495129D01*
X87713222Y-103607925D01*
X87679704Y-103727010D01*
X87671035Y-103849095D01*
X87686823Y-103970893D01*
X87726678Y-104089116D01*
X87790207Y-104200475D01*
X87877021Y-104301684D01*
X87974029Y-104380887D01*
X88014437Y-104411162D01*
X88042982Y-104437219D01*
X88053257Y-104452825D01*
X88047877Y-104469843D01*
X88032575Y-104510500D01*
X88008612Y-104571642D01*
X87977244Y-104650119D01*
X87939732Y-104742780D01*
X87897333Y-104846472D01*
X87855663Y-104947526D01*
X87809690Y-105058607D01*
X87767107Y-105161541D01*
X87729221Y-105253165D01*
X87697340Y-105330316D01*
X87672771Y-105389831D01*
X87656820Y-105428544D01*
X87650910Y-105443000D01*
X87636948Y-105457685D01*
X87609940Y-105457642D01*
X87566413Y-105442099D01*
X87502890Y-105410284D01*
X87502388Y-105410013D01*
X87454560Y-105385323D01*
X87415897Y-105367338D01*
X87394095Y-105359614D01*
X87393133Y-105359543D01*
X87376721Y-105367378D01*
X87340487Y-105389165D01*
X87288474Y-105422328D01*
X87224725Y-105464291D01*
X87154060Y-105511943D01*
X87082116Y-105560191D01*
X87017274Y-105602151D01*
X86963735Y-105635227D01*
X86925697Y-105656821D01*
X86907533Y-105664343D01*
X86890808Y-105654457D01*
X86857180Y-105626826D01*
X86810010Y-105584495D01*
X86752658Y-105530505D01*
X86688484Y-105467899D01*
X86667497Y-105446983D01*
X86450499Y-105229623D01*
X86615668Y-104987220D01*
X86665864Y-104912781D01*
X86709919Y-104845972D01*
X86745362Y-104790665D01*
X86769719Y-104750729D01*
X86780522Y-104730036D01*
X86780838Y-104728563D01*
X86775143Y-104709058D01*
X86759826Y-104669822D01*
X86737537Y-104617430D01*
X86721893Y-104582355D01*
X86692641Y-104515201D01*
X86665094Y-104447358D01*
X86643737Y-104390034D01*
X86637935Y-104372572D01*
X86621452Y-104325938D01*
X86605340Y-104289905D01*
X86596490Y-104276287D01*
X86576960Y-104267952D01*
X86534334Y-104256137D01*
X86474145Y-104242181D01*
X86401922Y-104227422D01*
X86369600Y-104221355D01*
X86287522Y-104206273D01*
X86208795Y-104191669D01*
X86141109Y-104178980D01*
X86092160Y-104169642D01*
X86082943Y-104167839D01*
X86006743Y-104152799D01*
X86006743Y-103835492D01*
X86006914Y-103731154D01*
X86007616Y-103652213D01*
X86009134Y-103595038D01*
X86011749Y-103555999D01*
X86015746Y-103531465D01*
X86021409Y-103517805D01*
X86029020Y-103511389D01*
X86032143Y-103510199D01*
X86050978Y-103505980D01*
X86092588Y-103497562D01*
X86151630Y-103485961D01*
X86222757Y-103472195D01*
X86300625Y-103457280D01*
X86379887Y-103442232D01*
X86455198Y-103428069D01*
X86521213Y-103415806D01*
X86572587Y-103406461D01*
X86603975Y-103401050D01*
X86610959Y-103400114D01*
X86617285Y-103387596D01*
X86631290Y-103354246D01*
X86650355Y-103306377D01*
X86657634Y-103287629D01*
X86686996Y-103215195D01*
X86721571Y-103135170D01*
X86752537Y-103067728D01*
X86775323Y-103016159D01*
X86790482Y-102973785D01*
X86795542Y-102947834D01*
X86794736Y-102944356D01*
X86784041Y-102927936D01*
X86759620Y-102891417D01*
X86724095Y-102838687D01*
X86680087Y-102773635D01*
X86630217Y-102700151D01*
X86620356Y-102685645D01*
X86562492Y-102599704D01*
X86519956Y-102534261D01*
X86491054Y-102486304D01*
X86474090Y-102452820D01*
X86467367Y-102430795D01*
X86469190Y-102417217D01*
X86469236Y-102417131D01*
X86483586Y-102399297D01*
X86515323Y-102364817D01*
X86561010Y-102317268D01*
X86617204Y-102260222D01*
X86680468Y-102197255D01*
X86687602Y-102190227D01*
X86767330Y-102113020D01*
X86828857Y-102056330D01*
X86873421Y-102019110D01*
X86902257Y-102000315D01*
X86914958Y-101997889D01*
X86933494Y-102008471D01*
X86971961Y-102032916D01*
X87026386Y-102068612D01*
X87092798Y-102112947D01*
X87167225Y-102163311D01*
X87184601Y-102175160D01*
X87431297Y-102343626D01*
X87542706Y-102293062D01*
X87610457Y-102263595D01*
X87683183Y-102233959D01*
X87745703Y-102210330D01*
X87748457Y-102209358D01*
X87797360Y-102191457D01*
X87835057Y-102176320D01*
X87853425Y-102167210D01*
X87853456Y-102167184D01*
X87859285Y-102150717D01*
X87869192Y-102110219D01*
X87882195Y-102050242D01*
X87897309Y-101975340D01*
X87913552Y-101890064D01*
X87914881Y-101882875D01*
X87931175Y-101795014D01*
X87946133Y-101715260D01*
X87958791Y-101648681D01*
X87968186Y-101600347D01*
X87973354Y-101575325D01*
X87973444Y-101574943D01*
X87976589Y-101564299D01*
X87982704Y-101556262D01*
X87995453Y-101550467D01*
X88018500Y-101546547D01*
X88055509Y-101544135D01*
X88110144Y-101542865D01*
X88186067Y-101542371D01*
X88286944Y-101542286D01*
X88300000Y-101542286D01*
X88403910Y-101542348D01*
G37*
X88403910Y-101542348D02*
X88482454Y-101542778D01*
X88539298Y-101543942D01*
X88578105Y-101546207D01*
X88602538Y-101549940D01*
X88616262Y-101555506D01*
X88622940Y-101563273D01*
X88626236Y-101573605D01*
X88626556Y-101574943D01*
X88631562Y-101599079D01*
X88640829Y-101646701D01*
X88653392Y-101712741D01*
X88668287Y-101792128D01*
X88684551Y-101879796D01*
X88685119Y-101882875D01*
X88701410Y-101968789D01*
X88716652Y-102044696D01*
X88729861Y-102106045D01*
X88740054Y-102148282D01*
X88746248Y-102166855D01*
X88746543Y-102167184D01*
X88764788Y-102176253D01*
X88802405Y-102191367D01*
X88851271Y-102209262D01*
X88851543Y-102209358D01*
X88913093Y-102232493D01*
X88985657Y-102261965D01*
X89054057Y-102291597D01*
X89057294Y-102293062D01*
X89168702Y-102343626D01*
X89415399Y-102175160D01*
X89491077Y-102123803D01*
X89559631Y-102077889D01*
X89617088Y-102040030D01*
X89659476Y-102012837D01*
X89682825Y-101998921D01*
X89685042Y-101997889D01*
X89702010Y-102002484D01*
X89733701Y-102024655D01*
X89781352Y-102065447D01*
X89846198Y-102125905D01*
X89912397Y-102190227D01*
X89976214Y-102253612D01*
X90033329Y-102311451D01*
X90080305Y-102360175D01*
X90113703Y-102396210D01*
X90130085Y-102415984D01*
X90130694Y-102417002D01*
X90132505Y-102430572D01*
X90125683Y-102452733D01*
X90108540Y-102486478D01*
X90079393Y-102534800D01*
X90036555Y-102600692D01*
X89979448Y-102685517D01*
X89928766Y-102760177D01*
X89883461Y-102827140D01*
X89846150Y-102882516D01*
X89819452Y-102922420D01*
X89805985Y-102942962D01*
X89805137Y-102944356D01*
X89806781Y-102964038D01*
X89819245Y-103002293D01*
X89840048Y-103051889D01*
X89847462Y-103067728D01*
X89879814Y-103138290D01*
X89914328Y-103218353D01*
X89942365Y-103287629D01*
X89962568Y-103339045D01*
X89978615Y-103378119D01*
X89987888Y-103398541D01*
X89989041Y-103400114D01*
X90006096Y-103402721D01*
X90046298Y-103409863D01*
X90104302Y-103420523D01*
X90174763Y-103433685D01*
X90252335Y-103448333D01*
X90331672Y-103463449D01*
X90407431Y-103478018D01*
X90474264Y-103491022D01*
X90526828Y-103501445D01*
X90559776Y-103508270D01*
X90567857Y-103510199D01*
X90576205Y-103514962D01*
X90582506Y-103525718D01*
X90587045Y-103546098D01*
X90590104Y-103579734D01*
X90591967Y-103630255D01*
X90592918Y-103701292D01*
X90593240Y-103796476D01*
X90593257Y-103835492D01*
X90593257Y-104152799D01*
X90517057Y-104167839D01*
X90474663Y-104175995D01*
X90411400Y-104187899D01*
X90334962Y-104202116D01*
X90253043Y-104217210D01*
X90230400Y-104221355D01*
X90154806Y-104236053D01*
X90088953Y-104250505D01*
X90038366Y-104263375D01*
X90008574Y-104273322D01*
X90003612Y-104276287D01*
X89991426Y-104297283D01*
X89973953Y-104337967D01*
X89954577Y-104390322D01*
X89950734Y-104401600D01*
X89925339Y-104471523D01*
X89893817Y-104550418D01*
X89862969Y-104621266D01*
X89862817Y-104621595D01*
X89811447Y-104732733D01*
X89980399Y-104981253D01*
X90149352Y-105229772D01*
X89932429Y-105447058D01*
X89866819Y-105511726D01*
X89806979Y-105568733D01*
X89756267Y-105615033D01*
X89718046Y-105647584D01*
X89695675Y-105663343D01*
X89692466Y-105664343D01*
X89673626Y-105656469D01*
X89635180Y-105634578D01*
X89581330Y-105601267D01*
X89516276Y-105559131D01*
X89445940Y-105511943D01*
X89374555Y-105463810D01*
X89310908Y-105421928D01*
X89259041Y-105388871D01*
X89222995Y-105367218D01*
X89206867Y-105359543D01*
X89187189Y-105366037D01*
X89149875Y-105383150D01*
X89102621Y-105407326D01*
X89097612Y-105410013D01*
X89033977Y-105441927D01*
X88990341Y-105457579D01*
X88963202Y-105457745D01*
X88949057Y-105443204D01*
X88948975Y-105443000D01*
X88941905Y-105425779D01*
X88925042Y-105384899D01*
X88899695Y-105323525D01*
X88867171Y-105244819D01*
X88828778Y-105151947D01*
X88785822Y-105048072D01*
X88744222Y-104947502D01*
X88698504Y-104836516D01*
X88656526Y-104733703D01*
X88619548Y-104642215D01*
X88588827Y-104565201D01*
X88565622Y-104505815D01*
X88551190Y-104467209D01*
X88546743Y-104452800D01*
X88557896Y-104436272D01*
X88587069Y-104409930D01*
X88625971Y-104380887D01*
X88736757Y-104289039D01*
X88823351Y-104183759D01*
X88884716Y-104067266D01*
X88919815Y-103941776D01*
X88927608Y-103809507D01*
X88921943Y-103748457D01*
X88891078Y-103621795D01*
X88837920Y-103509941D01*
X88765767Y-103414001D01*
X88677917Y-103335076D01*
X88577665Y-103274270D01*
X88468310Y-103232687D01*
X88353147Y-103211428D01*
X88235475Y-103211599D01*
X88118590Y-103234301D01*
X88005789Y-103280638D01*
X87900369Y-103351713D01*
X87856368Y-103391911D01*
X87771979Y-103495129D01*
X87713222Y-103607925D01*
X87679704Y-103727010D01*
X87671035Y-103849095D01*
X87686823Y-103970893D01*
X87726678Y-104089116D01*
X87790207Y-104200475D01*
X87877021Y-104301684D01*
X87974029Y-104380887D01*
X88014437Y-104411162D01*
X88042982Y-104437219D01*
X88053257Y-104452825D01*
X88047877Y-104469843D01*
X88032575Y-104510500D01*
X88008612Y-104571642D01*
X87977244Y-104650119D01*
X87939732Y-104742780D01*
X87897333Y-104846472D01*
X87855663Y-104947526D01*
X87809690Y-105058607D01*
X87767107Y-105161541D01*
X87729221Y-105253165D01*
X87697340Y-105330316D01*
X87672771Y-105389831D01*
X87656820Y-105428544D01*
X87650910Y-105443000D01*
X87636948Y-105457685D01*
X87609940Y-105457642D01*
X87566413Y-105442099D01*
X87502890Y-105410284D01*
X87502388Y-105410013D01*
X87454560Y-105385323D01*
X87415897Y-105367338D01*
X87394095Y-105359614D01*
X87393133Y-105359543D01*
X87376721Y-105367378D01*
X87340487Y-105389165D01*
X87288474Y-105422328D01*
X87224725Y-105464291D01*
X87154060Y-105511943D01*
X87082116Y-105560191D01*
X87017274Y-105602151D01*
X86963735Y-105635227D01*
X86925697Y-105656821D01*
X86907533Y-105664343D01*
X86890808Y-105654457D01*
X86857180Y-105626826D01*
X86810010Y-105584495D01*
X86752658Y-105530505D01*
X86688484Y-105467899D01*
X86667497Y-105446983D01*
X86450499Y-105229623D01*
X86615668Y-104987220D01*
X86665864Y-104912781D01*
X86709919Y-104845972D01*
X86745362Y-104790665D01*
X86769719Y-104750729D01*
X86780522Y-104730036D01*
X86780838Y-104728563D01*
X86775143Y-104709058D01*
X86759826Y-104669822D01*
X86737537Y-104617430D01*
X86721893Y-104582355D01*
X86692641Y-104515201D01*
X86665094Y-104447358D01*
X86643737Y-104390034D01*
X86637935Y-104372572D01*
X86621452Y-104325938D01*
X86605340Y-104289905D01*
X86596490Y-104276287D01*
X86576960Y-104267952D01*
X86534334Y-104256137D01*
X86474145Y-104242181D01*
X86401922Y-104227422D01*
X86369600Y-104221355D01*
X86287522Y-104206273D01*
X86208795Y-104191669D01*
X86141109Y-104178980D01*
X86092160Y-104169642D01*
X86082943Y-104167839D01*
X86006743Y-104152799D01*
X86006743Y-103835492D01*
X86006914Y-103731154D01*
X86007616Y-103652213D01*
X86009134Y-103595038D01*
X86011749Y-103555999D01*
X86015746Y-103531465D01*
X86021409Y-103517805D01*
X86029020Y-103511389D01*
X86032143Y-103510199D01*
X86050978Y-103505980D01*
X86092588Y-103497562D01*
X86151630Y-103485961D01*
X86222757Y-103472195D01*
X86300625Y-103457280D01*
X86379887Y-103442232D01*
X86455198Y-103428069D01*
X86521213Y-103415806D01*
X86572587Y-103406461D01*
X86603975Y-103401050D01*
X86610959Y-103400114D01*
X86617285Y-103387596D01*
X86631290Y-103354246D01*
X86650355Y-103306377D01*
X86657634Y-103287629D01*
X86686996Y-103215195D01*
X86721571Y-103135170D01*
X86752537Y-103067728D01*
X86775323Y-103016159D01*
X86790482Y-102973785D01*
X86795542Y-102947834D01*
X86794736Y-102944356D01*
X86784041Y-102927936D01*
X86759620Y-102891417D01*
X86724095Y-102838687D01*
X86680087Y-102773635D01*
X86630217Y-102700151D01*
X86620356Y-102685645D01*
X86562492Y-102599704D01*
X86519956Y-102534261D01*
X86491054Y-102486304D01*
X86474090Y-102452820D01*
X86467367Y-102430795D01*
X86469190Y-102417217D01*
X86469236Y-102417131D01*
X86483586Y-102399297D01*
X86515323Y-102364817D01*
X86561010Y-102317268D01*
X86617204Y-102260222D01*
X86680468Y-102197255D01*
X86687602Y-102190227D01*
X86767330Y-102113020D01*
X86828857Y-102056330D01*
X86873421Y-102019110D01*
X86902257Y-102000315D01*
X86914958Y-101997889D01*
X86933494Y-102008471D01*
X86971961Y-102032916D01*
X87026386Y-102068612D01*
X87092798Y-102112947D01*
X87167225Y-102163311D01*
X87184601Y-102175160D01*
X87431297Y-102343626D01*
X87542706Y-102293062D01*
X87610457Y-102263595D01*
X87683183Y-102233959D01*
X87745703Y-102210330D01*
X87748457Y-102209358D01*
X87797360Y-102191457D01*
X87835057Y-102176320D01*
X87853425Y-102167210D01*
X87853456Y-102167184D01*
X87859285Y-102150717D01*
X87869192Y-102110219D01*
X87882195Y-102050242D01*
X87897309Y-101975340D01*
X87913552Y-101890064D01*
X87914881Y-101882875D01*
X87931175Y-101795014D01*
X87946133Y-101715260D01*
X87958791Y-101648681D01*
X87968186Y-101600347D01*
X87973354Y-101575325D01*
X87973444Y-101574943D01*
X87976589Y-101564299D01*
X87982704Y-101556262D01*
X87995453Y-101550467D01*
X88018500Y-101546547D01*
X88055509Y-101544135D01*
X88110144Y-101542865D01*
X88186067Y-101542371D01*
X88286944Y-101542286D01*
X88300000Y-101542286D01*
X88403910Y-101542348D01*
D14*
G04 #@! TO.C,JP5*
X67210000Y-109960000D02*
X66880000Y-109960000D01*
X66880000Y-109960000D02*
X66880000Y-103420000D01*
X66880000Y-103420000D02*
X67210000Y-103420000D01*
X69290000Y-109960000D02*
X69620000Y-109960000D01*
X69620000Y-109960000D02*
X69620000Y-103420000D01*
X69620000Y-103420000D02*
X69290000Y-103420000D01*
G04 #@! TO.C,R1*
X104170000Y-101710000D02*
X104170000Y-101380000D01*
X104170000Y-101380000D02*
X110710000Y-101380000D01*
X110710000Y-101380000D02*
X110710000Y-101710000D01*
X104170000Y-103790000D02*
X104170000Y-104120000D01*
X104170000Y-104120000D02*
X110710000Y-104120000D01*
X110710000Y-104120000D02*
X110710000Y-103790000D01*
G04 #@! TO.C,JP2*
X106120000Y-117850000D02*
X103380000Y-117850000D01*
X103380000Y-117850000D02*
X103380000Y-124390000D01*
X103380000Y-124390000D02*
X106120000Y-124390000D01*
X106120000Y-124390000D02*
X106120000Y-117850000D01*
X104750000Y-114540000D02*
X104750000Y-117850000D01*
X104750000Y-127700000D02*
X104750000Y-124390000D01*
G04 #@! TO.C,JP1*
X102870000Y-120060000D02*
X100130000Y-120060000D01*
X100130000Y-120060000D02*
X100130000Y-126600000D01*
X100130000Y-126600000D02*
X102870000Y-126600000D01*
X102870000Y-126600000D02*
X102870000Y-120060000D01*
X101500000Y-119290000D02*
X101500000Y-120060000D01*
X101500000Y-127370000D02*
X101500000Y-126600000D01*
G04 #@! TO.C,R8*
X91060000Y-121370000D02*
X91060000Y-118630000D01*
X91060000Y-118630000D02*
X84520000Y-118630000D01*
X84520000Y-118630000D02*
X84520000Y-121370000D01*
X84520000Y-121370000D02*
X91060000Y-121370000D01*
X91830000Y-120000000D02*
X91060000Y-120000000D01*
X83750000Y-120000000D02*
X84520000Y-120000000D01*
G04 #@! TO.C,R7*
X91060000Y-124620000D02*
X91060000Y-121880000D01*
X91060000Y-121880000D02*
X84520000Y-121880000D01*
X84520000Y-121880000D02*
X84520000Y-124620000D01*
X84520000Y-124620000D02*
X91060000Y-124620000D01*
X91830000Y-123250000D02*
X91060000Y-123250000D01*
X83750000Y-123250000D02*
X84520000Y-123250000D01*
G04 #@! TO.C,R6*
X91060000Y-127870000D02*
X91060000Y-125130000D01*
X91060000Y-125130000D02*
X84520000Y-125130000D01*
X84520000Y-125130000D02*
X84520000Y-127870000D01*
X84520000Y-127870000D02*
X91060000Y-127870000D01*
X91830000Y-126500000D02*
X91060000Y-126500000D01*
X83750000Y-126500000D02*
X84520000Y-126500000D01*
G04 #@! TO.C,U5*
X62560000Y-120400000D02*
X60910000Y-120400000D01*
X60910000Y-120400000D02*
X60910000Y-156080000D01*
X60910000Y-156080000D02*
X66210000Y-156080000D01*
X66210000Y-156080000D02*
X66210000Y-120400000D01*
X66210000Y-120400000D02*
X64560000Y-120400000D01*
X58420000Y-120340000D02*
X58420000Y-156140000D01*
X58420000Y-156140000D02*
X68700000Y-156140000D01*
X68700000Y-156140000D02*
X68700000Y-120340000D01*
X68700000Y-120340000D02*
X58420000Y-120340000D01*
X64560000Y-120400000D02*
G75*
G02*
X62560000Y-120400000I-1000000J0D01*
G01*
G04 #@! TO.C,JP4*
X88650000Y-128130000D02*
X88650000Y-130870000D01*
X88650000Y-130870000D02*
X95190000Y-130870000D01*
X95190000Y-130870000D02*
X95190000Y-128130000D01*
X95190000Y-128130000D02*
X88650000Y-128130000D01*
X87880000Y-129500000D02*
X88650000Y-129500000D01*
X95960000Y-129500000D02*
X95190000Y-129500000D01*
G04 #@! TO.C,U1*
X96390000Y-117950000D02*
X96390000Y-107670000D01*
X70750000Y-117950000D02*
X96390000Y-117950000D01*
X70750000Y-107670000D02*
X70750000Y-117950000D01*
X96390000Y-107670000D02*
X70750000Y-107670000D01*
X96330000Y-115460000D02*
X96330000Y-113810000D01*
X70810000Y-115460000D02*
X96330000Y-115460000D01*
X70810000Y-110160000D02*
X70810000Y-115460000D01*
X96330000Y-110160000D02*
X70810000Y-110160000D01*
X96330000Y-111810000D02*
X96330000Y-110160000D01*
X96330000Y-113810000D02*
G75*
G02*
X96330000Y-111810000I0J1000000D01*
G01*
G04 #@! TO.C,J2*
X73170000Y-157450000D02*
X75830000Y-157450000D01*
X73170000Y-137070000D02*
X73170000Y-157450000D01*
X75830000Y-137070000D02*
X75830000Y-157450000D01*
X73170000Y-137070000D02*
X75830000Y-137070000D01*
X73170000Y-135800000D02*
X73170000Y-134470000D01*
X73170000Y-134470000D02*
X74500000Y-134470000D01*
G04 #@! TO.C,U6*
X86950000Y-131860000D02*
X76670000Y-131860000D01*
X86950000Y-157500000D02*
X86950000Y-131860000D01*
X76670000Y-157500000D02*
X86950000Y-157500000D01*
X76670000Y-131860000D02*
X76670000Y-157500000D01*
X84460000Y-131920000D02*
X82810000Y-131920000D01*
X84460000Y-157440000D02*
X84460000Y-131920000D01*
X79160000Y-157440000D02*
X84460000Y-157440000D01*
X79160000Y-131920000D02*
X79160000Y-157440000D01*
X80810000Y-131920000D02*
X79160000Y-131920000D01*
X82810000Y-131920000D02*
G75*
G02*
X80810000Y-131920000I-1000000J0D01*
G01*
G04 #@! TO.C,Q1*
X96780000Y-102400000D02*
X93180000Y-102400000D01*
X96818478Y-102411522D02*
G75*
G02*
X94980000Y-106850000I-1838478J-1838478D01*
G01*
X93141522Y-102411522D02*
G75*
G03*
X94980000Y-106850000I1838478J-1838478D01*
G01*
G04 #@! TO.C,JP7*
X90370000Y-132540000D02*
X90040000Y-132540000D01*
X90370000Y-139080000D02*
X90370000Y-132540000D01*
X90040000Y-139080000D02*
X90370000Y-139080000D01*
X87630000Y-132540000D02*
X87960000Y-132540000D01*
X87630000Y-139080000D02*
X87630000Y-132540000D01*
X87960000Y-139080000D02*
X87630000Y-139080000D01*
G04 #@! TO.C,JP3*
X113150000Y-134380000D02*
X113150000Y-137120000D01*
X113150000Y-137120000D02*
X119690000Y-137120000D01*
X119690000Y-137120000D02*
X119690000Y-134380000D01*
X119690000Y-134380000D02*
X113150000Y-134380000D01*
X112380000Y-135750000D02*
X113150000Y-135750000D01*
X120460000Y-135750000D02*
X119690000Y-135750000D01*
G04 #@! TO.C,JP6*
X110290000Y-150040000D02*
X110620000Y-150040000D01*
X110620000Y-150040000D02*
X110620000Y-156580000D01*
X110620000Y-156580000D02*
X110290000Y-156580000D01*
X108210000Y-150040000D02*
X107880000Y-150040000D01*
X107880000Y-150040000D02*
X107880000Y-156580000D01*
X107880000Y-156580000D02*
X108210000Y-156580000D01*
G04 #@! TO.C,R2*
X102290000Y-103920000D02*
X102620000Y-103920000D01*
X102620000Y-103920000D02*
X102620000Y-110460000D01*
X102620000Y-110460000D02*
X102290000Y-110460000D01*
X100210000Y-103920000D02*
X99880000Y-103920000D01*
X99880000Y-103920000D02*
X99880000Y-110460000D01*
X99880000Y-110460000D02*
X100210000Y-110460000D01*
G04 #@! TO.C,J5*
X80370000Y-128330000D02*
X80370000Y-125670000D01*
X77770000Y-128330000D02*
X80370000Y-128330000D01*
X77770000Y-125670000D02*
X80370000Y-125670000D01*
X77770000Y-128330000D02*
X77770000Y-125670000D01*
X76500000Y-128330000D02*
X75170000Y-128330000D01*
X75170000Y-128330000D02*
X75170000Y-127000000D01*
G04 #@! TO.C,J3*
X109330000Y-120800000D02*
X106670000Y-120800000D01*
X109330000Y-128480000D02*
X109330000Y-120800000D01*
X106670000Y-128480000D02*
X106670000Y-120800000D01*
X109330000Y-128480000D02*
X106670000Y-128480000D01*
X109330000Y-129750000D02*
X109330000Y-131080000D01*
X109330000Y-131080000D02*
X108000000Y-131080000D01*
G04 #@! TO.C,U2*
X100960000Y-135820000D02*
X99310000Y-135820000D01*
X99310000Y-135820000D02*
X99310000Y-156260000D01*
X99310000Y-156260000D02*
X104610000Y-156260000D01*
X104610000Y-156260000D02*
X104610000Y-135820000D01*
X104610000Y-135820000D02*
X102960000Y-135820000D01*
X96820000Y-135760000D02*
X96820000Y-156320000D01*
X96820000Y-156320000D02*
X107100000Y-156320000D01*
X107100000Y-156320000D02*
X107100000Y-135760000D01*
X107100000Y-135760000D02*
X96820000Y-135760000D01*
X102960000Y-135820000D02*
G75*
G02*
X100960000Y-135820000I-1000000J0D01*
G01*
G04 #@! TO.C,C2*
X110670000Y-140730000D02*
X107830000Y-140730000D01*
X107830000Y-140730000D02*
X107830000Y-144770000D01*
X107830000Y-144770000D02*
X110670000Y-144770000D01*
X110670000Y-144770000D02*
X110670000Y-140730000D01*
X109250000Y-140040000D02*
X109250000Y-140730000D01*
X109250000Y-145460000D02*
X109250000Y-144770000D01*
G04 #@! TO.C,C1*
X96830000Y-114770000D02*
X99670000Y-114770000D01*
X99670000Y-114770000D02*
X99670000Y-110730000D01*
X99670000Y-110730000D02*
X96830000Y-110730000D01*
X96830000Y-110730000D02*
X96830000Y-114770000D01*
X98250000Y-115460000D02*
X98250000Y-114770000D01*
X98250000Y-110040000D02*
X98250000Y-110730000D01*
G04 #@! TO.C,R14*
X63210000Y-115830000D02*
X62880000Y-115830000D01*
X62880000Y-115830000D02*
X62880000Y-109290000D01*
X62880000Y-109290000D02*
X63210000Y-109290000D01*
X65290000Y-115830000D02*
X65620000Y-115830000D01*
X65620000Y-115830000D02*
X65620000Y-109290000D01*
X65620000Y-109290000D02*
X65290000Y-109290000D01*
G04 #@! TO.C,J1*
X94080000Y-134430000D02*
X91420000Y-134430000D01*
X94080000Y-152270000D02*
X94080000Y-134430000D01*
X91420000Y-152270000D02*
X91420000Y-134430000D01*
X94080000Y-152270000D02*
X91420000Y-152270000D01*
X94080000Y-153540000D02*
X94080000Y-154870000D01*
X94080000Y-154870000D02*
X92750000Y-154870000D01*
G04 #@! TO.C,R15*
X69960000Y-129960000D02*
X69630000Y-129960000D01*
X69630000Y-129960000D02*
X69630000Y-123420000D01*
X69630000Y-123420000D02*
X69960000Y-123420000D01*
X72040000Y-129960000D02*
X72370000Y-129960000D01*
X72370000Y-129960000D02*
X72370000Y-123420000D01*
X72370000Y-123420000D02*
X72040000Y-123420000D01*
G04 #@! TO.C,R10*
X52710000Y-132330000D02*
X52380000Y-132330000D01*
X52380000Y-132330000D02*
X52380000Y-125790000D01*
X52380000Y-125790000D02*
X52710000Y-125790000D01*
X54790000Y-132330000D02*
X55120000Y-132330000D01*
X55120000Y-132330000D02*
X55120000Y-125790000D01*
X55120000Y-125790000D02*
X54790000Y-125790000D01*
G04 #@! TO.C,R9*
X57290000Y-148040000D02*
X57620000Y-148040000D01*
X57620000Y-148040000D02*
X57620000Y-154580000D01*
X57620000Y-154580000D02*
X57290000Y-154580000D01*
X55210000Y-148040000D02*
X54880000Y-148040000D01*
X54880000Y-148040000D02*
X54880000Y-154580000D01*
X54880000Y-154580000D02*
X55210000Y-154580000D01*
G04 #@! TO.C,R5*
X105210000Y-135370000D02*
X105210000Y-135040000D01*
X98670000Y-135370000D02*
X105210000Y-135370000D01*
X98670000Y-135040000D02*
X98670000Y-135370000D01*
X105210000Y-132630000D02*
X105210000Y-132960000D01*
X98670000Y-132630000D02*
X105210000Y-132630000D01*
X98670000Y-132960000D02*
X98670000Y-132630000D01*
G04 #@! TO.C,R4*
X113290000Y-116210000D02*
X113290000Y-115880000D01*
X113290000Y-115880000D02*
X119830000Y-115880000D01*
X119830000Y-115880000D02*
X119830000Y-116210000D01*
X113290000Y-118290000D02*
X113290000Y-118620000D01*
X113290000Y-118620000D02*
X119830000Y-118620000D01*
X119830000Y-118620000D02*
X119830000Y-118290000D01*
G04 #@! TO.C,R3*
X113290000Y-112960000D02*
X113290000Y-112630000D01*
X113290000Y-112630000D02*
X119830000Y-112630000D01*
X119830000Y-112630000D02*
X119830000Y-112960000D01*
X113290000Y-115040000D02*
X113290000Y-115370000D01*
X113290000Y-115370000D02*
X119830000Y-115370000D01*
X119830000Y-115370000D02*
X119830000Y-115040000D01*
G04 #@! TO.C,D2*
X112764000Y-108290000D02*
X112920000Y-108290000D01*
X115080000Y-108290000D02*
X115236000Y-108290000D01*
X115079837Y-105688870D02*
G75*
G02*
X115080000Y-107770961I-1079837J-1041130D01*
G01*
X112920163Y-105688870D02*
G75*
G03*
X112920000Y-107770961I1079837J-1041130D01*
G01*
X115078608Y-105057665D02*
G75*
G02*
X115235516Y-108290000I-1078608J-1672335D01*
G01*
X112921392Y-105057665D02*
G75*
G03*
X112764484Y-108290000I1078608J-1672335D01*
G01*
G04 #@! TO.C,D1*
X118014000Y-108290000D02*
X118170000Y-108290000D01*
X120330000Y-108290000D02*
X120486000Y-108290000D01*
X120329837Y-105688870D02*
G75*
G02*
X120330000Y-107770961I-1079837J-1041130D01*
G01*
X118170163Y-105688870D02*
G75*
G03*
X118170000Y-107770961I1079837J-1041130D01*
G01*
X120328608Y-105057665D02*
G75*
G02*
X120485516Y-108290000I-1078608J-1672335D01*
G01*
X118171392Y-105057665D02*
G75*
G03*
X118014484Y-108290000I1078608J-1672335D01*
G01*
G04 #@! TO.C,J4*
X111160000Y-109080000D02*
X111160000Y-106420000D01*
X106020000Y-109080000D02*
X111160000Y-109080000D01*
X106020000Y-106420000D02*
X111160000Y-106420000D01*
X106020000Y-109080000D02*
X106020000Y-106420000D01*
X104750000Y-109080000D02*
X103420000Y-109080000D01*
X103420000Y-109080000D02*
X103420000Y-107750000D01*
G04 #@! TO.C,U4*
X112050000Y-156390000D02*
X122330000Y-156390000D01*
X112050000Y-138370000D02*
X112050000Y-156390000D01*
X122330000Y-138370000D02*
X112050000Y-138370000D01*
X122330000Y-156390000D02*
X122330000Y-138370000D01*
X114540000Y-156330000D02*
X116190000Y-156330000D01*
X114540000Y-138430000D02*
X114540000Y-156330000D01*
X119840000Y-138430000D02*
X114540000Y-138430000D01*
X119840000Y-156330000D02*
X119840000Y-138430000D01*
X118190000Y-156330000D02*
X119840000Y-156330000D01*
X116190000Y-156330000D02*
G75*
G02*
X118190000Y-156330000I1000000J0D01*
G01*
G04 #@! TO.C,U3*
X112050000Y-132890000D02*
X122330000Y-132890000D01*
X112050000Y-122490000D02*
X112050000Y-132890000D01*
X122330000Y-122490000D02*
X112050000Y-122490000D01*
X122330000Y-132890000D02*
X122330000Y-122490000D01*
X114540000Y-132830000D02*
X116190000Y-132830000D01*
X114540000Y-122550000D02*
X114540000Y-132830000D01*
X119840000Y-122550000D02*
X114540000Y-122550000D01*
X119840000Y-132830000D02*
X119840000Y-122550000D01*
X118190000Y-132830000D02*
X119840000Y-132830000D01*
X116190000Y-132830000D02*
G75*
G02*
X118190000Y-132830000I1000000J0D01*
G01*
G04 #@! TO.C,R13*
X59960000Y-115830000D02*
X59630000Y-115830000D01*
X59630000Y-115830000D02*
X59630000Y-109290000D01*
X59630000Y-109290000D02*
X59960000Y-109290000D01*
X62040000Y-115830000D02*
X62370000Y-115830000D01*
X62370000Y-115830000D02*
X62370000Y-109290000D01*
X62370000Y-109290000D02*
X62040000Y-109290000D01*
G04 #@! TO.C,R12*
X59120000Y-109290000D02*
X58790000Y-109290000D01*
X59120000Y-115830000D02*
X59120000Y-109290000D01*
X58790000Y-115830000D02*
X59120000Y-115830000D01*
X56380000Y-109290000D02*
X56710000Y-109290000D01*
X56380000Y-115830000D02*
X56380000Y-109290000D01*
X56710000Y-115830000D02*
X56380000Y-115830000D01*
G04 #@! TO.C,R11*
X55210000Y-142960000D02*
X54880000Y-142960000D01*
X54880000Y-142960000D02*
X54880000Y-136420000D01*
X54880000Y-136420000D02*
X55210000Y-136420000D01*
X57290000Y-142960000D02*
X57620000Y-142960000D01*
X57620000Y-142960000D02*
X57620000Y-136420000D01*
X57620000Y-136420000D02*
X57290000Y-136420000D01*
G04 #@! TO.C,JP5*
D10*
X67652380Y-107523333D02*
X68366666Y-107523333D01*
X68509523Y-107570952D01*
X68604761Y-107666190D01*
X68652380Y-107809047D01*
X68652380Y-107904285D01*
X68652380Y-107047142D02*
X67652380Y-107047142D01*
X67652380Y-106666190D01*
X67700000Y-106570952D01*
X67747619Y-106523333D01*
X67842857Y-106475714D01*
X67985714Y-106475714D01*
X68080952Y-106523333D01*
X68128571Y-106570952D01*
X68176190Y-106666190D01*
X68176190Y-107047142D01*
X67652380Y-105570952D02*
X67652380Y-106047142D01*
X68128571Y-106094761D01*
X68080952Y-106047142D01*
X68033333Y-105951904D01*
X68033333Y-105713809D01*
X68080952Y-105618571D01*
X68128571Y-105570952D01*
X68223809Y-105523333D01*
X68461904Y-105523333D01*
X68557142Y-105570952D01*
X68604761Y-105618571D01*
X68652380Y-105713809D01*
X68652380Y-105951904D01*
X68604761Y-106047142D01*
X68557142Y-106094761D01*
G04 #@! TO.C,R1*
X112733333Y-101852380D02*
X112400000Y-101376190D01*
X112161904Y-101852380D02*
X112161904Y-100852380D01*
X112542857Y-100852380D01*
X112638095Y-100900000D01*
X112685714Y-100947619D01*
X112733333Y-101042857D01*
X112733333Y-101185714D01*
X112685714Y-101280952D01*
X112638095Y-101328571D01*
X112542857Y-101376190D01*
X112161904Y-101376190D01*
X113685714Y-101852380D02*
X113114285Y-101852380D01*
X113400000Y-101852380D02*
X113400000Y-100852380D01*
X113304761Y-100995238D01*
X113209523Y-101090476D01*
X113114285Y-101138095D01*
X106844285Y-103202380D02*
X106272857Y-103202380D01*
X106558571Y-103202380D02*
X106558571Y-102202380D01*
X106463333Y-102345238D01*
X106368095Y-102440476D01*
X106272857Y-102488095D01*
X107272857Y-103202380D02*
X107272857Y-102202380D01*
X107844285Y-103202380D02*
X107415714Y-102630952D01*
X107844285Y-102202380D02*
X107272857Y-102773809D01*
X108225238Y-103202380D02*
X108463333Y-103202380D01*
X108463333Y-103011904D01*
X108368095Y-102964285D01*
X108272857Y-102869047D01*
X108225238Y-102726190D01*
X108225238Y-102488095D01*
X108272857Y-102345238D01*
X108368095Y-102250000D01*
X108510952Y-102202380D01*
X108701428Y-102202380D01*
X108844285Y-102250000D01*
X108939523Y-102345238D01*
X108987142Y-102488095D01*
X108987142Y-102726190D01*
X108939523Y-102869047D01*
X108844285Y-102964285D01*
X108749047Y-103011904D01*
X108749047Y-103202380D01*
X108987142Y-103202380D01*
G04 #@! TO.C,JP2*
X104202380Y-121833333D02*
X104916666Y-121833333D01*
X105059523Y-121880952D01*
X105154761Y-121976190D01*
X105202380Y-122119047D01*
X105202380Y-122214285D01*
X105202380Y-121357142D02*
X104202380Y-121357142D01*
X104202380Y-120976190D01*
X104250000Y-120880952D01*
X104297619Y-120833333D01*
X104392857Y-120785714D01*
X104535714Y-120785714D01*
X104630952Y-120833333D01*
X104678571Y-120880952D01*
X104726190Y-120976190D01*
X104726190Y-121357142D01*
X104297619Y-120404761D02*
X104250000Y-120357142D01*
X104202380Y-120261904D01*
X104202380Y-120023809D01*
X104250000Y-119928571D01*
X104297619Y-119880952D01*
X104392857Y-119833333D01*
X104488095Y-119833333D01*
X104630952Y-119880952D01*
X105202380Y-120452380D01*
X105202380Y-119833333D01*
G04 #@! TO.C,JP1*
X100952380Y-124083333D02*
X101666666Y-124083333D01*
X101809523Y-124130952D01*
X101904761Y-124226190D01*
X101952380Y-124369047D01*
X101952380Y-124464285D01*
X101952380Y-123607142D02*
X100952380Y-123607142D01*
X100952380Y-123226190D01*
X101000000Y-123130952D01*
X101047619Y-123083333D01*
X101142857Y-123035714D01*
X101285714Y-123035714D01*
X101380952Y-123083333D01*
X101428571Y-123130952D01*
X101476190Y-123226190D01*
X101476190Y-123607142D01*
X101952380Y-122083333D02*
X101952380Y-122654761D01*
X101952380Y-122369047D02*
X100952380Y-122369047D01*
X101095238Y-122464285D01*
X101190476Y-122559523D01*
X101238095Y-122654761D01*
G04 #@! TO.C,R8*
X95083333Y-120452380D02*
X94750000Y-119976190D01*
X94511904Y-120452380D02*
X94511904Y-119452380D01*
X94892857Y-119452380D01*
X94988095Y-119500000D01*
X95035714Y-119547619D01*
X95083333Y-119642857D01*
X95083333Y-119785714D01*
X95035714Y-119880952D01*
X94988095Y-119928571D01*
X94892857Y-119976190D01*
X94511904Y-119976190D01*
X95654761Y-119880952D02*
X95559523Y-119833333D01*
X95511904Y-119785714D01*
X95464285Y-119690476D01*
X95464285Y-119642857D01*
X95511904Y-119547619D01*
X95559523Y-119500000D01*
X95654761Y-119452380D01*
X95845238Y-119452380D01*
X95940476Y-119500000D01*
X95988095Y-119547619D01*
X96035714Y-119642857D01*
X96035714Y-119690476D01*
X95988095Y-119785714D01*
X95940476Y-119833333D01*
X95845238Y-119880952D01*
X95654761Y-119880952D01*
X95559523Y-119928571D01*
X95511904Y-119976190D01*
X95464285Y-120071428D01*
X95464285Y-120261904D01*
X95511904Y-120357142D01*
X95559523Y-120404761D01*
X95654761Y-120452380D01*
X95845238Y-120452380D01*
X95940476Y-120404761D01*
X95988095Y-120357142D01*
X96035714Y-120261904D01*
X96035714Y-120071428D01*
X95988095Y-119976190D01*
X95940476Y-119928571D01*
X95845238Y-119880952D01*
X86964285Y-120452380D02*
X86392857Y-120452380D01*
X86678571Y-120452380D02*
X86678571Y-119452380D01*
X86583333Y-119595238D01*
X86488095Y-119690476D01*
X86392857Y-119738095D01*
X87392857Y-120452380D02*
X87392857Y-119452380D01*
X87964285Y-120452380D02*
X87535714Y-119880952D01*
X87964285Y-119452380D02*
X87392857Y-120023809D01*
X88345238Y-120452380D02*
X88583333Y-120452380D01*
X88583333Y-120261904D01*
X88488095Y-120214285D01*
X88392857Y-120119047D01*
X88345238Y-119976190D01*
X88345238Y-119738095D01*
X88392857Y-119595238D01*
X88488095Y-119500000D01*
X88630952Y-119452380D01*
X88821428Y-119452380D01*
X88964285Y-119500000D01*
X89059523Y-119595238D01*
X89107142Y-119738095D01*
X89107142Y-119976190D01*
X89059523Y-120119047D01*
X88964285Y-120214285D01*
X88869047Y-120261904D01*
X88869047Y-120452380D01*
X89107142Y-120452380D01*
G04 #@! TO.C,R7*
X95083333Y-123702380D02*
X94750000Y-123226190D01*
X94511904Y-123702380D02*
X94511904Y-122702380D01*
X94892857Y-122702380D01*
X94988095Y-122750000D01*
X95035714Y-122797619D01*
X95083333Y-122892857D01*
X95083333Y-123035714D01*
X95035714Y-123130952D01*
X94988095Y-123178571D01*
X94892857Y-123226190D01*
X94511904Y-123226190D01*
X95416666Y-122702380D02*
X96083333Y-122702380D01*
X95654761Y-123702380D01*
X86964285Y-123702380D02*
X86392857Y-123702380D01*
X86678571Y-123702380D02*
X86678571Y-122702380D01*
X86583333Y-122845238D01*
X86488095Y-122940476D01*
X86392857Y-122988095D01*
X87392857Y-123702380D02*
X87392857Y-122702380D01*
X87964285Y-123702380D02*
X87535714Y-123130952D01*
X87964285Y-122702380D02*
X87392857Y-123273809D01*
X88345238Y-123702380D02*
X88583333Y-123702380D01*
X88583333Y-123511904D01*
X88488095Y-123464285D01*
X88392857Y-123369047D01*
X88345238Y-123226190D01*
X88345238Y-122988095D01*
X88392857Y-122845238D01*
X88488095Y-122750000D01*
X88630952Y-122702380D01*
X88821428Y-122702380D01*
X88964285Y-122750000D01*
X89059523Y-122845238D01*
X89107142Y-122988095D01*
X89107142Y-123226190D01*
X89059523Y-123369047D01*
X88964285Y-123464285D01*
X88869047Y-123511904D01*
X88869047Y-123702380D01*
X89107142Y-123702380D01*
G04 #@! TO.C,R6*
X95083333Y-126952380D02*
X94750000Y-126476190D01*
X94511904Y-126952380D02*
X94511904Y-125952380D01*
X94892857Y-125952380D01*
X94988095Y-126000000D01*
X95035714Y-126047619D01*
X95083333Y-126142857D01*
X95083333Y-126285714D01*
X95035714Y-126380952D01*
X94988095Y-126428571D01*
X94892857Y-126476190D01*
X94511904Y-126476190D01*
X95940476Y-125952380D02*
X95750000Y-125952380D01*
X95654761Y-126000000D01*
X95607142Y-126047619D01*
X95511904Y-126190476D01*
X95464285Y-126380952D01*
X95464285Y-126761904D01*
X95511904Y-126857142D01*
X95559523Y-126904761D01*
X95654761Y-126952380D01*
X95845238Y-126952380D01*
X95940476Y-126904761D01*
X95988095Y-126857142D01*
X96035714Y-126761904D01*
X96035714Y-126523809D01*
X95988095Y-126428571D01*
X95940476Y-126380952D01*
X95845238Y-126333333D01*
X95654761Y-126333333D01*
X95559523Y-126380952D01*
X95511904Y-126428571D01*
X95464285Y-126523809D01*
X86964285Y-126952380D02*
X86392857Y-126952380D01*
X86678571Y-126952380D02*
X86678571Y-125952380D01*
X86583333Y-126095238D01*
X86488095Y-126190476D01*
X86392857Y-126238095D01*
X87392857Y-126952380D02*
X87392857Y-125952380D01*
X87964285Y-126952380D02*
X87535714Y-126380952D01*
X87964285Y-125952380D02*
X87392857Y-126523809D01*
X88345238Y-126952380D02*
X88583333Y-126952380D01*
X88583333Y-126761904D01*
X88488095Y-126714285D01*
X88392857Y-126619047D01*
X88345238Y-126476190D01*
X88345238Y-126238095D01*
X88392857Y-126095238D01*
X88488095Y-126000000D01*
X88630952Y-125952380D01*
X88821428Y-125952380D01*
X88964285Y-126000000D01*
X89059523Y-126095238D01*
X89107142Y-126238095D01*
X89107142Y-126476190D01*
X89059523Y-126619047D01*
X88964285Y-126714285D01*
X88869047Y-126761904D01*
X88869047Y-126952380D01*
X89107142Y-126952380D01*
G04 #@! TO.C,U5*
X56038095Y-121152380D02*
X56038095Y-121961904D01*
X56085714Y-122057142D01*
X56133333Y-122104761D01*
X56228571Y-122152380D01*
X56419047Y-122152380D01*
X56514285Y-122104761D01*
X56561904Y-122057142D01*
X56609523Y-121961904D01*
X56609523Y-121152380D01*
X57561904Y-121152380D02*
X57085714Y-121152380D01*
X57038095Y-121628571D01*
X57085714Y-121580952D01*
X57180952Y-121533333D01*
X57419047Y-121533333D01*
X57514285Y-121580952D01*
X57561904Y-121628571D01*
X57609523Y-121723809D01*
X57609523Y-121961904D01*
X57561904Y-122057142D01*
X57514285Y-122104761D01*
X57419047Y-122152380D01*
X57180952Y-122152380D01*
X57085714Y-122104761D01*
X57038095Y-122057142D01*
G04 #@! TO.C,JP4*
X91166666Y-128952380D02*
X91166666Y-129666666D01*
X91119047Y-129809523D01*
X91023809Y-129904761D01*
X90880952Y-129952380D01*
X90785714Y-129952380D01*
X91642857Y-129952380D02*
X91642857Y-128952380D01*
X92023809Y-128952380D01*
X92119047Y-129000000D01*
X92166666Y-129047619D01*
X92214285Y-129142857D01*
X92214285Y-129285714D01*
X92166666Y-129380952D01*
X92119047Y-129428571D01*
X92023809Y-129476190D01*
X91642857Y-129476190D01*
X93071428Y-129285714D02*
X93071428Y-129952380D01*
X92833333Y-128904761D02*
X92595238Y-129619047D01*
X93214285Y-129619047D01*
G04 #@! TO.C,U1*
X68738095Y-116352380D02*
X68738095Y-117161904D01*
X68785714Y-117257142D01*
X68833333Y-117304761D01*
X68928571Y-117352380D01*
X69119047Y-117352380D01*
X69214285Y-117304761D01*
X69261904Y-117257142D01*
X69309523Y-117161904D01*
X69309523Y-116352380D01*
X70309523Y-117352380D02*
X69738095Y-117352380D01*
X70023809Y-117352380D02*
X70023809Y-116352380D01*
X69928571Y-116495238D01*
X69833333Y-116590476D01*
X69738095Y-116638095D01*
G04 #@! TO.C,J2*
X74166666Y-157952380D02*
X74166666Y-158666666D01*
X74119047Y-158809523D01*
X74023809Y-158904761D01*
X73880952Y-158952380D01*
X73785714Y-158952380D01*
X74595238Y-158047619D02*
X74642857Y-158000000D01*
X74738095Y-157952380D01*
X74976190Y-157952380D01*
X75071428Y-158000000D01*
X75119047Y-158047619D01*
X75166666Y-158142857D01*
X75166666Y-158238095D01*
X75119047Y-158380952D01*
X74547619Y-158952380D01*
X75166666Y-158952380D01*
G04 #@! TO.C,U6*
X87638095Y-155702380D02*
X87638095Y-156511904D01*
X87685714Y-156607142D01*
X87733333Y-156654761D01*
X87828571Y-156702380D01*
X88019047Y-156702380D01*
X88114285Y-156654761D01*
X88161904Y-156607142D01*
X88209523Y-156511904D01*
X88209523Y-155702380D01*
X89114285Y-155702380D02*
X88923809Y-155702380D01*
X88828571Y-155750000D01*
X88780952Y-155797619D01*
X88685714Y-155940476D01*
X88638095Y-156130952D01*
X88638095Y-156511904D01*
X88685714Y-156607142D01*
X88733333Y-156654761D01*
X88828571Y-156702380D01*
X89019047Y-156702380D01*
X89114285Y-156654761D01*
X89161904Y-156607142D01*
X89209523Y-156511904D01*
X89209523Y-156273809D01*
X89161904Y-156178571D01*
X89114285Y-156130952D01*
X89019047Y-156083333D01*
X88828571Y-156083333D01*
X88733333Y-156130952D01*
X88685714Y-156178571D01*
X88638095Y-156273809D01*
G04 #@! TO.C,Q1*
X98364761Y-103047619D02*
X98269523Y-103000000D01*
X98174285Y-102904761D01*
X98031428Y-102761904D01*
X97936190Y-102714285D01*
X97840952Y-102714285D01*
X97888571Y-102952380D02*
X97793333Y-102904761D01*
X97698095Y-102809523D01*
X97650476Y-102619047D01*
X97650476Y-102285714D01*
X97698095Y-102095238D01*
X97793333Y-102000000D01*
X97888571Y-101952380D01*
X98079047Y-101952380D01*
X98174285Y-102000000D01*
X98269523Y-102095238D01*
X98317142Y-102285714D01*
X98317142Y-102619047D01*
X98269523Y-102809523D01*
X98174285Y-102904761D01*
X98079047Y-102952380D01*
X97888571Y-102952380D01*
X99269523Y-102952380D02*
X98698095Y-102952380D01*
X98983809Y-102952380D02*
X98983809Y-101952380D01*
X98888571Y-102095238D01*
X98793333Y-102190476D01*
X98698095Y-102238095D01*
G04 #@! TO.C,JP7*
X88452380Y-136643333D02*
X89166666Y-136643333D01*
X89309523Y-136690952D01*
X89404761Y-136786190D01*
X89452380Y-136929047D01*
X89452380Y-137024285D01*
X89452380Y-136167142D02*
X88452380Y-136167142D01*
X88452380Y-135786190D01*
X88500000Y-135690952D01*
X88547619Y-135643333D01*
X88642857Y-135595714D01*
X88785714Y-135595714D01*
X88880952Y-135643333D01*
X88928571Y-135690952D01*
X88976190Y-135786190D01*
X88976190Y-136167142D01*
X88452380Y-135262380D02*
X88452380Y-134595714D01*
X89452380Y-135024285D01*
G04 #@! TO.C,JP3*
X115586666Y-135202380D02*
X115586666Y-135916666D01*
X115539047Y-136059523D01*
X115443809Y-136154761D01*
X115300952Y-136202380D01*
X115205714Y-136202380D01*
X116062857Y-136202380D02*
X116062857Y-135202380D01*
X116443809Y-135202380D01*
X116539047Y-135250000D01*
X116586666Y-135297619D01*
X116634285Y-135392857D01*
X116634285Y-135535714D01*
X116586666Y-135630952D01*
X116539047Y-135678571D01*
X116443809Y-135726190D01*
X116062857Y-135726190D01*
X116967619Y-135202380D02*
X117586666Y-135202380D01*
X117253333Y-135583333D01*
X117396190Y-135583333D01*
X117491428Y-135630952D01*
X117539047Y-135678571D01*
X117586666Y-135773809D01*
X117586666Y-136011904D01*
X117539047Y-136107142D01*
X117491428Y-136154761D01*
X117396190Y-136202380D01*
X117110476Y-136202380D01*
X117015238Y-136154761D01*
X116967619Y-136107142D01*
G04 #@! TO.C,JP6*
X108702380Y-154143333D02*
X109416666Y-154143333D01*
X109559523Y-154190952D01*
X109654761Y-154286190D01*
X109702380Y-154429047D01*
X109702380Y-154524285D01*
X109702380Y-153667142D02*
X108702380Y-153667142D01*
X108702380Y-153286190D01*
X108750000Y-153190952D01*
X108797619Y-153143333D01*
X108892857Y-153095714D01*
X109035714Y-153095714D01*
X109130952Y-153143333D01*
X109178571Y-153190952D01*
X109226190Y-153286190D01*
X109226190Y-153667142D01*
X108702380Y-152238571D02*
X108702380Y-152429047D01*
X108750000Y-152524285D01*
X108797619Y-152571904D01*
X108940476Y-152667142D01*
X109130952Y-152714761D01*
X109511904Y-152714761D01*
X109607142Y-152667142D01*
X109654761Y-152619523D01*
X109702380Y-152524285D01*
X109702380Y-152333809D01*
X109654761Y-152238571D01*
X109607142Y-152190952D01*
X109511904Y-152143333D01*
X109273809Y-152143333D01*
X109178571Y-152190952D01*
X109130952Y-152238571D01*
X109083333Y-152333809D01*
X109083333Y-152524285D01*
X109130952Y-152619523D01*
X109178571Y-152667142D01*
X109273809Y-152714761D01*
G04 #@! TO.C,R2*
X99452380Y-106266666D02*
X98976190Y-106600000D01*
X99452380Y-106838095D02*
X98452380Y-106838095D01*
X98452380Y-106457142D01*
X98500000Y-106361904D01*
X98547619Y-106314285D01*
X98642857Y-106266666D01*
X98785714Y-106266666D01*
X98880952Y-106314285D01*
X98928571Y-106361904D01*
X98976190Y-106457142D01*
X98976190Y-106838095D01*
X98547619Y-105885714D02*
X98500000Y-105838095D01*
X98452380Y-105742857D01*
X98452380Y-105504761D01*
X98500000Y-105409523D01*
X98547619Y-105361904D01*
X98642857Y-105314285D01*
X98738095Y-105314285D01*
X98880952Y-105361904D01*
X99452380Y-105933333D01*
X99452380Y-105314285D01*
X101702380Y-107975714D02*
X101702380Y-108547142D01*
X101702380Y-108261428D02*
X100702380Y-108261428D01*
X100845238Y-108356666D01*
X100940476Y-108451904D01*
X100988095Y-108547142D01*
X101702380Y-107547142D02*
X100702380Y-107547142D01*
X101702380Y-106975714D02*
X101130952Y-107404285D01*
X100702380Y-106975714D02*
X101273809Y-107547142D01*
X101702380Y-106594761D02*
X101702380Y-106356666D01*
X101511904Y-106356666D01*
X101464285Y-106451904D01*
X101369047Y-106547142D01*
X101226190Y-106594761D01*
X100988095Y-106594761D01*
X100845238Y-106547142D01*
X100750000Y-106451904D01*
X100702380Y-106309047D01*
X100702380Y-106118571D01*
X100750000Y-105975714D01*
X100845238Y-105880476D01*
X100988095Y-105832857D01*
X101226190Y-105832857D01*
X101369047Y-105880476D01*
X101464285Y-105975714D01*
X101511904Y-106070952D01*
X101702380Y-106070952D01*
X101702380Y-105832857D01*
G04 #@! TO.C,J5*
X73416666Y-126702380D02*
X73416666Y-127416666D01*
X73369047Y-127559523D01*
X73273809Y-127654761D01*
X73130952Y-127702380D01*
X73035714Y-127702380D01*
X74369047Y-126702380D02*
X73892857Y-126702380D01*
X73845238Y-127178571D01*
X73892857Y-127130952D01*
X73988095Y-127083333D01*
X74226190Y-127083333D01*
X74321428Y-127130952D01*
X74369047Y-127178571D01*
X74416666Y-127273809D01*
X74416666Y-127511904D01*
X74369047Y-127607142D01*
X74321428Y-127654761D01*
X74226190Y-127702380D01*
X73988095Y-127702380D01*
X73892857Y-127654761D01*
X73845238Y-127607142D01*
X73369047Y-130202380D02*
X73369047Y-129202380D01*
X73702380Y-129916666D01*
X74035714Y-129202380D01*
X74035714Y-130202380D01*
X75083333Y-130107142D02*
X75035714Y-130154761D01*
X74892857Y-130202380D01*
X74797619Y-130202380D01*
X74654761Y-130154761D01*
X74559523Y-130059523D01*
X74511904Y-129964285D01*
X74464285Y-129773809D01*
X74464285Y-129630952D01*
X74511904Y-129440476D01*
X74559523Y-129345238D01*
X74654761Y-129250000D01*
X74797619Y-129202380D01*
X74892857Y-129202380D01*
X75035714Y-129250000D01*
X75083333Y-129297619D01*
X75511904Y-129202380D02*
X75511904Y-130011904D01*
X75559523Y-130107142D01*
X75607142Y-130154761D01*
X75702380Y-130202380D01*
X75892857Y-130202380D01*
X75988095Y-130154761D01*
X76035714Y-130107142D01*
X76083333Y-130011904D01*
X76083333Y-129202380D01*
X77750000Y-130154761D02*
X77654761Y-130202380D01*
X77464285Y-130202380D01*
X77369047Y-130154761D01*
X77321428Y-130107142D01*
X77273809Y-130011904D01*
X77273809Y-129726190D01*
X77321428Y-129630952D01*
X77369047Y-129583333D01*
X77464285Y-129535714D01*
X77654761Y-129535714D01*
X77750000Y-129583333D01*
X78321428Y-130202380D02*
X78226190Y-130154761D01*
X78178571Y-130107142D01*
X78130952Y-130011904D01*
X78130952Y-129726190D01*
X78178571Y-129630952D01*
X78226190Y-129583333D01*
X78321428Y-129535714D01*
X78464285Y-129535714D01*
X78559523Y-129583333D01*
X78607142Y-129630952D01*
X78654761Y-129726190D01*
X78654761Y-130011904D01*
X78607142Y-130107142D01*
X78559523Y-130154761D01*
X78464285Y-130202380D01*
X78321428Y-130202380D01*
X79083333Y-129535714D02*
X79083333Y-130202380D01*
X79083333Y-129630952D02*
X79130952Y-129583333D01*
X79226190Y-129535714D01*
X79369047Y-129535714D01*
X79464285Y-129583333D01*
X79511904Y-129678571D01*
X79511904Y-130202380D01*
X79845238Y-129535714D02*
X80226190Y-129535714D01*
X79988095Y-129202380D02*
X79988095Y-130059523D01*
X80035714Y-130154761D01*
X80130952Y-130202380D01*
X80226190Y-130202380D01*
X80559523Y-130202380D02*
X80559523Y-129535714D01*
X80559523Y-129726190D02*
X80607142Y-129630952D01*
X80654761Y-129583333D01*
X80750000Y-129535714D01*
X80845238Y-129535714D01*
X81321428Y-130202380D02*
X81226190Y-130154761D01*
X81178571Y-130107142D01*
X81130952Y-130011904D01*
X81130952Y-129726190D01*
X81178571Y-129630952D01*
X81226190Y-129583333D01*
X81321428Y-129535714D01*
X81464285Y-129535714D01*
X81559523Y-129583333D01*
X81607142Y-129630952D01*
X81654761Y-129726190D01*
X81654761Y-130011904D01*
X81607142Y-130107142D01*
X81559523Y-130154761D01*
X81464285Y-130202380D01*
X81321428Y-130202380D01*
X82226190Y-130202380D02*
X82130952Y-130154761D01*
X82083333Y-130059523D01*
X82083333Y-129202380D01*
G04 #@! TO.C,J3*
X107666666Y-119202380D02*
X107666666Y-119916666D01*
X107619047Y-120059523D01*
X107523809Y-120154761D01*
X107380952Y-120202380D01*
X107285714Y-120202380D01*
X108047619Y-119202380D02*
X108666666Y-119202380D01*
X108333333Y-119583333D01*
X108476190Y-119583333D01*
X108571428Y-119630952D01*
X108619047Y-119678571D01*
X108666666Y-119773809D01*
X108666666Y-120011904D01*
X108619047Y-120107142D01*
X108571428Y-120154761D01*
X108476190Y-120202380D01*
X108190476Y-120202380D01*
X108095238Y-120154761D01*
X108047619Y-120107142D01*
X111009523Y-120452380D02*
X111009523Y-119452380D01*
X111009523Y-119928571D02*
X111580952Y-119928571D01*
X111580952Y-120452380D02*
X111580952Y-119452380D01*
X111914285Y-119452380D02*
X112247619Y-120452380D01*
X112580952Y-119452380D01*
X113628571Y-120404761D02*
X113723809Y-120452380D01*
X113914285Y-120452380D01*
X114009523Y-120404761D01*
X114057142Y-120309523D01*
X114057142Y-120261904D01*
X114009523Y-120166666D01*
X113914285Y-120119047D01*
X113771428Y-120119047D01*
X113676190Y-120071428D01*
X113628571Y-119976190D01*
X113628571Y-119928571D01*
X113676190Y-119833333D01*
X113771428Y-119785714D01*
X113914285Y-119785714D01*
X114009523Y-119833333D01*
X114866666Y-120404761D02*
X114771428Y-120452380D01*
X114580952Y-120452380D01*
X114485714Y-120404761D01*
X114438095Y-120309523D01*
X114438095Y-119928571D01*
X114485714Y-119833333D01*
X114580952Y-119785714D01*
X114771428Y-119785714D01*
X114866666Y-119833333D01*
X114914285Y-119928571D01*
X114914285Y-120023809D01*
X114438095Y-120119047D01*
X115342857Y-120452380D02*
X115342857Y-119785714D01*
X115342857Y-119976190D02*
X115390476Y-119880952D01*
X115438095Y-119833333D01*
X115533333Y-119785714D01*
X115628571Y-119785714D01*
X115961904Y-120452380D02*
X115961904Y-119785714D01*
X115961904Y-119452380D02*
X115914285Y-119500000D01*
X115961904Y-119547619D01*
X116009523Y-119500000D01*
X115961904Y-119452380D01*
X115961904Y-119547619D01*
X116866666Y-120452380D02*
X116866666Y-119928571D01*
X116819047Y-119833333D01*
X116723809Y-119785714D01*
X116533333Y-119785714D01*
X116438095Y-119833333D01*
X116866666Y-120404761D02*
X116771428Y-120452380D01*
X116533333Y-120452380D01*
X116438095Y-120404761D01*
X116390476Y-120309523D01*
X116390476Y-120214285D01*
X116438095Y-120119047D01*
X116533333Y-120071428D01*
X116771428Y-120071428D01*
X116866666Y-120023809D01*
X117485714Y-120452380D02*
X117390476Y-120404761D01*
X117342857Y-120309523D01*
X117342857Y-119452380D01*
G04 #@! TO.C,U2*
X100988095Y-156702380D02*
X100988095Y-157511904D01*
X101035714Y-157607142D01*
X101083333Y-157654761D01*
X101178571Y-157702380D01*
X101369047Y-157702380D01*
X101464285Y-157654761D01*
X101511904Y-157607142D01*
X101559523Y-157511904D01*
X101559523Y-156702380D01*
X101988095Y-156797619D02*
X102035714Y-156750000D01*
X102130952Y-156702380D01*
X102369047Y-156702380D01*
X102464285Y-156750000D01*
X102511904Y-156797619D01*
X102559523Y-156892857D01*
X102559523Y-156988095D01*
X102511904Y-157130952D01*
X101940476Y-157702380D01*
X102559523Y-157702380D01*
G04 #@! TO.C,C2*
X109107142Y-142916666D02*
X109154761Y-142964285D01*
X109202380Y-143107142D01*
X109202380Y-143202380D01*
X109154761Y-143345238D01*
X109059523Y-143440476D01*
X108964285Y-143488095D01*
X108773809Y-143535714D01*
X108630952Y-143535714D01*
X108440476Y-143488095D01*
X108345238Y-143440476D01*
X108250000Y-143345238D01*
X108202380Y-143202380D01*
X108202380Y-143107142D01*
X108250000Y-142964285D01*
X108297619Y-142916666D01*
X108297619Y-142535714D02*
X108250000Y-142488095D01*
X108202380Y-142392857D01*
X108202380Y-142154761D01*
X108250000Y-142059523D01*
X108297619Y-142011904D01*
X108392857Y-141964285D01*
X108488095Y-141964285D01*
X108630952Y-142011904D01*
X109202380Y-142583333D01*
X109202380Y-141964285D01*
D15*
X110361904Y-143988095D02*
X110361904Y-144445238D01*
X110361904Y-144216666D02*
X109561904Y-144216666D01*
X109676190Y-144292857D01*
X109752380Y-144369047D01*
X109790476Y-144445238D01*
X109561904Y-143492857D02*
X109561904Y-143416666D01*
X109600000Y-143340476D01*
X109638095Y-143302380D01*
X109714285Y-143264285D01*
X109866666Y-143226190D01*
X110057142Y-143226190D01*
X110209523Y-143264285D01*
X110285714Y-143302380D01*
X110323809Y-143340476D01*
X110361904Y-143416666D01*
X110361904Y-143492857D01*
X110323809Y-143569047D01*
X110285714Y-143607142D01*
X110209523Y-143645238D01*
X110057142Y-143683333D01*
X109866666Y-143683333D01*
X109714285Y-143645238D01*
X109638095Y-143607142D01*
X109600000Y-143569047D01*
X109561904Y-143492857D01*
X109561904Y-142730952D02*
X109561904Y-142654761D01*
X109600000Y-142578571D01*
X109638095Y-142540476D01*
X109714285Y-142502380D01*
X109866666Y-142464285D01*
X110057142Y-142464285D01*
X110209523Y-142502380D01*
X110285714Y-142540476D01*
X110323809Y-142578571D01*
X110361904Y-142654761D01*
X110361904Y-142730952D01*
X110323809Y-142807142D01*
X110285714Y-142845238D01*
X110209523Y-142883333D01*
X110057142Y-142921428D01*
X109866666Y-142921428D01*
X109714285Y-142883333D01*
X109638095Y-142845238D01*
X109600000Y-142807142D01*
X109561904Y-142730952D01*
X109828571Y-142121428D02*
X110361904Y-142121428D01*
X109904761Y-142121428D02*
X109866666Y-142083333D01*
X109828571Y-142007142D01*
X109828571Y-141892857D01*
X109866666Y-141816666D01*
X109942857Y-141778571D01*
X110361904Y-141778571D01*
X109942857Y-141130952D02*
X109942857Y-141397619D01*
X110361904Y-141397619D02*
X109561904Y-141397619D01*
X109561904Y-141016666D01*
G04 #@! TO.C,C1*
D10*
X98107142Y-112916666D02*
X98154761Y-112964285D01*
X98202380Y-113107142D01*
X98202380Y-113202380D01*
X98154761Y-113345238D01*
X98059523Y-113440476D01*
X97964285Y-113488095D01*
X97773809Y-113535714D01*
X97630952Y-113535714D01*
X97440476Y-113488095D01*
X97345238Y-113440476D01*
X97250000Y-113345238D01*
X97202380Y-113202380D01*
X97202380Y-113107142D01*
X97250000Y-112964285D01*
X97297619Y-112916666D01*
X98202380Y-111964285D02*
X98202380Y-112535714D01*
X98202380Y-112250000D02*
X97202380Y-112250000D01*
X97345238Y-112345238D01*
X97440476Y-112440476D01*
X97488095Y-112535714D01*
D15*
X99361904Y-113988095D02*
X99361904Y-114445238D01*
X99361904Y-114216666D02*
X98561904Y-114216666D01*
X98676190Y-114292857D01*
X98752380Y-114369047D01*
X98790476Y-114445238D01*
X98561904Y-113492857D02*
X98561904Y-113416666D01*
X98600000Y-113340476D01*
X98638095Y-113302380D01*
X98714285Y-113264285D01*
X98866666Y-113226190D01*
X99057142Y-113226190D01*
X99209523Y-113264285D01*
X99285714Y-113302380D01*
X99323809Y-113340476D01*
X99361904Y-113416666D01*
X99361904Y-113492857D01*
X99323809Y-113569047D01*
X99285714Y-113607142D01*
X99209523Y-113645238D01*
X99057142Y-113683333D01*
X98866666Y-113683333D01*
X98714285Y-113645238D01*
X98638095Y-113607142D01*
X98600000Y-113569047D01*
X98561904Y-113492857D01*
X98561904Y-112730952D02*
X98561904Y-112654761D01*
X98600000Y-112578571D01*
X98638095Y-112540476D01*
X98714285Y-112502380D01*
X98866666Y-112464285D01*
X99057142Y-112464285D01*
X99209523Y-112502380D01*
X99285714Y-112540476D01*
X99323809Y-112578571D01*
X99361904Y-112654761D01*
X99361904Y-112730952D01*
X99323809Y-112807142D01*
X99285714Y-112845238D01*
X99209523Y-112883333D01*
X99057142Y-112921428D01*
X98866666Y-112921428D01*
X98714285Y-112883333D01*
X98638095Y-112845238D01*
X98600000Y-112807142D01*
X98561904Y-112730952D01*
X98828571Y-112121428D02*
X99361904Y-112121428D01*
X98904761Y-112121428D02*
X98866666Y-112083333D01*
X98828571Y-112007142D01*
X98828571Y-111892857D01*
X98866666Y-111816666D01*
X98942857Y-111778571D01*
X99361904Y-111778571D01*
X98942857Y-111130952D02*
X98942857Y-111397619D01*
X99361904Y-111397619D02*
X98561904Y-111397619D01*
X98561904Y-111016666D01*
G04 #@! TO.C,R14*
D10*
X63607142Y-118952380D02*
X63273809Y-118476190D01*
X63035714Y-118952380D02*
X63035714Y-117952380D01*
X63416666Y-117952380D01*
X63511904Y-118000000D01*
X63559523Y-118047619D01*
X63607142Y-118142857D01*
X63607142Y-118285714D01*
X63559523Y-118380952D01*
X63511904Y-118428571D01*
X63416666Y-118476190D01*
X63035714Y-118476190D01*
X64559523Y-118952380D02*
X63988095Y-118952380D01*
X64273809Y-118952380D02*
X64273809Y-117952380D01*
X64178571Y-118095238D01*
X64083333Y-118190476D01*
X63988095Y-118238095D01*
X65416666Y-118285714D02*
X65416666Y-118952380D01*
X65178571Y-117904761D02*
X64940476Y-118619047D01*
X65559523Y-118619047D01*
X64702380Y-113155714D02*
X64702380Y-113727142D01*
X64702380Y-113441428D02*
X63702380Y-113441428D01*
X63845238Y-113536666D01*
X63940476Y-113631904D01*
X63988095Y-113727142D01*
X64702380Y-112727142D02*
X63702380Y-112727142D01*
X64702380Y-112155714D02*
X64130952Y-112584285D01*
X63702380Y-112155714D02*
X64273809Y-112727142D01*
X64702380Y-111774761D02*
X64702380Y-111536666D01*
X64511904Y-111536666D01*
X64464285Y-111631904D01*
X64369047Y-111727142D01*
X64226190Y-111774761D01*
X63988095Y-111774761D01*
X63845238Y-111727142D01*
X63750000Y-111631904D01*
X63702380Y-111489047D01*
X63702380Y-111298571D01*
X63750000Y-111155714D01*
X63845238Y-111060476D01*
X63988095Y-111012857D01*
X64226190Y-111012857D01*
X64369047Y-111060476D01*
X64464285Y-111155714D01*
X64511904Y-111250952D01*
X64702380Y-111250952D01*
X64702380Y-111012857D01*
G04 #@! TO.C,J1*
X92416666Y-155452380D02*
X92416666Y-156166666D01*
X92369047Y-156309523D01*
X92273809Y-156404761D01*
X92130952Y-156452380D01*
X92035714Y-156452380D01*
X93416666Y-156452380D02*
X92845238Y-156452380D01*
X93130952Y-156452380D02*
X93130952Y-155452380D01*
X93035714Y-155595238D01*
X92940476Y-155690476D01*
X92845238Y-155738095D01*
X95952380Y-149504285D02*
X94952380Y-149504285D01*
X94952380Y-149123333D01*
X95000000Y-149028095D01*
X95047619Y-148980476D01*
X95142857Y-148932857D01*
X95285714Y-148932857D01*
X95380952Y-148980476D01*
X95428571Y-149028095D01*
X95476190Y-149123333D01*
X95476190Y-149504285D01*
X95952380Y-148075714D02*
X95428571Y-148075714D01*
X95333333Y-148123333D01*
X95285714Y-148218571D01*
X95285714Y-148409047D01*
X95333333Y-148504285D01*
X95904761Y-148075714D02*
X95952380Y-148170952D01*
X95952380Y-148409047D01*
X95904761Y-148504285D01*
X95809523Y-148551904D01*
X95714285Y-148551904D01*
X95619047Y-148504285D01*
X95571428Y-148409047D01*
X95571428Y-148170952D01*
X95523809Y-148075714D01*
X95952380Y-147599523D02*
X95285714Y-147599523D01*
X95476190Y-147599523D02*
X95380952Y-147551904D01*
X95333333Y-147504285D01*
X95285714Y-147409047D01*
X95285714Y-147313809D01*
X95952380Y-146551904D02*
X95428571Y-146551904D01*
X95333333Y-146599523D01*
X95285714Y-146694761D01*
X95285714Y-146885238D01*
X95333333Y-146980476D01*
X95904761Y-146551904D02*
X95952380Y-146647142D01*
X95952380Y-146885238D01*
X95904761Y-146980476D01*
X95809523Y-147028095D01*
X95714285Y-147028095D01*
X95619047Y-146980476D01*
X95571428Y-146885238D01*
X95571428Y-146647142D01*
X95523809Y-146551904D01*
X95952380Y-145932857D02*
X95904761Y-146028095D01*
X95809523Y-146075714D01*
X94952380Y-146075714D01*
X95952380Y-145409047D02*
X95904761Y-145504285D01*
X95809523Y-145551904D01*
X94952380Y-145551904D01*
X95904761Y-144647142D02*
X95952380Y-144742380D01*
X95952380Y-144932857D01*
X95904761Y-145028095D01*
X95809523Y-145075714D01*
X95428571Y-145075714D01*
X95333333Y-145028095D01*
X95285714Y-144932857D01*
X95285714Y-144742380D01*
X95333333Y-144647142D01*
X95428571Y-144599523D01*
X95523809Y-144599523D01*
X95619047Y-145075714D01*
X95952380Y-144028095D02*
X95904761Y-144123333D01*
X95809523Y-144170952D01*
X94952380Y-144170952D01*
X95952380Y-142456666D02*
X94952380Y-142456666D01*
X95904761Y-142456666D02*
X95952380Y-142551904D01*
X95952380Y-142742380D01*
X95904761Y-142837619D01*
X95857142Y-142885238D01*
X95761904Y-142932857D01*
X95476190Y-142932857D01*
X95380952Y-142885238D01*
X95333333Y-142837619D01*
X95285714Y-142742380D01*
X95285714Y-142551904D01*
X95333333Y-142456666D01*
X95952380Y-141551904D02*
X95428571Y-141551904D01*
X95333333Y-141599523D01*
X95285714Y-141694761D01*
X95285714Y-141885238D01*
X95333333Y-141980476D01*
X95904761Y-141551904D02*
X95952380Y-141647142D01*
X95952380Y-141885238D01*
X95904761Y-141980476D01*
X95809523Y-142028095D01*
X95714285Y-142028095D01*
X95619047Y-141980476D01*
X95571428Y-141885238D01*
X95571428Y-141647142D01*
X95523809Y-141551904D01*
X95285714Y-141218571D02*
X95285714Y-140837619D01*
X94952380Y-141075714D02*
X95809523Y-141075714D01*
X95904761Y-141028095D01*
X95952380Y-140932857D01*
X95952380Y-140837619D01*
X95952380Y-140075714D02*
X95428571Y-140075714D01*
X95333333Y-140123333D01*
X95285714Y-140218571D01*
X95285714Y-140409047D01*
X95333333Y-140504285D01*
X95904761Y-140075714D02*
X95952380Y-140170952D01*
X95952380Y-140409047D01*
X95904761Y-140504285D01*
X95809523Y-140551904D01*
X95714285Y-140551904D01*
X95619047Y-140504285D01*
X95571428Y-140409047D01*
X95571428Y-140170952D01*
X95523809Y-140075714D01*
G04 #@! TO.C,R15*
X70357142Y-121202380D02*
X70023809Y-120726190D01*
X69785714Y-121202380D02*
X69785714Y-120202380D01*
X70166666Y-120202380D01*
X70261904Y-120250000D01*
X70309523Y-120297619D01*
X70357142Y-120392857D01*
X70357142Y-120535714D01*
X70309523Y-120630952D01*
X70261904Y-120678571D01*
X70166666Y-120726190D01*
X69785714Y-120726190D01*
X71309523Y-121202380D02*
X70738095Y-121202380D01*
X71023809Y-121202380D02*
X71023809Y-120202380D01*
X70928571Y-120345238D01*
X70833333Y-120440476D01*
X70738095Y-120488095D01*
X72214285Y-120202380D02*
X71738095Y-120202380D01*
X71690476Y-120678571D01*
X71738095Y-120630952D01*
X71833333Y-120583333D01*
X72071428Y-120583333D01*
X72166666Y-120630952D01*
X72214285Y-120678571D01*
X72261904Y-120773809D01*
X72261904Y-121011904D01*
X72214285Y-121107142D01*
X72166666Y-121154761D01*
X72071428Y-121202380D01*
X71833333Y-121202380D01*
X71738095Y-121154761D01*
X71690476Y-121107142D01*
X71452380Y-127475714D02*
X71452380Y-128047142D01*
X71452380Y-127761428D02*
X70452380Y-127761428D01*
X70595238Y-127856666D01*
X70690476Y-127951904D01*
X70738095Y-128047142D01*
X71452380Y-127047142D02*
X70452380Y-127047142D01*
X71452380Y-126475714D02*
X70880952Y-126904285D01*
X70452380Y-126475714D02*
X71023809Y-127047142D01*
X71452380Y-126094761D02*
X71452380Y-125856666D01*
X71261904Y-125856666D01*
X71214285Y-125951904D01*
X71119047Y-126047142D01*
X70976190Y-126094761D01*
X70738095Y-126094761D01*
X70595238Y-126047142D01*
X70500000Y-125951904D01*
X70452380Y-125809047D01*
X70452380Y-125618571D01*
X70500000Y-125475714D01*
X70595238Y-125380476D01*
X70738095Y-125332857D01*
X70976190Y-125332857D01*
X71119047Y-125380476D01*
X71214285Y-125475714D01*
X71261904Y-125570952D01*
X71452380Y-125570952D01*
X71452380Y-125332857D01*
G04 #@! TO.C,R10*
X56702380Y-129642857D02*
X56226190Y-129976190D01*
X56702380Y-130214285D02*
X55702380Y-130214285D01*
X55702380Y-129833333D01*
X55750000Y-129738095D01*
X55797619Y-129690476D01*
X55892857Y-129642857D01*
X56035714Y-129642857D01*
X56130952Y-129690476D01*
X56178571Y-129738095D01*
X56226190Y-129833333D01*
X56226190Y-130214285D01*
X56702380Y-128690476D02*
X56702380Y-129261904D01*
X56702380Y-128976190D02*
X55702380Y-128976190D01*
X55845238Y-129071428D01*
X55940476Y-129166666D01*
X55988095Y-129261904D01*
X55702380Y-128071428D02*
X55702380Y-127976190D01*
X55750000Y-127880952D01*
X55797619Y-127833333D01*
X55892857Y-127785714D01*
X56083333Y-127738095D01*
X56321428Y-127738095D01*
X56511904Y-127785714D01*
X56607142Y-127833333D01*
X56654761Y-127880952D01*
X56702380Y-127976190D01*
X56702380Y-128071428D01*
X56654761Y-128166666D01*
X56607142Y-128214285D01*
X56511904Y-128261904D01*
X56321428Y-128309523D01*
X56083333Y-128309523D01*
X55892857Y-128261904D01*
X55797619Y-128214285D01*
X55750000Y-128166666D01*
X55702380Y-128071428D01*
X54202380Y-129905714D02*
X54202380Y-130477142D01*
X54202380Y-130191428D02*
X53202380Y-130191428D01*
X53345238Y-130286666D01*
X53440476Y-130381904D01*
X53488095Y-130477142D01*
X54202380Y-129477142D02*
X53202380Y-129477142D01*
X54202380Y-128905714D02*
X53630952Y-129334285D01*
X53202380Y-128905714D02*
X53773809Y-129477142D01*
X54202380Y-128524761D02*
X54202380Y-128286666D01*
X54011904Y-128286666D01*
X53964285Y-128381904D01*
X53869047Y-128477142D01*
X53726190Y-128524761D01*
X53488095Y-128524761D01*
X53345238Y-128477142D01*
X53250000Y-128381904D01*
X53202380Y-128239047D01*
X53202380Y-128048571D01*
X53250000Y-127905714D01*
X53345238Y-127810476D01*
X53488095Y-127762857D01*
X53726190Y-127762857D01*
X53869047Y-127810476D01*
X53964285Y-127905714D01*
X54011904Y-128000952D01*
X54202380Y-128000952D01*
X54202380Y-127762857D01*
G04 #@! TO.C,R9*
X54202380Y-151666666D02*
X53726190Y-152000000D01*
X54202380Y-152238095D02*
X53202380Y-152238095D01*
X53202380Y-151857142D01*
X53250000Y-151761904D01*
X53297619Y-151714285D01*
X53392857Y-151666666D01*
X53535714Y-151666666D01*
X53630952Y-151714285D01*
X53678571Y-151761904D01*
X53726190Y-151857142D01*
X53726190Y-152238095D01*
X54202380Y-151190476D02*
X54202380Y-151000000D01*
X54154761Y-150904761D01*
X54107142Y-150857142D01*
X53964285Y-150761904D01*
X53773809Y-150714285D01*
X53392857Y-150714285D01*
X53297619Y-150761904D01*
X53250000Y-150809523D01*
X53202380Y-150904761D01*
X53202380Y-151095238D01*
X53250000Y-151190476D01*
X53297619Y-151238095D01*
X53392857Y-151285714D01*
X53630952Y-151285714D01*
X53726190Y-151238095D01*
X53773809Y-151190476D01*
X53821428Y-151095238D01*
X53821428Y-150904761D01*
X53773809Y-150809523D01*
X53726190Y-150761904D01*
X53630952Y-150714285D01*
X56702380Y-152155714D02*
X56702380Y-152727142D01*
X56702380Y-152441428D02*
X55702380Y-152441428D01*
X55845238Y-152536666D01*
X55940476Y-152631904D01*
X55988095Y-152727142D01*
X56702380Y-151727142D02*
X55702380Y-151727142D01*
X56702380Y-151155714D02*
X56130952Y-151584285D01*
X55702380Y-151155714D02*
X56273809Y-151727142D01*
X56702380Y-150774761D02*
X56702380Y-150536666D01*
X56511904Y-150536666D01*
X56464285Y-150631904D01*
X56369047Y-150727142D01*
X56226190Y-150774761D01*
X55988095Y-150774761D01*
X55845238Y-150727142D01*
X55750000Y-150631904D01*
X55702380Y-150489047D01*
X55702380Y-150298571D01*
X55750000Y-150155714D01*
X55845238Y-150060476D01*
X55988095Y-150012857D01*
X56226190Y-150012857D01*
X56369047Y-150060476D01*
X56464285Y-150155714D01*
X56511904Y-150250952D01*
X56702380Y-150250952D01*
X56702380Y-150012857D01*
G04 #@! TO.C,R5*
X101833333Y-132252380D02*
X101500000Y-131776190D01*
X101261904Y-132252380D02*
X101261904Y-131252380D01*
X101642857Y-131252380D01*
X101738095Y-131300000D01*
X101785714Y-131347619D01*
X101833333Y-131442857D01*
X101833333Y-131585714D01*
X101785714Y-131680952D01*
X101738095Y-131728571D01*
X101642857Y-131776190D01*
X101261904Y-131776190D01*
X102738095Y-131252380D02*
X102261904Y-131252380D01*
X102214285Y-131728571D01*
X102261904Y-131680952D01*
X102357142Y-131633333D01*
X102595238Y-131633333D01*
X102690476Y-131680952D01*
X102738095Y-131728571D01*
X102785714Y-131823809D01*
X102785714Y-132061904D01*
X102738095Y-132157142D01*
X102690476Y-132204761D01*
X102595238Y-132252380D01*
X102357142Y-132252380D01*
X102261904Y-132204761D01*
X102214285Y-132157142D01*
X101154285Y-134452380D02*
X100582857Y-134452380D01*
X100868571Y-134452380D02*
X100868571Y-133452380D01*
X100773333Y-133595238D01*
X100678095Y-133690476D01*
X100582857Y-133738095D01*
X101582857Y-134452380D02*
X101582857Y-133452380D01*
X102154285Y-134452380D02*
X101725714Y-133880952D01*
X102154285Y-133452380D02*
X101582857Y-134023809D01*
X102535238Y-134452380D02*
X102773333Y-134452380D01*
X102773333Y-134261904D01*
X102678095Y-134214285D01*
X102582857Y-134119047D01*
X102535238Y-133976190D01*
X102535238Y-133738095D01*
X102582857Y-133595238D01*
X102678095Y-133500000D01*
X102820952Y-133452380D01*
X103011428Y-133452380D01*
X103154285Y-133500000D01*
X103249523Y-133595238D01*
X103297142Y-133738095D01*
X103297142Y-133976190D01*
X103249523Y-134119047D01*
X103154285Y-134214285D01*
X103059047Y-134261904D01*
X103059047Y-134452380D01*
X103297142Y-134452380D01*
G04 #@! TO.C,R4*
X122333333Y-117702380D02*
X122000000Y-117226190D01*
X121761904Y-117702380D02*
X121761904Y-116702380D01*
X122142857Y-116702380D01*
X122238095Y-116750000D01*
X122285714Y-116797619D01*
X122333333Y-116892857D01*
X122333333Y-117035714D01*
X122285714Y-117130952D01*
X122238095Y-117178571D01*
X122142857Y-117226190D01*
X121761904Y-117226190D01*
X123190476Y-117035714D02*
X123190476Y-117702380D01*
X122952380Y-116654761D02*
X122714285Y-117369047D01*
X123333333Y-117369047D01*
X115381904Y-117702380D02*
X114810476Y-117702380D01*
X115096190Y-117702380D02*
X115096190Y-116702380D01*
X115000952Y-116845238D01*
X114905714Y-116940476D01*
X114810476Y-116988095D01*
X115953333Y-117130952D02*
X115858095Y-117083333D01*
X115810476Y-117035714D01*
X115762857Y-116940476D01*
X115762857Y-116892857D01*
X115810476Y-116797619D01*
X115858095Y-116750000D01*
X115953333Y-116702380D01*
X116143809Y-116702380D01*
X116239047Y-116750000D01*
X116286666Y-116797619D01*
X116334285Y-116892857D01*
X116334285Y-116940476D01*
X116286666Y-117035714D01*
X116239047Y-117083333D01*
X116143809Y-117130952D01*
X115953333Y-117130952D01*
X115858095Y-117178571D01*
X115810476Y-117226190D01*
X115762857Y-117321428D01*
X115762857Y-117511904D01*
X115810476Y-117607142D01*
X115858095Y-117654761D01*
X115953333Y-117702380D01*
X116143809Y-117702380D01*
X116239047Y-117654761D01*
X116286666Y-117607142D01*
X116334285Y-117511904D01*
X116334285Y-117321428D01*
X116286666Y-117226190D01*
X116239047Y-117178571D01*
X116143809Y-117130952D01*
X116953333Y-116702380D02*
X117048571Y-116702380D01*
X117143809Y-116750000D01*
X117191428Y-116797619D01*
X117239047Y-116892857D01*
X117286666Y-117083333D01*
X117286666Y-117321428D01*
X117239047Y-117511904D01*
X117191428Y-117607142D01*
X117143809Y-117654761D01*
X117048571Y-117702380D01*
X116953333Y-117702380D01*
X116858095Y-117654761D01*
X116810476Y-117607142D01*
X116762857Y-117511904D01*
X116715238Y-117321428D01*
X116715238Y-117083333D01*
X116762857Y-116892857D01*
X116810476Y-116797619D01*
X116858095Y-116750000D01*
X116953333Y-116702380D01*
X117667619Y-117702380D02*
X117905714Y-117702380D01*
X117905714Y-117511904D01*
X117810476Y-117464285D01*
X117715238Y-117369047D01*
X117667619Y-117226190D01*
X117667619Y-116988095D01*
X117715238Y-116845238D01*
X117810476Y-116750000D01*
X117953333Y-116702380D01*
X118143809Y-116702380D01*
X118286666Y-116750000D01*
X118381904Y-116845238D01*
X118429523Y-116988095D01*
X118429523Y-117226190D01*
X118381904Y-117369047D01*
X118286666Y-117464285D01*
X118191428Y-117511904D01*
X118191428Y-117702380D01*
X118429523Y-117702380D01*
G04 #@! TO.C,R3*
X122333333Y-114452380D02*
X122000000Y-113976190D01*
X121761904Y-114452380D02*
X121761904Y-113452380D01*
X122142857Y-113452380D01*
X122238095Y-113500000D01*
X122285714Y-113547619D01*
X122333333Y-113642857D01*
X122333333Y-113785714D01*
X122285714Y-113880952D01*
X122238095Y-113928571D01*
X122142857Y-113976190D01*
X121761904Y-113976190D01*
X122666666Y-113452380D02*
X123285714Y-113452380D01*
X122952380Y-113833333D01*
X123095238Y-113833333D01*
X123190476Y-113880952D01*
X123238095Y-113928571D01*
X123285714Y-114023809D01*
X123285714Y-114261904D01*
X123238095Y-114357142D01*
X123190476Y-114404761D01*
X123095238Y-114452380D01*
X122809523Y-114452380D01*
X122714285Y-114404761D01*
X122666666Y-114357142D01*
X115321904Y-114452380D02*
X114750476Y-114452380D01*
X115036190Y-114452380D02*
X115036190Y-113452380D01*
X114940952Y-113595238D01*
X114845714Y-113690476D01*
X114750476Y-113738095D01*
X115893333Y-113880952D02*
X115798095Y-113833333D01*
X115750476Y-113785714D01*
X115702857Y-113690476D01*
X115702857Y-113642857D01*
X115750476Y-113547619D01*
X115798095Y-113500000D01*
X115893333Y-113452380D01*
X116083809Y-113452380D01*
X116179047Y-113500000D01*
X116226666Y-113547619D01*
X116274285Y-113642857D01*
X116274285Y-113690476D01*
X116226666Y-113785714D01*
X116179047Y-113833333D01*
X116083809Y-113880952D01*
X115893333Y-113880952D01*
X115798095Y-113928571D01*
X115750476Y-113976190D01*
X115702857Y-114071428D01*
X115702857Y-114261904D01*
X115750476Y-114357142D01*
X115798095Y-114404761D01*
X115893333Y-114452380D01*
X116083809Y-114452380D01*
X116179047Y-114404761D01*
X116226666Y-114357142D01*
X116274285Y-114261904D01*
X116274285Y-114071428D01*
X116226666Y-113976190D01*
X116179047Y-113928571D01*
X116083809Y-113880952D01*
X116893333Y-113452380D02*
X116988571Y-113452380D01*
X117083809Y-113500000D01*
X117131428Y-113547619D01*
X117179047Y-113642857D01*
X117226666Y-113833333D01*
X117226666Y-114071428D01*
X117179047Y-114261904D01*
X117131428Y-114357142D01*
X117083809Y-114404761D01*
X116988571Y-114452380D01*
X116893333Y-114452380D01*
X116798095Y-114404761D01*
X116750476Y-114357142D01*
X116702857Y-114261904D01*
X116655238Y-114071428D01*
X116655238Y-113833333D01*
X116702857Y-113642857D01*
X116750476Y-113547619D01*
X116798095Y-113500000D01*
X116893333Y-113452380D01*
X117607619Y-114452380D02*
X117845714Y-114452380D01*
X117845714Y-114261904D01*
X117750476Y-114214285D01*
X117655238Y-114119047D01*
X117607619Y-113976190D01*
X117607619Y-113738095D01*
X117655238Y-113595238D01*
X117750476Y-113500000D01*
X117893333Y-113452380D01*
X118083809Y-113452380D01*
X118226666Y-113500000D01*
X118321904Y-113595238D01*
X118369523Y-113738095D01*
X118369523Y-113976190D01*
X118321904Y-114119047D01*
X118226666Y-114214285D01*
X118131428Y-114261904D01*
X118131428Y-114452380D01*
X118369523Y-114452380D01*
G04 #@! TO.C,D2*
X113261904Y-110452380D02*
X113261904Y-109452380D01*
X113500000Y-109452380D01*
X113642857Y-109500000D01*
X113738095Y-109595238D01*
X113785714Y-109690476D01*
X113833333Y-109880952D01*
X113833333Y-110023809D01*
X113785714Y-110214285D01*
X113738095Y-110309523D01*
X113642857Y-110404761D01*
X113500000Y-110452380D01*
X113261904Y-110452380D01*
X114214285Y-109547619D02*
X114261904Y-109500000D01*
X114357142Y-109452380D01*
X114595238Y-109452380D01*
X114690476Y-109500000D01*
X114738095Y-109547619D01*
X114785714Y-109642857D01*
X114785714Y-109738095D01*
X114738095Y-109880952D01*
X114166666Y-110452380D01*
X114785714Y-110452380D01*
X113357142Y-103952380D02*
X113023809Y-103476190D01*
X112785714Y-103952380D02*
X112785714Y-102952380D01*
X113166666Y-102952380D01*
X113261904Y-103000000D01*
X113309523Y-103047619D01*
X113357142Y-103142857D01*
X113357142Y-103285714D01*
X113309523Y-103380952D01*
X113261904Y-103428571D01*
X113166666Y-103476190D01*
X112785714Y-103476190D01*
X113785714Y-103428571D02*
X114119047Y-103428571D01*
X114261904Y-103952380D02*
X113785714Y-103952380D01*
X113785714Y-102952380D01*
X114261904Y-102952380D01*
X114690476Y-103952380D02*
X114690476Y-102952380D01*
X114928571Y-102952380D01*
X115071428Y-103000000D01*
X115166666Y-103095238D01*
X115214285Y-103190476D01*
X115261904Y-103380952D01*
X115261904Y-103523809D01*
X115214285Y-103714285D01*
X115166666Y-103809523D01*
X115071428Y-103904761D01*
X114928571Y-103952380D01*
X114690476Y-103952380D01*
G04 #@! TO.C,D1*
X118511904Y-110452380D02*
X118511904Y-109452380D01*
X118750000Y-109452380D01*
X118892857Y-109500000D01*
X118988095Y-109595238D01*
X119035714Y-109690476D01*
X119083333Y-109880952D01*
X119083333Y-110023809D01*
X119035714Y-110214285D01*
X118988095Y-110309523D01*
X118892857Y-110404761D01*
X118750000Y-110452380D01*
X118511904Y-110452380D01*
X120035714Y-110452380D02*
X119464285Y-110452380D01*
X119750000Y-110452380D02*
X119750000Y-109452380D01*
X119654761Y-109595238D01*
X119559523Y-109690476D01*
X119464285Y-109738095D01*
X117583333Y-103000000D02*
X117488095Y-102952380D01*
X117345238Y-102952380D01*
X117202380Y-103000000D01*
X117107142Y-103095238D01*
X117059523Y-103190476D01*
X117011904Y-103380952D01*
X117011904Y-103523809D01*
X117059523Y-103714285D01*
X117107142Y-103809523D01*
X117202380Y-103904761D01*
X117345238Y-103952380D01*
X117440476Y-103952380D01*
X117583333Y-103904761D01*
X117630952Y-103857142D01*
X117630952Y-103523809D01*
X117440476Y-103523809D01*
X118630952Y-103952380D02*
X118297619Y-103476190D01*
X118059523Y-103952380D02*
X118059523Y-102952380D01*
X118440476Y-102952380D01*
X118535714Y-103000000D01*
X118583333Y-103047619D01*
X118630952Y-103142857D01*
X118630952Y-103285714D01*
X118583333Y-103380952D01*
X118535714Y-103428571D01*
X118440476Y-103476190D01*
X118059523Y-103476190D01*
X119059523Y-103428571D02*
X119392857Y-103428571D01*
X119535714Y-103952380D02*
X119059523Y-103952380D01*
X119059523Y-102952380D01*
X119535714Y-102952380D01*
X119964285Y-103428571D02*
X120297619Y-103428571D01*
X120440476Y-103952380D02*
X119964285Y-103952380D01*
X119964285Y-102952380D01*
X120440476Y-102952380D01*
X120869047Y-103952380D02*
X120869047Y-102952380D01*
X121440476Y-103952380D01*
X121440476Y-102952380D01*
G04 #@! TO.C,J4*
X111566666Y-111252380D02*
X111566666Y-111966666D01*
X111519047Y-112109523D01*
X111423809Y-112204761D01*
X111280952Y-112252380D01*
X111185714Y-112252380D01*
X112471428Y-111585714D02*
X112471428Y-112252380D01*
X112233333Y-111204761D02*
X111995238Y-111919047D01*
X112614285Y-111919047D01*
X104202380Y-105952380D02*
X104202380Y-104952380D01*
X104583333Y-104952380D01*
X104678571Y-105000000D01*
X104726190Y-105047619D01*
X104773809Y-105142857D01*
X104773809Y-105285714D01*
X104726190Y-105380952D01*
X104678571Y-105428571D01*
X104583333Y-105476190D01*
X104202380Y-105476190D01*
X105345238Y-105952380D02*
X105250000Y-105904761D01*
X105202380Y-105857142D01*
X105154761Y-105761904D01*
X105154761Y-105476190D01*
X105202380Y-105380952D01*
X105250000Y-105333333D01*
X105345238Y-105285714D01*
X105488095Y-105285714D01*
X105583333Y-105333333D01*
X105630952Y-105380952D01*
X105678571Y-105476190D01*
X105678571Y-105761904D01*
X105630952Y-105857142D01*
X105583333Y-105904761D01*
X105488095Y-105952380D01*
X105345238Y-105952380D01*
X106011904Y-105285714D02*
X106202380Y-105952380D01*
X106392857Y-105476190D01*
X106583333Y-105952380D01*
X106773809Y-105285714D01*
X107535714Y-105904761D02*
X107440476Y-105952380D01*
X107250000Y-105952380D01*
X107154761Y-105904761D01*
X107107142Y-105809523D01*
X107107142Y-105428571D01*
X107154761Y-105333333D01*
X107250000Y-105285714D01*
X107440476Y-105285714D01*
X107535714Y-105333333D01*
X107583333Y-105428571D01*
X107583333Y-105523809D01*
X107107142Y-105619047D01*
X108011904Y-105952380D02*
X108011904Y-105285714D01*
X108011904Y-105476190D02*
X108059523Y-105380952D01*
X108107142Y-105333333D01*
X108202380Y-105285714D01*
X108297619Y-105285714D01*
X109392857Y-105952380D02*
X109392857Y-104952380D01*
X109869047Y-105285714D02*
X109869047Y-105952380D01*
X109869047Y-105380952D02*
X109916666Y-105333333D01*
X110011904Y-105285714D01*
X110154761Y-105285714D01*
X110250000Y-105333333D01*
X110297619Y-105428571D01*
X110297619Y-105952380D01*
G04 #@! TO.C,U4*
X116428095Y-156782380D02*
X116428095Y-157591904D01*
X116475714Y-157687142D01*
X116523333Y-157734761D01*
X116618571Y-157782380D01*
X116809047Y-157782380D01*
X116904285Y-157734761D01*
X116951904Y-157687142D01*
X116999523Y-157591904D01*
X116999523Y-156782380D01*
X117904285Y-157115714D02*
X117904285Y-157782380D01*
X117666190Y-156734761D02*
X117428095Y-157449047D01*
X118047142Y-157449047D01*
G04 #@! TO.C,U3*
X120238095Y-120952380D02*
X120238095Y-121761904D01*
X120285714Y-121857142D01*
X120333333Y-121904761D01*
X120428571Y-121952380D01*
X120619047Y-121952380D01*
X120714285Y-121904761D01*
X120761904Y-121857142D01*
X120809523Y-121761904D01*
X120809523Y-120952380D01*
X121190476Y-120952380D02*
X121809523Y-120952380D01*
X121476190Y-121333333D01*
X121619047Y-121333333D01*
X121714285Y-121380952D01*
X121761904Y-121428571D01*
X121809523Y-121523809D01*
X121809523Y-121761904D01*
X121761904Y-121857142D01*
X121714285Y-121904761D01*
X121619047Y-121952380D01*
X121333333Y-121952380D01*
X121238095Y-121904761D01*
X121190476Y-121857142D01*
G04 #@! TO.C,R13*
X60357142Y-107052380D02*
X60023809Y-106576190D01*
X59785714Y-107052380D02*
X59785714Y-106052380D01*
X60166666Y-106052380D01*
X60261904Y-106100000D01*
X60309523Y-106147619D01*
X60357142Y-106242857D01*
X60357142Y-106385714D01*
X60309523Y-106480952D01*
X60261904Y-106528571D01*
X60166666Y-106576190D01*
X59785714Y-106576190D01*
X61309523Y-107052380D02*
X60738095Y-107052380D01*
X61023809Y-107052380D02*
X61023809Y-106052380D01*
X60928571Y-106195238D01*
X60833333Y-106290476D01*
X60738095Y-106338095D01*
X61642857Y-106052380D02*
X62261904Y-106052380D01*
X61928571Y-106433333D01*
X62071428Y-106433333D01*
X62166666Y-106480952D01*
X62214285Y-106528571D01*
X62261904Y-106623809D01*
X62261904Y-106861904D01*
X62214285Y-106957142D01*
X62166666Y-107004761D01*
X62071428Y-107052380D01*
X61785714Y-107052380D01*
X61690476Y-107004761D01*
X61642857Y-106957142D01*
X61452380Y-113405714D02*
X61452380Y-113977142D01*
X61452380Y-113691428D02*
X60452380Y-113691428D01*
X60595238Y-113786666D01*
X60690476Y-113881904D01*
X60738095Y-113977142D01*
X61452380Y-112977142D02*
X60452380Y-112977142D01*
X61452380Y-112405714D02*
X60880952Y-112834285D01*
X60452380Y-112405714D02*
X61023809Y-112977142D01*
X61452380Y-112024761D02*
X61452380Y-111786666D01*
X61261904Y-111786666D01*
X61214285Y-111881904D01*
X61119047Y-111977142D01*
X60976190Y-112024761D01*
X60738095Y-112024761D01*
X60595238Y-111977142D01*
X60500000Y-111881904D01*
X60452380Y-111739047D01*
X60452380Y-111548571D01*
X60500000Y-111405714D01*
X60595238Y-111310476D01*
X60738095Y-111262857D01*
X60976190Y-111262857D01*
X61119047Y-111310476D01*
X61214285Y-111405714D01*
X61261904Y-111500952D01*
X61452380Y-111500952D01*
X61452380Y-111262857D01*
G04 #@! TO.C,R12*
X57107142Y-118952380D02*
X56773809Y-118476190D01*
X56535714Y-118952380D02*
X56535714Y-117952380D01*
X56916666Y-117952380D01*
X57011904Y-118000000D01*
X57059523Y-118047619D01*
X57107142Y-118142857D01*
X57107142Y-118285714D01*
X57059523Y-118380952D01*
X57011904Y-118428571D01*
X56916666Y-118476190D01*
X56535714Y-118476190D01*
X58059523Y-118952380D02*
X57488095Y-118952380D01*
X57773809Y-118952380D02*
X57773809Y-117952380D01*
X57678571Y-118095238D01*
X57583333Y-118190476D01*
X57488095Y-118238095D01*
X58440476Y-118047619D02*
X58488095Y-118000000D01*
X58583333Y-117952380D01*
X58821428Y-117952380D01*
X58916666Y-118000000D01*
X58964285Y-118047619D01*
X59011904Y-118142857D01*
X59011904Y-118238095D01*
X58964285Y-118380952D01*
X58392857Y-118952380D01*
X59011904Y-118952380D01*
X58202380Y-113155714D02*
X58202380Y-113727142D01*
X58202380Y-113441428D02*
X57202380Y-113441428D01*
X57345238Y-113536666D01*
X57440476Y-113631904D01*
X57488095Y-113727142D01*
X58202380Y-112727142D02*
X57202380Y-112727142D01*
X58202380Y-112155714D02*
X57630952Y-112584285D01*
X57202380Y-112155714D02*
X57773809Y-112727142D01*
X58202380Y-111774761D02*
X58202380Y-111536666D01*
X58011904Y-111536666D01*
X57964285Y-111631904D01*
X57869047Y-111727142D01*
X57726190Y-111774761D01*
X57488095Y-111774761D01*
X57345238Y-111727142D01*
X57250000Y-111631904D01*
X57202380Y-111489047D01*
X57202380Y-111298571D01*
X57250000Y-111155714D01*
X57345238Y-111060476D01*
X57488095Y-111012857D01*
X57726190Y-111012857D01*
X57869047Y-111060476D01*
X57964285Y-111155714D01*
X58011904Y-111250952D01*
X58202380Y-111250952D01*
X58202380Y-111012857D01*
G04 #@! TO.C,R11*
X54202380Y-140142857D02*
X53726190Y-140476190D01*
X54202380Y-140714285D02*
X53202380Y-140714285D01*
X53202380Y-140333333D01*
X53250000Y-140238095D01*
X53297619Y-140190476D01*
X53392857Y-140142857D01*
X53535714Y-140142857D01*
X53630952Y-140190476D01*
X53678571Y-140238095D01*
X53726190Y-140333333D01*
X53726190Y-140714285D01*
X54202380Y-139190476D02*
X54202380Y-139761904D01*
X54202380Y-139476190D02*
X53202380Y-139476190D01*
X53345238Y-139571428D01*
X53440476Y-139666666D01*
X53488095Y-139761904D01*
X54202380Y-138238095D02*
X54202380Y-138809523D01*
X54202380Y-138523809D02*
X53202380Y-138523809D01*
X53345238Y-138619047D01*
X53440476Y-138714285D01*
X53488095Y-138809523D01*
X56702380Y-140285714D02*
X56702380Y-140857142D01*
X56702380Y-140571428D02*
X55702380Y-140571428D01*
X55845238Y-140666666D01*
X55940476Y-140761904D01*
X55988095Y-140857142D01*
X56702380Y-139857142D02*
X55702380Y-139857142D01*
X56702380Y-139285714D02*
X56130952Y-139714285D01*
X55702380Y-139285714D02*
X56273809Y-139857142D01*
X56702380Y-138904761D02*
X56702380Y-138666666D01*
X56511904Y-138666666D01*
X56464285Y-138761904D01*
X56369047Y-138857142D01*
X56226190Y-138904761D01*
X55988095Y-138904761D01*
X55845238Y-138857142D01*
X55750000Y-138761904D01*
X55702380Y-138619047D01*
X55702380Y-138428571D01*
X55750000Y-138285714D01*
X55845238Y-138190476D01*
X55988095Y-138142857D01*
X56226190Y-138142857D01*
X56369047Y-138190476D01*
X56464285Y-138285714D01*
X56511904Y-138380952D01*
X56702380Y-138380952D01*
X56702380Y-138142857D01*
G04 #@! TD*
M02*
