%FSLAX45Y45*%
G04 Gerber Fmt 4.5, Leading zero omitted, Abs format (unit mm)*
G04 Created by KiCad (PCBNEW 5.1.6-c6e7f7d~87~ubuntu19.10.1) date 2020-11-03 03:18:18*
%MOMM*%
%LPD*%
G01*
G04 APERTURE LIST*
%TA.AperFunction,Profile*%
%ADD10C,0.100000*%
%TD*%
%ADD11C,0.200000*%
%ADD12C,0.300000*%
G04 APERTURE END LIST*
D10*
X12500000Y-16000000D02*
X12500000Y-10000000D01*
X5000000Y-16000000D02*
X12500000Y-16000000D01*
X5000000Y-10000000D02*
X5000000Y-16000000D01*
X5000000Y-10000000D02*
X12500000Y-10000000D01*
D11*
X9333500Y-10387500D02*
X9408500Y-10462500D01*
X9408500Y-10387500D02*
X9333500Y-10462500D01*
X9460500Y-10514500D02*
X9535500Y-10589500D01*
X9535500Y-10514500D02*
X9460500Y-10589500D01*
X9587500Y-10387500D02*
X9662500Y-10462500D01*
X9662500Y-10387500D02*
X9587500Y-10462500D01*
X7254000Y-10900000D02*
G75*
G03*
X7254000Y-10900000I-40000J0D01*
G01*
X7254000Y-11662000D02*
G75*
G03*
X7254000Y-11662000I-40000J0D01*
G01*
X7508000Y-10900000D02*
G75*
G03*
X7508000Y-10900000I-40000J0D01*
G01*
X7508000Y-11662000D02*
G75*
G03*
X7508000Y-11662000I-40000J0D01*
G01*
X7762000Y-10900000D02*
G75*
G03*
X7762000Y-10900000I-40000J0D01*
G01*
X7762000Y-11662000D02*
G75*
G03*
X7762000Y-11662000I-40000J0D01*
G01*
X8016000Y-10900000D02*
G75*
G03*
X8016000Y-10900000I-40000J0D01*
G01*
X8016000Y-11662000D02*
G75*
G03*
X8016000Y-11662000I-40000J0D01*
G01*
X8270000Y-10900000D02*
G75*
G03*
X8270000Y-10900000I-40000J0D01*
G01*
X8270000Y-11662000D02*
G75*
G03*
X8270000Y-11662000I-40000J0D01*
G01*
X8524000Y-10900000D02*
G75*
G03*
X8524000Y-10900000I-40000J0D01*
G01*
X8524000Y-11662000D02*
G75*
G03*
X8524000Y-11662000I-40000J0D01*
G01*
X8778000Y-10900000D02*
G75*
G03*
X8778000Y-10900000I-40000J0D01*
G01*
X8778000Y-11662000D02*
G75*
G03*
X8778000Y-11662000I-40000J0D01*
G01*
X9032000Y-10900000D02*
G75*
G03*
X9032000Y-10900000I-40000J0D01*
G01*
X9032000Y-11662000D02*
G75*
G03*
X9032000Y-11662000I-40000J0D01*
G01*
X9286000Y-10900000D02*
G75*
G03*
X9286000Y-10900000I-40000J0D01*
G01*
X9286000Y-11662000D02*
G75*
G03*
X9286000Y-11662000I-40000J0D01*
G01*
X9540000Y-10900000D02*
G75*
G03*
X9540000Y-10900000I-40000J0D01*
G01*
X9540000Y-11662000D02*
G75*
G03*
X9540000Y-11662000I-40000J0D01*
G01*
X8940000Y-13200000D02*
G75*
G03*
X8940000Y-13200000I-40000J0D01*
G01*
X8940000Y-13962000D02*
G75*
G03*
X8940000Y-13962000I-40000J0D01*
G01*
X7140000Y-12288000D02*
G75*
G03*
X7140000Y-12288000I-40000J0D01*
G01*
X7140000Y-13050000D02*
G75*
G03*
X7140000Y-13050000I-40000J0D01*
G01*
X8311000Y-12325000D02*
G75*
G03*
X8311000Y-12325000I-40000J0D01*
G01*
X9327000Y-12325000D02*
G75*
G03*
X9327000Y-12325000I-40000J0D01*
G01*
X10965000Y-13900000D02*
G75*
G03*
X10965000Y-13900000I-40000J0D01*
G01*
X10965000Y-14650000D02*
G75*
G03*
X10965000Y-14650000I-40000J0D01*
G01*
X5665000Y-14750000D02*
G75*
G03*
X5665000Y-14750000I-40000J0D01*
G01*
X5665000Y-15512000D02*
G75*
G03*
X5665000Y-15512000I-40000J0D01*
G01*
X5815000Y-10875000D02*
G75*
G03*
X5815000Y-10875000I-40000J0D01*
G01*
X5815000Y-11637000D02*
G75*
G03*
X5815000Y-11637000I-40000J0D01*
G01*
X9865000Y-10900000D02*
G75*
G03*
X9865000Y-10900000I-40000J0D01*
G01*
X9865000Y-11650000D02*
G75*
G03*
X9865000Y-11650000I-40000J0D01*
G01*
X6015000Y-12173000D02*
G75*
G03*
X6015000Y-12173000I-40000J0D01*
G01*
X6015000Y-12427000D02*
G75*
G03*
X6015000Y-12427000I-40000J0D01*
G01*
X6015000Y-12681000D02*
G75*
G03*
X6015000Y-12681000I-40000J0D01*
G01*
X6015000Y-12935000D02*
G75*
G03*
X6015000Y-12935000I-40000J0D01*
G01*
X6015000Y-13189000D02*
G75*
G03*
X6015000Y-13189000I-40000J0D01*
G01*
X6015000Y-13443000D02*
G75*
G03*
X6015000Y-13443000I-40000J0D01*
G01*
X6015000Y-13697000D02*
G75*
G03*
X6015000Y-13697000I-40000J0D01*
G01*
X6015000Y-13951000D02*
G75*
G03*
X6015000Y-13951000I-40000J0D01*
G01*
X6015000Y-14205000D02*
G75*
G03*
X6015000Y-14205000I-40000J0D01*
G01*
X6015000Y-14459000D02*
G75*
G03*
X6015000Y-14459000I-40000J0D01*
G01*
X6015000Y-14713000D02*
G75*
G03*
X6015000Y-14713000I-40000J0D01*
G01*
X6015000Y-14967000D02*
G75*
G03*
X6015000Y-14967000I-40000J0D01*
G01*
X6015000Y-15221000D02*
G75*
G03*
X6015000Y-15221000I-40000J0D01*
G01*
X6015000Y-15475000D02*
G75*
G03*
X6015000Y-15475000I-40000J0D01*
G01*
X6777000Y-12173000D02*
G75*
G03*
X6777000Y-12173000I-40000J0D01*
G01*
X6777000Y-12427000D02*
G75*
G03*
X6777000Y-12427000I-40000J0D01*
G01*
X6777000Y-12935000D02*
G75*
G03*
X6777000Y-12935000I-40000J0D01*
G01*
X6777000Y-13189000D02*
G75*
G03*
X6777000Y-13189000I-40000J0D01*
G01*
X6777000Y-13443000D02*
G75*
G03*
X6777000Y-13443000I-40000J0D01*
G01*
X6777000Y-13697000D02*
G75*
G03*
X6777000Y-13697000I-40000J0D01*
G01*
X6777000Y-13951000D02*
G75*
G03*
X6777000Y-13951000I-40000J0D01*
G01*
X6777000Y-14205000D02*
G75*
G03*
X6777000Y-14205000I-40000J0D01*
G01*
X6777000Y-14459000D02*
G75*
G03*
X6777000Y-14459000I-40000J0D01*
G01*
X6777000Y-14713000D02*
G75*
G03*
X6777000Y-14713000I-40000J0D01*
G01*
X6777000Y-14967000D02*
G75*
G03*
X6777000Y-14967000I-40000J0D01*
G01*
X6777000Y-15221000D02*
G75*
G03*
X6777000Y-15221000I-40000J0D01*
G01*
X6777000Y-15475000D02*
G75*
G03*
X6777000Y-15475000I-40000J0D01*
G01*
X11315000Y-11725000D02*
G75*
G03*
X11315000Y-11725000I-40000J0D01*
G01*
X12077000Y-11725000D02*
G75*
G03*
X12077000Y-11725000I-40000J0D01*
G01*
X6865000Y-10288000D02*
G75*
G03*
X6865000Y-10288000I-40000J0D01*
G01*
X6865000Y-11050000D02*
G75*
G03*
X6865000Y-11050000I-40000J0D01*
G01*
X6465000Y-10875000D02*
G75*
G03*
X6465000Y-10875000I-40000J0D01*
G01*
X6465000Y-11637000D02*
G75*
G03*
X6465000Y-11637000I-40000J0D01*
G01*
X10190000Y-11825000D02*
G75*
G03*
X10190000Y-11825000I-40000J0D01*
G01*
X10190000Y-12841000D02*
G75*
G03*
X10190000Y-12841000I-40000J0D01*
G01*
X10965000Y-14950000D02*
G75*
G03*
X10965000Y-14950000I-40000J0D01*
G01*
X10965000Y-15712000D02*
G75*
G03*
X10965000Y-15712000I-40000J0D01*
G01*
X8724000Y-12950000D02*
G75*
G03*
X8724000Y-12950000I-40000J0D01*
G01*
X9740000Y-12950000D02*
G75*
G03*
X9740000Y-12950000I-40000J0D01*
G01*
X5665000Y-13588000D02*
G75*
G03*
X5665000Y-13588000I-40000J0D01*
G01*
X5665000Y-14350000D02*
G75*
G03*
X5665000Y-14350000I-40000J0D01*
G01*
X11378000Y-13976000D02*
G75*
G03*
X11378000Y-13976000I-40000J0D01*
G01*
X11378000Y-14230000D02*
G75*
G03*
X11378000Y-14230000I-40000J0D01*
G01*
X11378000Y-14484000D02*
G75*
G03*
X11378000Y-14484000I-40000J0D01*
G01*
X11378000Y-14738000D02*
G75*
G03*
X11378000Y-14738000I-40000J0D01*
G01*
X11378000Y-14992000D02*
G75*
G03*
X11378000Y-14992000I-40000J0D01*
G01*
X11378000Y-15246000D02*
G75*
G03*
X11378000Y-15246000I-40000J0D01*
G01*
X11378000Y-15500000D02*
G75*
G03*
X11378000Y-15500000I-40000J0D01*
G01*
X12140000Y-13976000D02*
G75*
G03*
X12140000Y-13976000I-40000J0D01*
G01*
X12140000Y-14230000D02*
G75*
G03*
X12140000Y-14230000I-40000J0D01*
G01*
X12140000Y-14484000D02*
G75*
G03*
X12140000Y-14484000I-40000J0D01*
G01*
X12140000Y-14738000D02*
G75*
G03*
X12140000Y-14738000I-40000J0D01*
G01*
X12140000Y-14992000D02*
G75*
G03*
X12140000Y-14992000I-40000J0D01*
G01*
X12140000Y-15246000D02*
G75*
G03*
X12140000Y-15246000I-40000J0D01*
G01*
X12140000Y-15500000D02*
G75*
G03*
X12140000Y-15500000I-40000J0D01*
G01*
X8311000Y-12650000D02*
G75*
G03*
X8311000Y-12650000I-40000J0D01*
G01*
X9327000Y-12650000D02*
G75*
G03*
X9327000Y-12650000I-40000J0D01*
G01*
X7840000Y-13325000D02*
G75*
G03*
X7840000Y-13325000I-40000J0D01*
G01*
X7840000Y-13833000D02*
G75*
G03*
X7840000Y-13833000I-40000J0D01*
G01*
X7840000Y-14087000D02*
G75*
G03*
X7840000Y-14087000I-40000J0D01*
G01*
X7840000Y-14341000D02*
G75*
G03*
X7840000Y-14341000I-40000J0D01*
G01*
X7840000Y-14595000D02*
G75*
G03*
X7840000Y-14595000I-40000J0D01*
G01*
X7840000Y-14849000D02*
G75*
G03*
X7840000Y-14849000I-40000J0D01*
G01*
X7840000Y-15103000D02*
G75*
G03*
X7840000Y-15103000I-40000J0D01*
G01*
X7840000Y-15357000D02*
G75*
G03*
X7840000Y-15357000I-40000J0D01*
G01*
X7840000Y-15611000D02*
G75*
G03*
X7840000Y-15611000I-40000J0D01*
G01*
X8602000Y-13325000D02*
G75*
G03*
X8602000Y-13325000I-40000J0D01*
G01*
X8602000Y-13579000D02*
G75*
G03*
X8602000Y-13579000I-40000J0D01*
G01*
X8602000Y-13833000D02*
G75*
G03*
X8602000Y-13833000I-40000J0D01*
G01*
X8602000Y-14087000D02*
G75*
G03*
X8602000Y-14087000I-40000J0D01*
G01*
X8602000Y-14341000D02*
G75*
G03*
X8602000Y-14341000I-40000J0D01*
G01*
X8602000Y-14595000D02*
G75*
G03*
X8602000Y-14595000I-40000J0D01*
G01*
X8602000Y-14849000D02*
G75*
G03*
X8602000Y-14849000I-40000J0D01*
G01*
X8602000Y-15103000D02*
G75*
G03*
X8602000Y-15103000I-40000J0D01*
G01*
X8602000Y-15357000D02*
G75*
G03*
X8602000Y-15357000I-40000J0D01*
G01*
X8602000Y-15611000D02*
G75*
G03*
X8602000Y-15611000I-40000J0D01*
G01*
X11315000Y-11400000D02*
G75*
G03*
X11315000Y-11400000I-40000J0D01*
G01*
X12077000Y-11400000D02*
G75*
G03*
X12077000Y-11400000I-40000J0D01*
G01*
X6140000Y-10875000D02*
G75*
G03*
X6140000Y-10875000I-40000J0D01*
G01*
X6140000Y-11637000D02*
G75*
G03*
X6140000Y-11637000I-40000J0D01*
G01*
X11174000Y-13575000D02*
G75*
G03*
X11174000Y-13575000I-40000J0D01*
G01*
X12190000Y-13575000D02*
G75*
G03*
X12190000Y-13575000I-40000J0D01*
G01*
X8311000Y-12000000D02*
G75*
G03*
X8311000Y-12000000I-40000J0D01*
G01*
X9327000Y-12000000D02*
G75*
G03*
X9327000Y-12000000I-40000J0D01*
G01*
X5415000Y-12525000D02*
G75*
G03*
X5415000Y-12525000I-40000J0D01*
G01*
X5415000Y-13287000D02*
G75*
G03*
X5415000Y-13287000I-40000J0D01*
G01*
X11378000Y-12388000D02*
G75*
G03*
X11378000Y-12388000I-40000J0D01*
G01*
X11378000Y-12642000D02*
G75*
G03*
X11378000Y-12642000I-40000J0D01*
G01*
X11378000Y-12896000D02*
G75*
G03*
X11378000Y-12896000I-40000J0D01*
G01*
X11378000Y-13150000D02*
G75*
G03*
X11378000Y-13150000I-40000J0D01*
G01*
X12140000Y-12388000D02*
G75*
G03*
X12140000Y-12388000I-40000J0D01*
G01*
X12140000Y-12642000D02*
G75*
G03*
X12140000Y-12642000I-40000J0D01*
G01*
X12140000Y-12896000D02*
G75*
G03*
X12140000Y-12896000I-40000J0D01*
G01*
X12140000Y-13150000D02*
G75*
G03*
X12140000Y-13150000I-40000J0D01*
G01*
X10165000Y-10338000D02*
G75*
G03*
X10165000Y-10338000I-40000J0D01*
G01*
X10165000Y-11100000D02*
G75*
G03*
X10165000Y-11100000I-40000J0D01*
G01*
X9855000Y-13715000D02*
G75*
G03*
X9855000Y-13715000I-40000J0D01*
G01*
X9855000Y-13969000D02*
G75*
G03*
X9855000Y-13969000I-40000J0D01*
G01*
X9855000Y-14223000D02*
G75*
G03*
X9855000Y-14223000I-40000J0D01*
G01*
X9855000Y-14477000D02*
G75*
G03*
X9855000Y-14477000I-40000J0D01*
G01*
X9855000Y-14731000D02*
G75*
G03*
X9855000Y-14731000I-40000J0D01*
G01*
X9855000Y-14985000D02*
G75*
G03*
X9855000Y-14985000I-40000J0D01*
G01*
X9855000Y-15239000D02*
G75*
G03*
X9855000Y-15239000I-40000J0D01*
G01*
X9855000Y-15493000D02*
G75*
G03*
X9855000Y-15493000I-40000J0D01*
G01*
X10617000Y-13715000D02*
G75*
G03*
X10617000Y-13715000I-40000J0D01*
G01*
X10617000Y-13969000D02*
G75*
G03*
X10617000Y-13969000I-40000J0D01*
G01*
X10617000Y-14223000D02*
G75*
G03*
X10617000Y-14223000I-40000J0D01*
G01*
X10617000Y-14477000D02*
G75*
G03*
X10617000Y-14477000I-40000J0D01*
G01*
X10617000Y-14731000D02*
G75*
G03*
X10617000Y-14731000I-40000J0D01*
G01*
X10617000Y-14985000D02*
G75*
G03*
X10617000Y-14985000I-40000J0D01*
G01*
X10617000Y-15239000D02*
G75*
G03*
X10617000Y-15239000I-40000J0D01*
G01*
X10617000Y-15493000D02*
G75*
G03*
X10617000Y-15493000I-40000J0D01*
G01*
X9853000Y-13400000D02*
G75*
G03*
X9853000Y-13400000I-40000J0D01*
G01*
X10615000Y-13400000D02*
G75*
G03*
X10615000Y-13400000I-40000J0D01*
G01*
X10403000Y-10275000D02*
G75*
G03*
X10403000Y-10275000I-40000J0D01*
G01*
X11165000Y-10275000D02*
G75*
G03*
X11165000Y-10275000I-40000J0D01*
G01*
X10515000Y-11350000D02*
G75*
G03*
X10515000Y-11350000I-40000J0D01*
G01*
X10515000Y-12874000D02*
G75*
G03*
X10515000Y-12874000I-40000J0D01*
G01*
X11400000Y-10501000D02*
X11400000Y-10591000D01*
X11355000Y-10546000D02*
X11445000Y-10546000D01*
X11400000Y-10755000D02*
X11400000Y-10845000D01*
X11355000Y-10800000D02*
X11445000Y-10800000D01*
X11925000Y-10501000D02*
X11925000Y-10591000D01*
X11880000Y-10546000D02*
X11970000Y-10546000D01*
X11925000Y-10755000D02*
X11925000Y-10845000D01*
X11880000Y-10800000D02*
X11970000Y-10800000D01*
X9310356Y-13611356D02*
X9310356Y-13540644D01*
X9239644Y-13540644D01*
X9239644Y-13611356D01*
X9310356Y-13611356D01*
X9310356Y-13865356D02*
X9310356Y-13794644D01*
X9239644Y-13794644D01*
X9239644Y-13865356D01*
X9310356Y-13865356D01*
X9310356Y-14119356D02*
X9310356Y-14048644D01*
X9239644Y-14048644D01*
X9239644Y-14119356D01*
X9310356Y-14119356D01*
X9310356Y-14373356D02*
X9310356Y-14302644D01*
X9239644Y-14302644D01*
X9239644Y-14373356D01*
X9310356Y-14373356D01*
X9310356Y-14627356D02*
X9310356Y-14556644D01*
X9239644Y-14556644D01*
X9239644Y-14627356D01*
X9310356Y-14627356D01*
X9310356Y-14881356D02*
X9310356Y-14810644D01*
X9239644Y-14810644D01*
X9239644Y-14881356D01*
X9310356Y-14881356D01*
X9310356Y-15135356D02*
X9310356Y-15064644D01*
X9239644Y-15064644D01*
X9239644Y-15135356D01*
X9310356Y-15135356D01*
X9310356Y-15389356D02*
X9310356Y-15318644D01*
X9239644Y-15318644D01*
X9239644Y-15389356D01*
X9310356Y-15389356D01*
X7485356Y-13615356D02*
X7485356Y-13544644D01*
X7414644Y-13544644D01*
X7414644Y-13615356D01*
X7485356Y-13615356D01*
X7485356Y-13869356D02*
X7485356Y-13798644D01*
X7414644Y-13798644D01*
X7414644Y-13869356D01*
X7485356Y-13869356D01*
X7485356Y-14123356D02*
X7485356Y-14052644D01*
X7414644Y-14052644D01*
X7414644Y-14123356D01*
X7485356Y-14123356D01*
X7485356Y-14377356D02*
X7485356Y-14306644D01*
X7414644Y-14306644D01*
X7414644Y-14377356D01*
X7485356Y-14377356D01*
X7485356Y-14631356D02*
X7485356Y-14560644D01*
X7414644Y-14560644D01*
X7414644Y-14631356D01*
X7485356Y-14631356D01*
X7485356Y-14885356D02*
X7485356Y-14814644D01*
X7414644Y-14814644D01*
X7414644Y-14885356D01*
X7485356Y-14885356D01*
X7485356Y-15139356D02*
X7485356Y-15068644D01*
X7414644Y-15068644D01*
X7414644Y-15139356D01*
X7485356Y-15139356D01*
X7485356Y-15393356D02*
X7485356Y-15322644D01*
X7414644Y-15322644D01*
X7414644Y-15393356D01*
X7485356Y-15393356D01*
X7485356Y-15647356D02*
X7485356Y-15576644D01*
X7414644Y-15576644D01*
X7414644Y-15647356D01*
X7485356Y-15647356D01*
X7685356Y-12735356D02*
X7685356Y-12664644D01*
X7614644Y-12664644D01*
X7614644Y-12735356D01*
X7685356Y-12735356D01*
X7939356Y-12735356D02*
X7939356Y-12664644D01*
X7868644Y-12664644D01*
X7868644Y-12735356D01*
X7939356Y-12735356D01*
X10510356Y-10810356D02*
X10510356Y-10739644D01*
X10439644Y-10739644D01*
X10439644Y-10810356D01*
X10510356Y-10810356D01*
X10764356Y-10810356D02*
X10764356Y-10739644D01*
X10693644Y-10739644D01*
X10693644Y-10810356D01*
X10764356Y-10810356D01*
X11018356Y-10810356D02*
X11018356Y-10739644D01*
X10947644Y-10739644D01*
X10947644Y-10810356D01*
X11018356Y-10810356D01*
X10835356Y-12248356D02*
X10835356Y-12177644D01*
X10764644Y-12177644D01*
X10764644Y-12248356D01*
X10835356Y-12248356D01*
X10835356Y-12502356D02*
X10835356Y-12431644D01*
X10764644Y-12431644D01*
X10764644Y-12502356D01*
X10835356Y-12502356D01*
X10835356Y-12756356D02*
X10835356Y-12685644D01*
X10764644Y-12685644D01*
X10764644Y-12756356D01*
X10835356Y-12756356D01*
X10835356Y-13010356D02*
X10835356Y-12939644D01*
X10764644Y-12939644D01*
X10764644Y-13010356D01*
X10835356Y-13010356D01*
D12*
X5281428Y-16470714D02*
X5281428Y-16170714D01*
X5352857Y-16170714D01*
X5395714Y-16185000D01*
X5424286Y-16213571D01*
X5438571Y-16242143D01*
X5452857Y-16299286D01*
X5452857Y-16342143D01*
X5438571Y-16399286D01*
X5424286Y-16427857D01*
X5395714Y-16456429D01*
X5352857Y-16470714D01*
X5281428Y-16470714D01*
X5581428Y-16470714D02*
X5581428Y-16270714D01*
X5581428Y-16327857D02*
X5595714Y-16299286D01*
X5610000Y-16285000D01*
X5638571Y-16270714D01*
X5667143Y-16270714D01*
X5767143Y-16470714D02*
X5767143Y-16270714D01*
X5767143Y-16170714D02*
X5752857Y-16185000D01*
X5767143Y-16199286D01*
X5781428Y-16185000D01*
X5767143Y-16170714D01*
X5767143Y-16199286D01*
X5952857Y-16470714D02*
X5924286Y-16456429D01*
X5910000Y-16427857D01*
X5910000Y-16170714D01*
X6110000Y-16470714D02*
X6081428Y-16456429D01*
X6067143Y-16427857D01*
X6067143Y-16170714D01*
X6452857Y-16470714D02*
X6452857Y-16170714D01*
X6552857Y-16385000D01*
X6652857Y-16170714D01*
X6652857Y-16470714D01*
X6924286Y-16470714D02*
X6924286Y-16313571D01*
X6910000Y-16285000D01*
X6881428Y-16270714D01*
X6824286Y-16270714D01*
X6795714Y-16285000D01*
X6924286Y-16456429D02*
X6895714Y-16470714D01*
X6824286Y-16470714D01*
X6795714Y-16456429D01*
X6781428Y-16427857D01*
X6781428Y-16399286D01*
X6795714Y-16370714D01*
X6824286Y-16356429D01*
X6895714Y-16356429D01*
X6924286Y-16342143D01*
X7067143Y-16270714D02*
X7067143Y-16570714D01*
X7067143Y-16285000D02*
X7095714Y-16270714D01*
X7152857Y-16270714D01*
X7181428Y-16285000D01*
X7195714Y-16299286D01*
X7210000Y-16327857D01*
X7210000Y-16413571D01*
X7195714Y-16442143D01*
X7181428Y-16456429D01*
X7152857Y-16470714D01*
X7095714Y-16470714D01*
X7067143Y-16456429D01*
X7338571Y-16442143D02*
X7352857Y-16456429D01*
X7338571Y-16470714D01*
X7324286Y-16456429D01*
X7338571Y-16442143D01*
X7338571Y-16470714D01*
X7338571Y-16285000D02*
X7352857Y-16299286D01*
X7338571Y-16313571D01*
X7324286Y-16299286D01*
X7338571Y-16285000D01*
X7338571Y-16313571D01*
X4920000Y-16927500D02*
X4995000Y-17002500D01*
X4995000Y-16927500D02*
X4920000Y-17002500D01*
X5338571Y-16800714D02*
X5367143Y-16800714D01*
X5395714Y-16815000D01*
X5410000Y-16829286D01*
X5424286Y-16857857D01*
X5438571Y-16915000D01*
X5438571Y-16986429D01*
X5424286Y-17043572D01*
X5410000Y-17072143D01*
X5395714Y-17086429D01*
X5367143Y-17100714D01*
X5338571Y-17100714D01*
X5310000Y-17086429D01*
X5295714Y-17072143D01*
X5281428Y-17043572D01*
X5267143Y-16986429D01*
X5267143Y-16915000D01*
X5281428Y-16857857D01*
X5295714Y-16829286D01*
X5310000Y-16815000D01*
X5338571Y-16800714D01*
X5567143Y-17072143D02*
X5581428Y-17086429D01*
X5567143Y-17100714D01*
X5552857Y-17086429D01*
X5567143Y-17072143D01*
X5567143Y-17100714D01*
X5681428Y-16800714D02*
X5881428Y-16800714D01*
X5752857Y-17100714D01*
X6138571Y-16800714D02*
X5995714Y-16800714D01*
X5981428Y-16943572D01*
X5995714Y-16929286D01*
X6024286Y-16915000D01*
X6095714Y-16915000D01*
X6124286Y-16929286D01*
X6138571Y-16943572D01*
X6152857Y-16972143D01*
X6152857Y-17043572D01*
X6138571Y-17072143D01*
X6124286Y-17086429D01*
X6095714Y-17100714D01*
X6024286Y-17100714D01*
X5995714Y-17086429D01*
X5981428Y-17072143D01*
X6281428Y-17100714D02*
X6281428Y-16900714D01*
X6281428Y-16929286D02*
X6295714Y-16915000D01*
X6324286Y-16900714D01*
X6367143Y-16900714D01*
X6395714Y-16915000D01*
X6410000Y-16943572D01*
X6410000Y-17100714D01*
X6410000Y-16943572D02*
X6424286Y-16915000D01*
X6452857Y-16900714D01*
X6495714Y-16900714D01*
X6524286Y-16915000D01*
X6538571Y-16943572D01*
X6538571Y-17100714D01*
X6681428Y-17100714D02*
X6681428Y-16900714D01*
X6681428Y-16929286D02*
X6695714Y-16915000D01*
X6724286Y-16900714D01*
X6767143Y-16900714D01*
X6795714Y-16915000D01*
X6810000Y-16943572D01*
X6810000Y-17100714D01*
X6810000Y-16943572D02*
X6824286Y-16915000D01*
X6852857Y-16900714D01*
X6895714Y-16900714D01*
X6924286Y-16915000D01*
X6938571Y-16943572D01*
X6938571Y-17100714D01*
X7524286Y-16786429D02*
X7267143Y-17172143D01*
X7910000Y-16800714D02*
X7938571Y-16800714D01*
X7967143Y-16815000D01*
X7981428Y-16829286D01*
X7995714Y-16857857D01*
X8010000Y-16915000D01*
X8010000Y-16986429D01*
X7995714Y-17043572D01*
X7981428Y-17072143D01*
X7967143Y-17086429D01*
X7938571Y-17100714D01*
X7910000Y-17100714D01*
X7881428Y-17086429D01*
X7867143Y-17072143D01*
X7852857Y-17043572D01*
X7838571Y-16986429D01*
X7838571Y-16915000D01*
X7852857Y-16857857D01*
X7867143Y-16829286D01*
X7881428Y-16815000D01*
X7910000Y-16800714D01*
X8138571Y-17072143D02*
X8152857Y-17086429D01*
X8138571Y-17100714D01*
X8124286Y-17086429D01*
X8138571Y-17072143D01*
X8138571Y-17100714D01*
X8338571Y-16800714D02*
X8367143Y-16800714D01*
X8395714Y-16815000D01*
X8410000Y-16829286D01*
X8424286Y-16857857D01*
X8438571Y-16915000D01*
X8438571Y-16986429D01*
X8424286Y-17043572D01*
X8410000Y-17072143D01*
X8395714Y-17086429D01*
X8367143Y-17100714D01*
X8338571Y-17100714D01*
X8310000Y-17086429D01*
X8295714Y-17072143D01*
X8281428Y-17043572D01*
X8267143Y-16986429D01*
X8267143Y-16915000D01*
X8281428Y-16857857D01*
X8295714Y-16829286D01*
X8310000Y-16815000D01*
X8338571Y-16800714D01*
X8538571Y-16800714D02*
X8724286Y-16800714D01*
X8624286Y-16915000D01*
X8667143Y-16915000D01*
X8695714Y-16929286D01*
X8710000Y-16943572D01*
X8724286Y-16972143D01*
X8724286Y-17043572D01*
X8710000Y-17072143D01*
X8695714Y-17086429D01*
X8667143Y-17100714D01*
X8581428Y-17100714D01*
X8552857Y-17086429D01*
X8538571Y-17072143D01*
X8910000Y-16800714D02*
X8938571Y-16800714D01*
X8967143Y-16815000D01*
X8981428Y-16829286D01*
X8995714Y-16857857D01*
X9010000Y-16915000D01*
X9010000Y-16986429D01*
X8995714Y-17043572D01*
X8981428Y-17072143D01*
X8967143Y-17086429D01*
X8938571Y-17100714D01*
X8910000Y-17100714D01*
X8881428Y-17086429D01*
X8867143Y-17072143D01*
X8852857Y-17043572D01*
X8838571Y-16986429D01*
X8838571Y-16915000D01*
X8852857Y-16857857D01*
X8867143Y-16829286D01*
X8881428Y-16815000D01*
X8910000Y-16800714D01*
X9124286Y-16800714D02*
X9124286Y-16857857D01*
X9238571Y-16800714D02*
X9238571Y-16857857D01*
X9681428Y-17215000D02*
X9667143Y-17200714D01*
X9638571Y-17157857D01*
X9624286Y-17129286D01*
X9610000Y-17086429D01*
X9595714Y-17015000D01*
X9595714Y-16957857D01*
X9610000Y-16886429D01*
X9624286Y-16843572D01*
X9638571Y-16815000D01*
X9667143Y-16772143D01*
X9681428Y-16757857D01*
X9767143Y-16800714D02*
X9952857Y-16800714D01*
X9852857Y-16915000D01*
X9895714Y-16915000D01*
X9924286Y-16929286D01*
X9938571Y-16943572D01*
X9952857Y-16972143D01*
X9952857Y-17043572D01*
X9938571Y-17072143D01*
X9924286Y-17086429D01*
X9895714Y-17100714D01*
X9810000Y-17100714D01*
X9781428Y-17086429D01*
X9767143Y-17072143D01*
X10310000Y-17100714D02*
X10310000Y-16800714D01*
X10438571Y-17100714D02*
X10438571Y-16943572D01*
X10424286Y-16915000D01*
X10395714Y-16900714D01*
X10352857Y-16900714D01*
X10324286Y-16915000D01*
X10310000Y-16929286D01*
X10624286Y-17100714D02*
X10595714Y-17086429D01*
X10581428Y-17072143D01*
X10567143Y-17043572D01*
X10567143Y-16957857D01*
X10581428Y-16929286D01*
X10595714Y-16915000D01*
X10624286Y-16900714D01*
X10667143Y-16900714D01*
X10695714Y-16915000D01*
X10710000Y-16929286D01*
X10724286Y-16957857D01*
X10724286Y-17043572D01*
X10710000Y-17072143D01*
X10695714Y-17086429D01*
X10667143Y-17100714D01*
X10624286Y-17100714D01*
X10895714Y-17100714D02*
X10867143Y-17086429D01*
X10852857Y-17057857D01*
X10852857Y-16800714D01*
X11124286Y-17086429D02*
X11095714Y-17100714D01*
X11038571Y-17100714D01*
X11010000Y-17086429D01*
X10995714Y-17057857D01*
X10995714Y-16943572D01*
X11010000Y-16915000D01*
X11038571Y-16900714D01*
X11095714Y-16900714D01*
X11124286Y-16915000D01*
X11138571Y-16943572D01*
X11138571Y-16972143D01*
X10995714Y-17000714D01*
X11252857Y-17086429D02*
X11281428Y-17100714D01*
X11338571Y-17100714D01*
X11367143Y-17086429D01*
X11381428Y-17057857D01*
X11381428Y-17043572D01*
X11367143Y-17015000D01*
X11338571Y-17000714D01*
X11295714Y-17000714D01*
X11267143Y-16986429D01*
X11252857Y-16957857D01*
X11252857Y-16943572D01*
X11267143Y-16915000D01*
X11295714Y-16900714D01*
X11338571Y-16900714D01*
X11367143Y-16915000D01*
X11481428Y-17215000D02*
X11495714Y-17200714D01*
X11524286Y-17157857D01*
X11538571Y-17129286D01*
X11552857Y-17086429D01*
X11567143Y-17015000D01*
X11567143Y-16957857D01*
X11552857Y-16886429D01*
X11538571Y-16843572D01*
X11524286Y-16815000D01*
X11495714Y-16772143D01*
X11481428Y-16757857D01*
X4995000Y-17361000D02*
G75*
G03*
X4995000Y-17361000I-40000J0D01*
G01*
X5338571Y-17196714D02*
X5367143Y-17196714D01*
X5395714Y-17211000D01*
X5410000Y-17225286D01*
X5424286Y-17253857D01*
X5438571Y-17311000D01*
X5438571Y-17382429D01*
X5424286Y-17439572D01*
X5410000Y-17468143D01*
X5395714Y-17482429D01*
X5367143Y-17496714D01*
X5338571Y-17496714D01*
X5310000Y-17482429D01*
X5295714Y-17468143D01*
X5281428Y-17439572D01*
X5267143Y-17382429D01*
X5267143Y-17311000D01*
X5281428Y-17253857D01*
X5295714Y-17225286D01*
X5310000Y-17211000D01*
X5338571Y-17196714D01*
X5567143Y-17468143D02*
X5581428Y-17482429D01*
X5567143Y-17496714D01*
X5552857Y-17482429D01*
X5567143Y-17468143D01*
X5567143Y-17496714D01*
X5752857Y-17325286D02*
X5724286Y-17311000D01*
X5710000Y-17296714D01*
X5695714Y-17268143D01*
X5695714Y-17253857D01*
X5710000Y-17225286D01*
X5724286Y-17211000D01*
X5752857Y-17196714D01*
X5810000Y-17196714D01*
X5838571Y-17211000D01*
X5852857Y-17225286D01*
X5867143Y-17253857D01*
X5867143Y-17268143D01*
X5852857Y-17296714D01*
X5838571Y-17311000D01*
X5810000Y-17325286D01*
X5752857Y-17325286D01*
X5724286Y-17339572D01*
X5710000Y-17353857D01*
X5695714Y-17382429D01*
X5695714Y-17439572D01*
X5710000Y-17468143D01*
X5724286Y-17482429D01*
X5752857Y-17496714D01*
X5810000Y-17496714D01*
X5838571Y-17482429D01*
X5852857Y-17468143D01*
X5867143Y-17439572D01*
X5867143Y-17382429D01*
X5852857Y-17353857D01*
X5838571Y-17339572D01*
X5810000Y-17325286D01*
X6052857Y-17196714D02*
X6081428Y-17196714D01*
X6110000Y-17211000D01*
X6124286Y-17225286D01*
X6138571Y-17253857D01*
X6152857Y-17311000D01*
X6152857Y-17382429D01*
X6138571Y-17439572D01*
X6124286Y-17468143D01*
X6110000Y-17482429D01*
X6081428Y-17496714D01*
X6052857Y-17496714D01*
X6024286Y-17482429D01*
X6010000Y-17468143D01*
X5995714Y-17439572D01*
X5981428Y-17382429D01*
X5981428Y-17311000D01*
X5995714Y-17253857D01*
X6010000Y-17225286D01*
X6024286Y-17211000D01*
X6052857Y-17196714D01*
X6281428Y-17496714D02*
X6281428Y-17296714D01*
X6281428Y-17325286D02*
X6295714Y-17311000D01*
X6324286Y-17296714D01*
X6367143Y-17296714D01*
X6395714Y-17311000D01*
X6410000Y-17339572D01*
X6410000Y-17496714D01*
X6410000Y-17339572D02*
X6424286Y-17311000D01*
X6452857Y-17296714D01*
X6495714Y-17296714D01*
X6524286Y-17311000D01*
X6538571Y-17339572D01*
X6538571Y-17496714D01*
X6681428Y-17496714D02*
X6681428Y-17296714D01*
X6681428Y-17325286D02*
X6695714Y-17311000D01*
X6724286Y-17296714D01*
X6767143Y-17296714D01*
X6795714Y-17311000D01*
X6810000Y-17339572D01*
X6810000Y-17496714D01*
X6810000Y-17339572D02*
X6824286Y-17311000D01*
X6852857Y-17296714D01*
X6895714Y-17296714D01*
X6924286Y-17311000D01*
X6938571Y-17339572D01*
X6938571Y-17496714D01*
X7524286Y-17182429D02*
X7267143Y-17568143D01*
X7910000Y-17196714D02*
X7938571Y-17196714D01*
X7967143Y-17211000D01*
X7981428Y-17225286D01*
X7995714Y-17253857D01*
X8010000Y-17311000D01*
X8010000Y-17382429D01*
X7995714Y-17439572D01*
X7981428Y-17468143D01*
X7967143Y-17482429D01*
X7938571Y-17496714D01*
X7910000Y-17496714D01*
X7881428Y-17482429D01*
X7867143Y-17468143D01*
X7852857Y-17439572D01*
X7838571Y-17382429D01*
X7838571Y-17311000D01*
X7852857Y-17253857D01*
X7867143Y-17225286D01*
X7881428Y-17211000D01*
X7910000Y-17196714D01*
X8138571Y-17468143D02*
X8152857Y-17482429D01*
X8138571Y-17496714D01*
X8124286Y-17482429D01*
X8138571Y-17468143D01*
X8138571Y-17496714D01*
X8338571Y-17196714D02*
X8367143Y-17196714D01*
X8395714Y-17211000D01*
X8410000Y-17225286D01*
X8424286Y-17253857D01*
X8438571Y-17311000D01*
X8438571Y-17382429D01*
X8424286Y-17439572D01*
X8410000Y-17468143D01*
X8395714Y-17482429D01*
X8367143Y-17496714D01*
X8338571Y-17496714D01*
X8310000Y-17482429D01*
X8295714Y-17468143D01*
X8281428Y-17439572D01*
X8267143Y-17382429D01*
X8267143Y-17311000D01*
X8281428Y-17253857D01*
X8295714Y-17225286D01*
X8310000Y-17211000D01*
X8338571Y-17196714D01*
X8538571Y-17196714D02*
X8724286Y-17196714D01*
X8624286Y-17311000D01*
X8667143Y-17311000D01*
X8695714Y-17325286D01*
X8710000Y-17339572D01*
X8724286Y-17368143D01*
X8724286Y-17439572D01*
X8710000Y-17468143D01*
X8695714Y-17482429D01*
X8667143Y-17496714D01*
X8581428Y-17496714D01*
X8552857Y-17482429D01*
X8538571Y-17468143D01*
X9010000Y-17496714D02*
X8838571Y-17496714D01*
X8924286Y-17496714D02*
X8924286Y-17196714D01*
X8895714Y-17239572D01*
X8867143Y-17268143D01*
X8838571Y-17282429D01*
X9124286Y-17196714D02*
X9124286Y-17253857D01*
X9238571Y-17196714D02*
X9238571Y-17253857D01*
X9681428Y-17611000D02*
X9667143Y-17596714D01*
X9638571Y-17553857D01*
X9624286Y-17525286D01*
X9610000Y-17482429D01*
X9595714Y-17411000D01*
X9595714Y-17353857D01*
X9610000Y-17282429D01*
X9624286Y-17239572D01*
X9638571Y-17211000D01*
X9667143Y-17168143D01*
X9681428Y-17153857D01*
X9952857Y-17496714D02*
X9781428Y-17496714D01*
X9867143Y-17496714D02*
X9867143Y-17196714D01*
X9838571Y-17239572D01*
X9810000Y-17268143D01*
X9781428Y-17282429D01*
X10224286Y-17196714D02*
X10081428Y-17196714D01*
X10067143Y-17339572D01*
X10081428Y-17325286D01*
X10110000Y-17311000D01*
X10181428Y-17311000D01*
X10210000Y-17325286D01*
X10224286Y-17339572D01*
X10238571Y-17368143D01*
X10238571Y-17439572D01*
X10224286Y-17468143D01*
X10210000Y-17482429D01*
X10181428Y-17496714D01*
X10110000Y-17496714D01*
X10081428Y-17482429D01*
X10067143Y-17468143D01*
X10352857Y-17225286D02*
X10367143Y-17211000D01*
X10395714Y-17196714D01*
X10467143Y-17196714D01*
X10495714Y-17211000D01*
X10510000Y-17225286D01*
X10524286Y-17253857D01*
X10524286Y-17282429D01*
X10510000Y-17325286D01*
X10338571Y-17496714D01*
X10524286Y-17496714D01*
X10881428Y-17496714D02*
X10881428Y-17196714D01*
X11010000Y-17496714D02*
X11010000Y-17339572D01*
X10995714Y-17311000D01*
X10967143Y-17296714D01*
X10924286Y-17296714D01*
X10895714Y-17311000D01*
X10881428Y-17325286D01*
X11195714Y-17496714D02*
X11167143Y-17482429D01*
X11152857Y-17468143D01*
X11138571Y-17439572D01*
X11138571Y-17353857D01*
X11152857Y-17325286D01*
X11167143Y-17311000D01*
X11195714Y-17296714D01*
X11238571Y-17296714D01*
X11267143Y-17311000D01*
X11281428Y-17325286D01*
X11295714Y-17353857D01*
X11295714Y-17439572D01*
X11281428Y-17468143D01*
X11267143Y-17482429D01*
X11238571Y-17496714D01*
X11195714Y-17496714D01*
X11467143Y-17496714D02*
X11438571Y-17482429D01*
X11424286Y-17453857D01*
X11424286Y-17196714D01*
X11695714Y-17482429D02*
X11667143Y-17496714D01*
X11610000Y-17496714D01*
X11581428Y-17482429D01*
X11567143Y-17453857D01*
X11567143Y-17339572D01*
X11581428Y-17311000D01*
X11610000Y-17296714D01*
X11667143Y-17296714D01*
X11695714Y-17311000D01*
X11710000Y-17339572D01*
X11710000Y-17368143D01*
X11567143Y-17396714D01*
X11824286Y-17482429D02*
X11852857Y-17496714D01*
X11910000Y-17496714D01*
X11938571Y-17482429D01*
X11952857Y-17453857D01*
X11952857Y-17439572D01*
X11938571Y-17411000D01*
X11910000Y-17396714D01*
X11867143Y-17396714D01*
X11838571Y-17382429D01*
X11824286Y-17353857D01*
X11824286Y-17339572D01*
X11838571Y-17311000D01*
X11867143Y-17296714D01*
X11910000Y-17296714D01*
X11938571Y-17311000D01*
X12052857Y-17611000D02*
X12067143Y-17596714D01*
X12095714Y-17553857D01*
X12110000Y-17525286D01*
X12124286Y-17482429D01*
X12138571Y-17411000D01*
X12138571Y-17353857D01*
X12124286Y-17282429D01*
X12110000Y-17239572D01*
X12095714Y-17211000D01*
X12067143Y-17168143D01*
X12052857Y-17153857D01*
X4950000Y-17712000D02*
X4950000Y-17802000D01*
X4905000Y-17757000D02*
X4995000Y-17757000D01*
X5338571Y-17592714D02*
X5367143Y-17592714D01*
X5395714Y-17607000D01*
X5410000Y-17621286D01*
X5424286Y-17649857D01*
X5438571Y-17707000D01*
X5438571Y-17778429D01*
X5424286Y-17835572D01*
X5410000Y-17864143D01*
X5395714Y-17878429D01*
X5367143Y-17892714D01*
X5338571Y-17892714D01*
X5310000Y-17878429D01*
X5295714Y-17864143D01*
X5281428Y-17835572D01*
X5267143Y-17778429D01*
X5267143Y-17707000D01*
X5281428Y-17649857D01*
X5295714Y-17621286D01*
X5310000Y-17607000D01*
X5338571Y-17592714D01*
X5567143Y-17864143D02*
X5581428Y-17878429D01*
X5567143Y-17892714D01*
X5552857Y-17878429D01*
X5567143Y-17864143D01*
X5567143Y-17892714D01*
X5724286Y-17892714D02*
X5781428Y-17892714D01*
X5810000Y-17878429D01*
X5824286Y-17864143D01*
X5852857Y-17821286D01*
X5867143Y-17764143D01*
X5867143Y-17649857D01*
X5852857Y-17621286D01*
X5838571Y-17607000D01*
X5810000Y-17592714D01*
X5752857Y-17592714D01*
X5724286Y-17607000D01*
X5710000Y-17621286D01*
X5695714Y-17649857D01*
X5695714Y-17721286D01*
X5710000Y-17749857D01*
X5724286Y-17764143D01*
X5752857Y-17778429D01*
X5810000Y-17778429D01*
X5838571Y-17764143D01*
X5852857Y-17749857D01*
X5867143Y-17721286D01*
X6052857Y-17592714D02*
X6081428Y-17592714D01*
X6110000Y-17607000D01*
X6124286Y-17621286D01*
X6138571Y-17649857D01*
X6152857Y-17707000D01*
X6152857Y-17778429D01*
X6138571Y-17835572D01*
X6124286Y-17864143D01*
X6110000Y-17878429D01*
X6081428Y-17892714D01*
X6052857Y-17892714D01*
X6024286Y-17878429D01*
X6010000Y-17864143D01*
X5995714Y-17835572D01*
X5981428Y-17778429D01*
X5981428Y-17707000D01*
X5995714Y-17649857D01*
X6010000Y-17621286D01*
X6024286Y-17607000D01*
X6052857Y-17592714D01*
X6281428Y-17892714D02*
X6281428Y-17692714D01*
X6281428Y-17721286D02*
X6295714Y-17707000D01*
X6324286Y-17692714D01*
X6367143Y-17692714D01*
X6395714Y-17707000D01*
X6410000Y-17735572D01*
X6410000Y-17892714D01*
X6410000Y-17735572D02*
X6424286Y-17707000D01*
X6452857Y-17692714D01*
X6495714Y-17692714D01*
X6524286Y-17707000D01*
X6538571Y-17735572D01*
X6538571Y-17892714D01*
X6681428Y-17892714D02*
X6681428Y-17692714D01*
X6681428Y-17721286D02*
X6695714Y-17707000D01*
X6724286Y-17692714D01*
X6767143Y-17692714D01*
X6795714Y-17707000D01*
X6810000Y-17735572D01*
X6810000Y-17892714D01*
X6810000Y-17735572D02*
X6824286Y-17707000D01*
X6852857Y-17692714D01*
X6895714Y-17692714D01*
X6924286Y-17707000D01*
X6938571Y-17735572D01*
X6938571Y-17892714D01*
X7524286Y-17578429D02*
X7267143Y-17964143D01*
X7910000Y-17592714D02*
X7938571Y-17592714D01*
X7967143Y-17607000D01*
X7981428Y-17621286D01*
X7995714Y-17649857D01*
X8010000Y-17707000D01*
X8010000Y-17778429D01*
X7995714Y-17835572D01*
X7981428Y-17864143D01*
X7967143Y-17878429D01*
X7938571Y-17892714D01*
X7910000Y-17892714D01*
X7881428Y-17878429D01*
X7867143Y-17864143D01*
X7852857Y-17835572D01*
X7838571Y-17778429D01*
X7838571Y-17707000D01*
X7852857Y-17649857D01*
X7867143Y-17621286D01*
X7881428Y-17607000D01*
X7910000Y-17592714D01*
X8138571Y-17864143D02*
X8152857Y-17878429D01*
X8138571Y-17892714D01*
X8124286Y-17878429D01*
X8138571Y-17864143D01*
X8138571Y-17892714D01*
X8338571Y-17592714D02*
X8367143Y-17592714D01*
X8395714Y-17607000D01*
X8410000Y-17621286D01*
X8424286Y-17649857D01*
X8438571Y-17707000D01*
X8438571Y-17778429D01*
X8424286Y-17835572D01*
X8410000Y-17864143D01*
X8395714Y-17878429D01*
X8367143Y-17892714D01*
X8338571Y-17892714D01*
X8310000Y-17878429D01*
X8295714Y-17864143D01*
X8281428Y-17835572D01*
X8267143Y-17778429D01*
X8267143Y-17707000D01*
X8281428Y-17649857D01*
X8295714Y-17621286D01*
X8310000Y-17607000D01*
X8338571Y-17592714D01*
X8538571Y-17592714D02*
X8724286Y-17592714D01*
X8624286Y-17707000D01*
X8667143Y-17707000D01*
X8695714Y-17721286D01*
X8710000Y-17735572D01*
X8724286Y-17764143D01*
X8724286Y-17835572D01*
X8710000Y-17864143D01*
X8695714Y-17878429D01*
X8667143Y-17892714D01*
X8581428Y-17892714D01*
X8552857Y-17878429D01*
X8538571Y-17864143D01*
X8995714Y-17592714D02*
X8852857Y-17592714D01*
X8838571Y-17735572D01*
X8852857Y-17721286D01*
X8881428Y-17707000D01*
X8952857Y-17707000D01*
X8981428Y-17721286D01*
X8995714Y-17735572D01*
X9010000Y-17764143D01*
X9010000Y-17835572D01*
X8995714Y-17864143D01*
X8981428Y-17878429D01*
X8952857Y-17892714D01*
X8881428Y-17892714D01*
X8852857Y-17878429D01*
X8838571Y-17864143D01*
X9124286Y-17592714D02*
X9124286Y-17649857D01*
X9238571Y-17592714D02*
X9238571Y-17649857D01*
X9681428Y-18007000D02*
X9667143Y-17992714D01*
X9638571Y-17949857D01*
X9624286Y-17921286D01*
X9610000Y-17878429D01*
X9595714Y-17807000D01*
X9595714Y-17749857D01*
X9610000Y-17678429D01*
X9624286Y-17635572D01*
X9638571Y-17607000D01*
X9667143Y-17564143D01*
X9681428Y-17549857D01*
X9924286Y-17692714D02*
X9924286Y-17892714D01*
X9852857Y-17578429D02*
X9781428Y-17792714D01*
X9967143Y-17792714D01*
X10310000Y-17892714D02*
X10310000Y-17592714D01*
X10438571Y-17892714D02*
X10438571Y-17735572D01*
X10424286Y-17707000D01*
X10395714Y-17692714D01*
X10352857Y-17692714D01*
X10324286Y-17707000D01*
X10310000Y-17721286D01*
X10624286Y-17892714D02*
X10595714Y-17878429D01*
X10581428Y-17864143D01*
X10567143Y-17835572D01*
X10567143Y-17749857D01*
X10581428Y-17721286D01*
X10595714Y-17707000D01*
X10624286Y-17692714D01*
X10667143Y-17692714D01*
X10695714Y-17707000D01*
X10710000Y-17721286D01*
X10724286Y-17749857D01*
X10724286Y-17835572D01*
X10710000Y-17864143D01*
X10695714Y-17878429D01*
X10667143Y-17892714D01*
X10624286Y-17892714D01*
X10895714Y-17892714D02*
X10867143Y-17878429D01*
X10852857Y-17849857D01*
X10852857Y-17592714D01*
X11124286Y-17878429D02*
X11095714Y-17892714D01*
X11038571Y-17892714D01*
X11010000Y-17878429D01*
X10995714Y-17849857D01*
X10995714Y-17735572D01*
X11010000Y-17707000D01*
X11038571Y-17692714D01*
X11095714Y-17692714D01*
X11124286Y-17707000D01*
X11138571Y-17735572D01*
X11138571Y-17764143D01*
X10995714Y-17792714D01*
X11252857Y-17878429D02*
X11281428Y-17892714D01*
X11338571Y-17892714D01*
X11367143Y-17878429D01*
X11381428Y-17849857D01*
X11381428Y-17835572D01*
X11367143Y-17807000D01*
X11338571Y-17792714D01*
X11295714Y-17792714D01*
X11267143Y-17778429D01*
X11252857Y-17749857D01*
X11252857Y-17735572D01*
X11267143Y-17707000D01*
X11295714Y-17692714D01*
X11338571Y-17692714D01*
X11367143Y-17707000D01*
X11481428Y-18007000D02*
X11495714Y-17992714D01*
X11524286Y-17949857D01*
X11538571Y-17921286D01*
X11552857Y-17878429D01*
X11567143Y-17807000D01*
X11567143Y-17749857D01*
X11552857Y-17678429D01*
X11538571Y-17635572D01*
X11524286Y-17607000D01*
X11495714Y-17564143D01*
X11481428Y-17549857D01*
X4980356Y-18188356D02*
X4980356Y-18117644D01*
X4909644Y-18117644D01*
X4909644Y-18188356D01*
X4980356Y-18188356D01*
X5438571Y-18288714D02*
X5267143Y-18288714D01*
X5352857Y-18288714D02*
X5352857Y-17988714D01*
X5324286Y-18031572D01*
X5295714Y-18060143D01*
X5267143Y-18074429D01*
X5567143Y-18260143D02*
X5581428Y-18274429D01*
X5567143Y-18288714D01*
X5552857Y-18274429D01*
X5567143Y-18260143D01*
X5567143Y-18288714D01*
X5767143Y-17988714D02*
X5795714Y-17988714D01*
X5824286Y-18003000D01*
X5838571Y-18017286D01*
X5852857Y-18045857D01*
X5867143Y-18103000D01*
X5867143Y-18174429D01*
X5852857Y-18231572D01*
X5838571Y-18260143D01*
X5824286Y-18274429D01*
X5795714Y-18288714D01*
X5767143Y-18288714D01*
X5738571Y-18274429D01*
X5724286Y-18260143D01*
X5710000Y-18231572D01*
X5695714Y-18174429D01*
X5695714Y-18103000D01*
X5710000Y-18045857D01*
X5724286Y-18017286D01*
X5738571Y-18003000D01*
X5767143Y-17988714D01*
X6052857Y-17988714D02*
X6081428Y-17988714D01*
X6110000Y-18003000D01*
X6124286Y-18017286D01*
X6138571Y-18045857D01*
X6152857Y-18103000D01*
X6152857Y-18174429D01*
X6138571Y-18231572D01*
X6124286Y-18260143D01*
X6110000Y-18274429D01*
X6081428Y-18288714D01*
X6052857Y-18288714D01*
X6024286Y-18274429D01*
X6010000Y-18260143D01*
X5995714Y-18231572D01*
X5981428Y-18174429D01*
X5981428Y-18103000D01*
X5995714Y-18045857D01*
X6010000Y-18017286D01*
X6024286Y-18003000D01*
X6052857Y-17988714D01*
X6281428Y-18288714D02*
X6281428Y-18088714D01*
X6281428Y-18117286D02*
X6295714Y-18103000D01*
X6324286Y-18088714D01*
X6367143Y-18088714D01*
X6395714Y-18103000D01*
X6410000Y-18131572D01*
X6410000Y-18288714D01*
X6410000Y-18131572D02*
X6424286Y-18103000D01*
X6452857Y-18088714D01*
X6495714Y-18088714D01*
X6524286Y-18103000D01*
X6538571Y-18131572D01*
X6538571Y-18288714D01*
X6681428Y-18288714D02*
X6681428Y-18088714D01*
X6681428Y-18117286D02*
X6695714Y-18103000D01*
X6724286Y-18088714D01*
X6767143Y-18088714D01*
X6795714Y-18103000D01*
X6810000Y-18131572D01*
X6810000Y-18288714D01*
X6810000Y-18131572D02*
X6824286Y-18103000D01*
X6852857Y-18088714D01*
X6895714Y-18088714D01*
X6924286Y-18103000D01*
X6938571Y-18131572D01*
X6938571Y-18288714D01*
X7524286Y-17974429D02*
X7267143Y-18360143D01*
X7910000Y-17988714D02*
X7938571Y-17988714D01*
X7967143Y-18003000D01*
X7981428Y-18017286D01*
X7995714Y-18045857D01*
X8010000Y-18103000D01*
X8010000Y-18174429D01*
X7995714Y-18231572D01*
X7981428Y-18260143D01*
X7967143Y-18274429D01*
X7938571Y-18288714D01*
X7910000Y-18288714D01*
X7881428Y-18274429D01*
X7867143Y-18260143D01*
X7852857Y-18231572D01*
X7838571Y-18174429D01*
X7838571Y-18103000D01*
X7852857Y-18045857D01*
X7867143Y-18017286D01*
X7881428Y-18003000D01*
X7910000Y-17988714D01*
X8138571Y-18260143D02*
X8152857Y-18274429D01*
X8138571Y-18288714D01*
X8124286Y-18274429D01*
X8138571Y-18260143D01*
X8138571Y-18288714D01*
X8338571Y-17988714D02*
X8367143Y-17988714D01*
X8395714Y-18003000D01*
X8410000Y-18017286D01*
X8424286Y-18045857D01*
X8438571Y-18103000D01*
X8438571Y-18174429D01*
X8424286Y-18231572D01*
X8410000Y-18260143D01*
X8395714Y-18274429D01*
X8367143Y-18288714D01*
X8338571Y-18288714D01*
X8310000Y-18274429D01*
X8295714Y-18260143D01*
X8281428Y-18231572D01*
X8267143Y-18174429D01*
X8267143Y-18103000D01*
X8281428Y-18045857D01*
X8295714Y-18017286D01*
X8310000Y-18003000D01*
X8338571Y-17988714D01*
X8538571Y-17988714D02*
X8724286Y-17988714D01*
X8624286Y-18103000D01*
X8667143Y-18103000D01*
X8695714Y-18117286D01*
X8710000Y-18131572D01*
X8724286Y-18160143D01*
X8724286Y-18231572D01*
X8710000Y-18260143D01*
X8695714Y-18274429D01*
X8667143Y-18288714D01*
X8581428Y-18288714D01*
X8552857Y-18274429D01*
X8538571Y-18260143D01*
X8867143Y-18288714D02*
X8924286Y-18288714D01*
X8952857Y-18274429D01*
X8967143Y-18260143D01*
X8995714Y-18217286D01*
X9010000Y-18160143D01*
X9010000Y-18045857D01*
X8995714Y-18017286D01*
X8981428Y-18003000D01*
X8952857Y-17988714D01*
X8895714Y-17988714D01*
X8867143Y-18003000D01*
X8852857Y-18017286D01*
X8838571Y-18045857D01*
X8838571Y-18117286D01*
X8852857Y-18145857D01*
X8867143Y-18160143D01*
X8895714Y-18174429D01*
X8952857Y-18174429D01*
X8981428Y-18160143D01*
X8995714Y-18145857D01*
X9010000Y-18117286D01*
X9124286Y-17988714D02*
X9124286Y-18045857D01*
X9238571Y-17988714D02*
X9238571Y-18045857D01*
X9681428Y-18403000D02*
X9667143Y-18388714D01*
X9638571Y-18345857D01*
X9624286Y-18317286D01*
X9610000Y-18274429D01*
X9595714Y-18203000D01*
X9595714Y-18145857D01*
X9610000Y-18074429D01*
X9624286Y-18031572D01*
X9638571Y-18003000D01*
X9667143Y-17960143D01*
X9681428Y-17945857D01*
X9781428Y-18017286D02*
X9795714Y-18003000D01*
X9824286Y-17988714D01*
X9895714Y-17988714D01*
X9924286Y-18003000D01*
X9938571Y-18017286D01*
X9952857Y-18045857D01*
X9952857Y-18074429D01*
X9938571Y-18117286D01*
X9767143Y-18288714D01*
X9952857Y-18288714D01*
X10210000Y-17988714D02*
X10152857Y-17988714D01*
X10124286Y-18003000D01*
X10110000Y-18017286D01*
X10081428Y-18060143D01*
X10067143Y-18117286D01*
X10067143Y-18231572D01*
X10081428Y-18260143D01*
X10095714Y-18274429D01*
X10124286Y-18288714D01*
X10181428Y-18288714D01*
X10210000Y-18274429D01*
X10224286Y-18260143D01*
X10238571Y-18231572D01*
X10238571Y-18160143D01*
X10224286Y-18131572D01*
X10210000Y-18117286D01*
X10181428Y-18103000D01*
X10124286Y-18103000D01*
X10095714Y-18117286D01*
X10081428Y-18131572D01*
X10067143Y-18160143D01*
X10595714Y-18288714D02*
X10595714Y-17988714D01*
X10724286Y-18288714D02*
X10724286Y-18131572D01*
X10710000Y-18103000D01*
X10681428Y-18088714D01*
X10638571Y-18088714D01*
X10610000Y-18103000D01*
X10595714Y-18117286D01*
X10910000Y-18288714D02*
X10881428Y-18274429D01*
X10867143Y-18260143D01*
X10852857Y-18231572D01*
X10852857Y-18145857D01*
X10867143Y-18117286D01*
X10881428Y-18103000D01*
X10910000Y-18088714D01*
X10952857Y-18088714D01*
X10981428Y-18103000D01*
X10995714Y-18117286D01*
X11010000Y-18145857D01*
X11010000Y-18231572D01*
X10995714Y-18260143D01*
X10981428Y-18274429D01*
X10952857Y-18288714D01*
X10910000Y-18288714D01*
X11181428Y-18288714D02*
X11152857Y-18274429D01*
X11138571Y-18245857D01*
X11138571Y-17988714D01*
X11410000Y-18274429D02*
X11381428Y-18288714D01*
X11324286Y-18288714D01*
X11295714Y-18274429D01*
X11281428Y-18245857D01*
X11281428Y-18131572D01*
X11295714Y-18103000D01*
X11324286Y-18088714D01*
X11381428Y-18088714D01*
X11410000Y-18103000D01*
X11424286Y-18131572D01*
X11424286Y-18160143D01*
X11281428Y-18188714D01*
X11538571Y-18274429D02*
X11567143Y-18288714D01*
X11624286Y-18288714D01*
X11652857Y-18274429D01*
X11667143Y-18245857D01*
X11667143Y-18231572D01*
X11652857Y-18203000D01*
X11624286Y-18188714D01*
X11581428Y-18188714D01*
X11552857Y-18174429D01*
X11538571Y-18145857D01*
X11538571Y-18131572D01*
X11552857Y-18103000D01*
X11581428Y-18088714D01*
X11624286Y-18088714D01*
X11652857Y-18103000D01*
X11767143Y-18403000D02*
X11781428Y-18388714D01*
X11810000Y-18345857D01*
X11824286Y-18317286D01*
X11838571Y-18274429D01*
X11852857Y-18203000D01*
X11852857Y-18145857D01*
X11838571Y-18074429D01*
X11824286Y-18031572D01*
X11810000Y-18003000D01*
X11781428Y-17960143D01*
X11767143Y-17945857D01*
M02*
